<?xml version="1.0" encoding="UTF-8"?>
<!DOCTYPE svg PUBLIC "-//W3C//DTD SVG 1.1//EN" "http://www.w3.org/Graphics/SVG/1.1/DTD/svg11.dtd">
<!-- Creator: CorelDRAW (Versão de avaliação) -->
<svg xmlns="http://www.w3.org/2000/svg" xml:space="preserve" width="3500px" height="3500px" version="1.1" style="shape-rendering:geometricPrecision; text-rendering:geometricPrecision; image-rendering:optimizeQuality; fill-rule:evenodd; clip-rule:evenodd"
viewBox="0 0 3500 3500"
 xmlns:xlink="http://www.w3.org/1999/xlink"
 xmlns:xodm="http://www.corel.com/coreldraw/odm/2003">
 <defs>
  <style type="text/css">
   <![CDATA[
    .str0 {stroke:#FEFEFE;stroke-width:2.36;stroke-miterlimit:22.9256}
    .str1 {stroke:#454546;stroke-width:2.36;stroke-miterlimit:22.9256}
    .str2 {stroke:#2C2A2A;stroke-width:2.36;stroke-miterlimit:22.9256}
    .str3 {stroke:#060303;stroke-width:2.36;stroke-miterlimit:22.9256}
    .fil4 {fill:none}
    .fil0 {fill:#FEFEFE}
    .fil3 {fill:#454546}
    .fil10 {fill:#2C2A2A}
    .fil9 {fill:#2C2A2A}
    .fil8 {fill:#677D99}
    .fil7 {fill:#060303}
    .fil1 {fill:#454546;fill-rule:nonzero}
    .fil6 {fill:#2C2A2A;fill-rule:nonzero}
    .fil5 {fill:#060303;fill-rule:nonzero}
    .fil2 {fill:#2C2A2A;fill-rule:nonzero;fill-opacity:0.000000}
   ]]>
  </style>
 </defs>
 <g id="Camada_x0020_1">
  <metadata id="CorelCorpID_0Corel-Layer"/>
  <polygon class="fil0 str0" points="1272.54,3518.96 1313.87,3429.68 1366.3,3291.05 1390.7,3218.49 1402.14,3209.04 1557.3,3058.66 1663.58,2991.83 1745.53,2980.41 1848.1,2997.44 1928.2,3019.98 2066.04,3030.4 2179.01,2988.32 2324.6,3015.11 2474.43,3028.22 2536.38,3021.71 2636.68,3090.46 2727.17,3208.67 2709.65,3075.24 2646.85,2940.83 2622.41,2880.7 2634.64,2853.26 2706.97,2790.34 2816.95,2580.62 2876.58,2238.75 2990.87,2082.44 3129.02,2020.59 3300.58,2023.39 3198.35,1944.83 3047.92,1886.2 2888.75,1861.49 2643.98,1846.63 2670.34,1735.73 2693.86,1679.67 2741.54,1648.94 2860.33,1631.43 2837.74,1608.41 2779.45,1592.71 2754.19,1581.19 2814.66,1518.08 2846.96,1446.85 2836.9,1338.16 2851.19,1260.61 2894.05,1178.97 2954.71,1118.98 3061.63,1054.1 3104.94,1024.95 2989.9,1011.8 2863.1,1021.12 2726.81,1054.12 2713.75,961.8 2680.14,890.47 2596.07,816.72 2563.42,747.33 2593.01,634.06 2638.16,561.79 2530.77,599.36 2419.17,702.67 2362.89,728.14 2283.82,791.2 2235.47,881.94 2233.72,907.62 2189.38,905.66 2203.7,776.26 2161.06,634.65 2044.16,489.03 1967.16,411.46 1917.28,256.57 1837.18,107.57 1835.2,186.92 1812.78,274.54 1740.98,332.41 1611.42,425.4 1532.3,545.19 1442.56,592.04 1294.07,621.83 1242.45,618.29 1173.16,573.72 1079.25,467.6 1151.99,664.31 1159.02,776.45 1167.99,833.63 1159.96,840.86 1026.71,752.42 1058.36,810.15 1074.48,837.52 1088.86,903.88 1039.15,1020.39 988.67,918.16 924.68,847.58 800.87,781.53 723.83,752.76 763.33,866.23 760.07,932.63 735.9,1011.13 667.01,1080.06 548.53,1116.91 365.4,1092.44 202.13,1053.34 89.14,1061.16 208.87,1125.97 351.98,1249.57 425.86,1370.2 481.09,1603.33 460.78,1744.51 407.62,1932.04 424.06,2058.63 470.16,2170.42 573.03,2306.02 695.82,2396.11 818.56,2441.41 876.65,2441.1 916.71,2414.11 934.89,2362.04 946.82,2315.99 969.99,2283.61 997.56,2272.65 1027.17,2334.07 1061.32,2339.14 1061.96,2308.31 1074.73,2264.17 1122.64,2243.71 1184.2,2288.27 1128.83,2364.84 1049.81,2460.21 804.44,2661.05 859.87,2678.63 947.35,2749.44 1010.63,2863.22 1193.41,2993.03 1313.89,3138.81 1336.44,3283.93 "/>
  <g>
   <path class="fil1" d="M1141.37 2332.49l39.04 -52.03 2.23 0.78c-0.36,36.51 -46.33,88.86 -68.29,117.92 -76.78,101.59 -178.58,178.57 -279.67,254.18l-7.53 5.67c81.06,5.25 133.74,67.81 161.43,139.37 11.88,30.71 14.29,37.43 40.26,59.08 51.81,43.21 137.03,85.38 200.26,141.58 64.01,56.91 96.36,124.31 117.63,205.41 6.3,24.05 10.91,48.76 8.86,73.7 25.99,-85.02 46.3,-182.69 45.15,-271.83l2.35 -0.22c17.55,124.55 -15.23,315.77 -72.41,427.98 -16.49,32.34 -39.43,63.21 -59.27,93.33 15.76,-108.64 14.34,-96.64 36.33,-190.65 17.12,-73.17 14.24,-97.38 -11.25,-167.61 -39.68,-109.31 -86.18,-144.1 -178.47,-208.24 -47.04,-32.69 -131.69,-80 -151.89,-132.34 -12.93,-33.47 -17.66,-53.71 -39.95,-84.01 -33,-44.85 -71.61,-59.69 -125.12,-60.71 -3.69,-0.07 -9.22,-0.03 -12.27,-2.39l-5.89 -9.1c-1.6,-6.83 4.77,-13.42 9.39,-17.44 18.83,-16.34 90.63,-65.06 121,-88.54 96.71,-74.78 157.96,-134.69 228.08,-233.89z"/>
  </g>
  <g>
   <path class="fil1" d="M1648.51 3017.29c-53.16,22.81 -109.69,84.87 -153.61,123.82 -35.55,31.53 -72.86,60.64 -112.16,87.35l-1.59 -1.75c50.01,-61.25 163.04,-196.83 232.59,-234.74 73.31,-39.95 154.5,-34.96 232.56,-14.57 106.5,27.83 177.96,63.53 285.7,10.47 41.25,-20.31 74.23,-30.18 119.39,-15.12 62.85,20.95 128.47,46.95 195.87,41.17 67.5,-5.79 106.34,-27.79 168.8,29.9 36.46,33.66 77.62,93.66 97.95,137.9 -2.23,-104.7 -45.59,-183.68 -95.64,-273.4 -46.15,-82.73 -97.01,-162.92 -152.83,-239.46l-15.43 -25.14 1.98 -1.29c18.72,27.04 27.39,36.57 48.22,63.53 69.51,90 191.79,268.78 223.51,374.63 12.46,41.58 24.34,118.71 13.55,161.61 -1.3,5.2 -5.49,7.99 -9.28,11.56 -17.39,-2.27 -16.45,-0.36 -24.26,-20.41 -22.92,-58.83 -53.86,-107.45 -97.4,-153.33 -24.82,-26.14 -52.98,-45.2 -90.4,-40.6 -80.03,9.86 -95.8,19.66 -181.24,-2.85 -34.18,-9 -67.51,-20.61 -101.22,-31.15 -79.1,-24.73 -108.1,84.89 -311.03,32.58 -87.21,-22.49 -167.7,-56.67 -258.41,-26.47l-15.62 5.76z"/>
  </g>
  <g>
   <path class="fil1" d="M2638.12 1844.02l-0.34 11.87 0.36 -11.87c55.74,1.73 111.27,6.05 167.07,6.63 146.28,1.52 276.47,19.41 408.5,92.03 34.98,19.23 71.62,42.21 95.11,75.27l9.21 13.16c-55.1,7.06 -66.55,-2.58 -118.41,-4.44 -57.2,-2.04 -131.23,11.41 -177.9,46.27 -63.39,47.36 -119.59,111.92 -138.47,190.26 -30.43,126.26 -13.9,226.51 -67.38,360.87 -17.97,45.14 -66.63,146.12 -103.35,176.23 -33.37,27.36 -49.25,28.39 -78.72,72.45 -7.31,10.93 -14.66,25.72 -25.22,13.36 -8.01,-9.38 -2.94,-8.08 13.88,-33.28 31.41,-47.05 74.11,-56.63 98.58,-97.58 50.61,-84.68 89.31,-173.67 103.79,-271.6 12.44,-84.11 17.66,-214.51 56.03,-288 28.24,-54.07 88.17,-118.76 140.26,-150.52 55.23,-33.68 137.37,-43.94 200.57,-37.83 19.56,1.89 38.98,5.28 58.59,6.6 -75.17,-75.95 -227.34,-125.43 -330.97,-138.62 -100.11,-12.75 -181.11,-8.34 -279.81,-7.29 -6.07,0.06 -33.36,2.21 -36.24,-2.55 -3.11,-5.12 -4.3,-21.62 4.86,-21.42z"/>
  </g>
  <g>
   <path class="fil1" d="M1405.2 2282.9c-6.11,-14.06 -12.32,-28.27 -21.69,-40.52l37.23 -15.2c4.19,26.58 8.95,53.18 16.99,78.92 7.24,-13.83 25.24,-18.87 42.2,-27.96l7.16 -3.88 4.29 7.78 -4.29 -7.79c57.48,-31.79 115.19,-63.62 170.16,-99.6 70.29,-46.03 149.03,-79.84 229.75,-102.86 85.79,-24.47 234.38,-31.1 321.11,-5.7 55.09,16.14 28.78,41.11 -2.59,75.96 -130.46,144.93 -163.8,159.54 -334.15,248.44 -83.01,43.32 -156.98,32.33 -244.52,16.1 -39.44,-7.32 -127.96,-12.83 -158.76,-31.41l-8.27 -5.23c21.1,69 73.68,247.63 62.01,303.18 -4.39,20.89 -19.58,24.49 -36.32,3.52 -25.62,-32.13 -31.02,-34.22 -70.73,-53.65 -48.19,-23.59 -65.14,-22.34 -111.52,-38.76l3.86 -10.9 -3.87 10.9c-22.13,-7.98 -43.42,-17.28 -62.88,-30.65l0 0.01c-28.59,-20.21 -92.49,-77.72 -104.6,-110.57 -16.38,-44.39 36.64,-28.02 57.08,-73.54 30.54,-68.05 -97.63,-175.74 -118.61,-75.25 -2.01,9.65 -2.39,19.53 -2.96,29.34l-10.09 -0.14 10.09 0.15c-0.22,16.01 4.07,50.91 -34.06,29.98 -31.44,-17.26 -47.01,-51.67 -46.52,-86.51 1.29,-92.43 -45.46,-220.01 -92.56,-299.83 -24.96,-42.29 -43.24,-66.96 -61.47,-114.83 -41.77,-109.7 -8.19,-182.72 36.45,-282.65 44.74,-100.14 61.77,-141.83 42.23,-255.39 -6.59,-38.29 -25.69,-130.09 -42.76,-165.36 -3.27,-6.75 -12.84,-23.64 0.98,-25.61 10.09,-1.44 47.25,28.51 58.35,36.76l57.85 44.61c91.27,67.13 132.59,106.74 182.23,210.81l2.06 4.26 -2.05 1.18c-46.15,-70.55 -62.98,-102.37 -130.74,-159.16 -35.3,-29.59 -73.89,-56.1 -110.21,-85l-46.06 -34c16.53,34.47 31.5,104.76 39.15,141.82 25.02,121.25 17.09,170.73 -32.99,282.03 -23.36,51.91 -55.29,121.52 -57.65,178 -3.26,77.81 36.87,145.29 76.68,208.85 47.78,76.28 98.88,213.77 99.95,302.83 0.34,28.4 0.65,51.82 26.95,73.17l14.19 8.67c0,-36.31 1.72,-87.91 42.45,-102.69 74.44,-27.03 188.35,117.96 82.11,183.34l-20.91 10.5c4.62,27.83 75.09,89.09 98.46,105.39l-6.51 9.42 6.51 -9.41c17.87,12.02 37.34,20.58 57.61,27.66l0 0.01c64.39,22.14 79.15,17.59 145.1,55.53 18.66,10.73 30.16,20.99 43.29,37.87 -0.51,-67.44 -31.94,-171.85 -50.31,-239.24 -5.08,-18.64 -15.69,-43.05 -17.52,-61.45l-5.68 -18.32 -0.8 -2.78 9.31 -6.08 -0.01 -0.38 -9.54 5.85c-9.36,-15.65 -12.27,-34.02 -19.64,-50.54zm-525.88 -1143.75l-4.82 -2.01c2.84,-0.11 5.57,-2.62 5.43,-5.58l1.38 3.58 -1.99 4.01zm176.47 1200.5l0.27 0.05 -0.28 0.01 0.01 -0.06zm431.47 18.82c21.22,9.92 116.98,19.71 148.06,25.74 78.58,15.26 151.19,24.6 225.43,-13.74 71.32,-36.83 158.98,-79.13 219.82,-131.2 23.88,-20.45 119.35,-115.83 136.33,-142.79l2.32 -4.3c-42.06,-23.83 -170.89,-24.13 -218.59,-20.52 -85.76,6.51 -165.52,32.33 -243.43,67.94 -55.93,25.56 -105.47,61.69 -158.69,92.08l-102.83 58.15 0 0c-6.33,3.53 -37.07,18.88 -39.31,23.54 -3.89,8.06 0.33,19.02 1.57,27.25 10.2,5.23 19.06,12.71 29.32,17.85z"/>
  </g>
  <g>
   <path class="fil1" d="M1892.7 2621.58c-47.48,-64.52 -139.13,-172.17 -212.92,-204.99l6.65 -17.66c97.67,36.4 247.41,209.88 282.98,305.9 6.09,16.45 10.08,32.44 10.73,50.01l-2.3 0.53c-16.24,-33.68 -62.59,-102.57 -85.14,-133.79z"/>
  </g>
  <g>
   <path class="fil1" d="M2025.09 2468.1c-61.57,-33.39 -121.55,-50.87 -189.9,-64.4l4.78 -22.79c102.62,23.12 236.63,64.35 297.32,157.43l-1.69 1.65c-37.5,-24.8 -70.99,-49.86 -110.51,-71.89z"/>
  </g>
  <g>
   <path class="fil1" d="M2347.99 2146.32c-81.72,8.53 -146.32,49.52 -216.92,74.38l-7.16 -22.43c77.21,-23.87 138.8,-65.82 232.21,-72.96 63.45,-4.85 129.17,-1.08 190.39,17.07l-0.34 2.34c-64.99,0.74 -134.45,-3.95 -198.18,1.6z"/>
  </g>
  <g>
   <path class="fil1" d="M2149.78 1796.29c-165.74,35.01 -364.61,125.63 -491.67,238.82 -21.69,19.33 -36.42,34.82 -54.74,57.18l-16.66 -12.79c124.79,-158.44 419.37,-299.44 618.88,-318.06 49.52,-4.62 171.34,-7.15 217.81,10.47l9.53 4.04 -0.05 2.36c-38.75,15.53 -91.33,7.39 -136.85,6.7 -50.74,-0.77 -96.27,1.68 -146.25,11.28z"/>
  </g>
  <g>
   <path class="fil1" d="M2818.97 1626.52c24.02,-0.32 15.94,0.3 36.98,-3.36l-0.87 4.7 -14.88 -8.21c-69.97,-30.29 -207.78,-34.69 -283.31,-29.5 -170.04,11.69 -337.24,69.34 -471.19,176.23l-37.71 32.09 -1.63 -1.71c39.11,-36.51 67.34,-61.99 112.59,-92.09 167.43,-111.36 391.12,-155.03 589.62,-126.71 24.95,3.56 101.01,17.48 118.89,35.71l5.86 8.64 -2.2 12.4c-2.64,4.2 -14.81,8.27 -19.59,9.15 -43,7.95 -125.36,-16.95 -166.34,79.13 -19.22,45.04 -25.9,106.62 -47.28,162.7l-8.58 -2.8c29.84,-120.58 17.6,-258.12 189.64,-256.37z"/>
  </g>
  <g>
   <path class="fil1" d="M2680.72 1923.25c-27.8,-21.15 -57.23,-39.73 -83.29,-63.15l1.47 -1.85c19.84,13.41 100.01,57.76 105.8,68.04 6.08,10.79 -4.62,15.39 -16.45,13.99 -53.97,-6.38 -45.95,-17.59 -113.88,-6.31 -49.19,8.17 -123.03,30.01 -163.22,60.37 -40.36,30.51 -68.08,68.06 -92.43,111.79 -12.61,22.66 -26.81,12.36 -60.31,-1.64 -21.53,-9 -62.71,-22.07 -77.77,-32.76l-1.08 -0.78 0.36 -2.33c34.12,-10.61 89.58,27.9 120.96,33.75 9.85,-13.99 14.73,-31.09 39.61,-63.12 36.9,-47.5 70.46,-74.67 126.46,-95.33 42.29,-15.6 109.77,-35.18 154.39,-32.74 20.12,1.1 39.91,7.34 59.38,12.07z"/>
  </g>
  <g>
   <path class="fil1" d="M1111.02 1806.7c34.66,29.22 64.72,61.53 83.66,103.21l-1.92 1.38c-70.75,-65.1 -146.46,-154.06 -251.73,-163.81l-0.17 -2.35c63.72,-12.84 122.82,22.7 170.16,61.57z"/>
  </g>
  <g>
   <path class="fil1" d="M837.11 1375.39c1.73,-78.22 -27.71,-150.21 -64.15,-218.04l2 -1.27c72.29,100.86 90.11,188.2 61.91,306.89 -19.52,82.13 -19.91,100.44 1.93,184.08 1.5,5.77 8.05,24.56 6.7,29.09 -2.2,7.37 -6.37,34.3 -19.23,26.18 -15.06,-9.51 -45.11,-178.77 -63.57,-212.54 -18.3,-33.48 -70.14,-84.59 -97.96,-114.59 -62.83,-67.78 -190.08,-185.13 -266.19,-233.38 -78.19,-49.58 -169.95,-84.58 -263.51,-82.88l-39.4 2.05c48.51,14.52 48.88,14.63 94.3,40.68 212.73,121.99 310.32,316.2 296.66,561.91 -6.65,119.72 -56.85,161.78 -65.81,249.92 -8.12,79.89 17.39,173.99 54.46,244.43 51.71,98.26 139.93,195.81 243.94,240.43 27.53,11.81 96.84,38.9 126.2,40.22 22.14,1.01 41.49,-7.26 59.13,-20.3 25.84,-19.11 23.85,-100.47 50.32,-129.12 14.51,-15.71 26.23,-15.64 44.83,-22.72l1.4 1.9c-22.04,26.78 -38.33,6.76 -54.04,70.03 -6.83,27.55 -13.23,75.53 -37.85,92.45 -53.19,36.54 -90.19,19.84 -148,-0.87 -75.82,-27.16 -119.98,-47.62 -179.96,-103.53 -110.13,-102.66 -190.8,-247.59 -185.54,-401.51 3.1,-90.82 58.03,-153.4 65.04,-251.17 17.34,-241.64 -74.81,-433.66 -284.44,-554.35 -53.62,-30.87 -39.77,-22.05 -94.02,-40.18 -10.58,-3.53 -30.99,-10.64 -23.89,-25.82 10.22,-21.82 113.19,-14.86 134.59,-11.71 115.18,16.89 215.61,76.45 302.81,151.13 68.74,58.86 134.42,121.7 195.4,188.56 33.72,36.97 79.03,76.53 94.02,125.46 17.45,56.99 26.52,116.29 45.27,172.94 2.58,-9.02 0.25,-10.86 -2.97,-23.21 -22.48,-86.39 -24.39,-108.56 -4.05,-192.78 7.03,-29.12 12.54,-58.39 13.67,-88.38zm-15.04 321.14l12.61 -4.9 0.25 0.58 -0.41 -0.51 -12.45 4.83z"/>
  </g>
  <g>
   <path class="fil1" d="M736.75 1932.79c75.14,2.81 146.41,16.95 195.69,78.75l-1.73 1.6c-79.33,-68.32 -165.07,-62.64 -258.81,-65.12l-48.24 -3.68 -0.09 -2.36c38.45,-8.39 73.99,-10.43 113.18,-9.19z"/>
  </g>
  <g>
   <path class="fil1" d="M1608.89 1823.36l0 0.02 0.65 0.35 0 -0.01 -0.65 -0.36zm299.57 -1002.25l2.01 -1.24c22.79,40.93 20.82,158.91 3.7,201.73 52.86,-48.45 121.67,-103.84 194.11,-116.08 84.81,-14.33 198.33,1.19 282.89,17.1l-1.14 5.9 1.14 -5.9c28.37,4.5 84.17,-23.85 91.39,1.22 5.67,19.71 -50.39,32.65 -65.39,56.77 -32.68,52.53 -43.53,128.43 -24.1,187.34 13.41,40.68 23.17,41.14 28.25,57.38 7.89,25.19 -15.27,100.13 -24.83,124.74 -15.17,39.05 -35.75,87.31 -63.12,118.79 -23.04,26.51 -94.27,83.67 -101.38,101.49l-0.25 0.72c18.13,1.16 12.56,21.03 -33.1,22.39 -35.55,1.06 -74.49,-5.13 -104,30.33 -14.2,17.05 -21.01,41.86 -9.9,62.19 8.44,15.44 -15.3,13.43 -23.38,12.62l0.53 -5.73 -0.53 5.73c-44.84,-4.56 -120.59,-18.64 -161.42,-16.89 -106.06,4.55 -220.89,36.47 -280.92,131.38l-7.08 11.93 -0.94 1.76 -1.92 -0.34 2.74 -1.33 -2.29 -1.31 -0.65 -0.37 -0.54 2.86c-51.69,-9.81 -80.34,-2.44 -130.12,10.03l-0.6 -2.29c49.28,-13.65 78.77,-21.92 130.53,-13.19 62.64,-110.41 179.26,-144.61 298.6,-149.73 36.74,-1.57 131.7,16.31 165.84,16.86 -21.48,-47.78 22.25,-107.94 99.9,-106.93 15.93,0.21 32.91,1.5 48.48,-2.59 -13.52,-18.2 56.41,-72.78 67.11,-82.4 51.38,-46.19 64.23,-73.08 90.32,-135.11 14.68,-34.87 32.53,-88.37 31.71,-126.73 -0.25,-11.37 -14.39,-23.15 -23.17,-45.87 -22.84,-59.14 -21.15,-115.64 0.74,-175.16 8.77,-23.82 18.64,-46.02 40.55,-60.15 11.01,-7.1 34.55,-16.99 42.12,-25.98 -7.96,-7.13 -54.64,11.74 -81.47,7.36l0 0c-89.28,-17.21 -244.28,-41.14 -328.93,-4.45 -57.99,25.14 -110.22,68.62 -156.44,111.03l-8.29 -1.33c23.1,-28.38 25.56,-69.28 26.87,-104.48 1.15,-30.72 0.87,-86.46 -13.63,-114.07zm562.31 106.23l-0.05 0.04 0.14 0.18 -0.09 -0.22zm-241.28 647.22l0.16 -0.16 -0.14 0.18 -0.02 -0.02zm-619.95 249.16l0 0.01 1.22 0.65 -1.22 -0.66z"/>
  </g>
  <g>
   <path class="fil1" d="M3119.71 1015.67l-2.06 7.99 0.47 -0.22 -0.51 0.38 0.04 -0.16m-3.16 12.3l-1.02 3.94 4.91 1.55 -3.89 -5.49zm-370.07 557.62l-1.75 -1.59c26.89,-43.76 66.03,-81.76 78.81,-106.19 24.12,-46.13 11.19,-122.91 9.75,-173.75 -1.29,-45.87 30.21,-85.95 53.95,-127.27 44.99,-78.35 113.54,-126.33 199.02,-151.43 -196.3,-37.96 -470.59,35.99 -617.13,171.4l-14.35 13.86 -1.72 -1.61c77.18,-83.59 175.09,-138.05 282.37,-173.97 120.37,-40.3 261.84,-57.93 386.34,-27.36 6.25,1.53 15.38,4.47 17.97,11.27 4.89,12.86 -7.52,19.36 -17.42,22.53 -56.37,18.05 -87.79,23.3 -139.02,64.17 -41.36,32.99 -56.82,58.23 -82.25,101.49 -22.33,37.99 -43.26,61.35 -40.05,105.45 4.04,55.69 13.05,138.63 -19.3,186.49 -19.99,29.57 -66.63,65.16 -95.22,86.51z"/>
  </g>
  <g>
   <path class="fil1" d="M2734.06 1022.12c1.14,11.45 0.81,22.22 -6.07,31.94l-2.36 0.12c-12.64,-14.44 -10.97,-35.92 -13.72,-53.64 -10.12,-65.17 -29.07,-107.69 -85.7,-142.13 -45.72,-27.82 -69.51,-44.43 -64.82,-109.54 2.43,-33.82 15.75,-94.07 32.08,-124.76l28.95 -52.29c-54.55,4.09 -160.34,120.24 -194.25,161.65 -34.24,41.81 -53.73,68.14 -75.37,117.07l-21.94 47.15 -2.27 -0.79c17.82,-82 27.97,-113.65 84.83,-185.05 35.36,-44.42 161.28,-183.41 225.4,-162.97 25.91,8.25 2.56,39.88 -8.87,59.43 -21.26,36.39 -25.24,43.5 -36.9,89.6 -9.13,36.14 -22.14,90.43 9.47,119.65 36.73,33.93 99.03,38 124.43,157.97l7.11 46.59z"/>
  </g>
  <g>
   <path class="fil1" d="M2301.72 764.14c40,-40.59 86.67,-72.09 145.27,-74.74l0.53 2.3c-108.32,49.51 -162.58,118.16 -221.98,218.02l-2.23 -0.78c8.84,-56.67 39.31,-104.02 78.41,-144.8z"/>
  </g>
  <g>
   <path class="fil1" d="M1270.58 1689.44l4.32 -2.9c-38.26,-52.76 -71.17,-56.11 -129.32,-72.9 -22.71,-6.55 -18.87,-19.66 8.78,-27.32 61.19,-16.95 181.13,-15.8 237.6,2.67 174.11,56.98 205.75,291.05 359.99,338.38l16.55 4.24 -3.62 16.95c-51.05,-13.68 -83.64,-34.62 -119.47,-73.38 -101.98,-110.29 -140.78,-268.2 -316.83,-283.65 -47.7,-4.19 -126.99,-4.97 -173.59,9.66 90.31,22.64 119.16,42.96 165.53,124.72 28.77,50.73 37.88,75.12 79.58,123.96 42.31,49.57 93.74,84.56 139.09,130.01 18.12,18.17 87.04,54.67 92.1,75.67 4.98,20.67 -23.04,32.44 -32.11,49.14 -45.69,84.16 -128.23,181.66 -236.07,129.65 -107.32,-51.76 -165.1,-215.98 -168.34,-327.4 -2.21,-75.75 17.35,-164 75.81,-217.5zm19.94 20.69c-58.41,52.89 -76.33,116.19 -73.92,196.16 3.05,100.92 52.32,244.64 142.67,300.2 99.09,60.95 177.11,-34.37 219.47,-112.87 9.83,-18.23 21.78,-21.26 29.15,-32.81 -19.14,-19.54 -61.87,-41.7 -92.79,-71.85 -57.24,-55.83 -96,-73.02 -151,-149.74 -35.72,-49.83 -45.38,-82.64 -73.58,-129.09z"/>
  </g>
  <g>
   <path class="fil1" d="M2172.58 1530.19c57.36,26.43 106.07,58.3 145.6,108.36l-1.52 1.81c-114.28,-59.23 -195.55,-122.58 -334.64,-128.94 -121.06,-5.53 -217.28,39.65 -306.7,117.77 -34.58,30.21 -77.75,69.66 -111.41,97.9 -5.44,4.57 -19.37,8.46 -19.65,-2.12 -0.32,-12 16.5,-22.84 29.77,-34.62 57.01,-50.59 121.84,-114.59 186.26,-150.91 133.88,-75.51 274.32,-69.75 412.29,-9.25z"/>
  </g>
  <g>
   <path class="fil1" d="M1699.88 1645.81c-5.33,-12.44 -9.7,-30.05 -17.49,-36.34l0.37 -2.34c22.47,-5.47 31.8,30.88 44.62,55.48l7.65 14.43 -1.34 1.95c-18.23,-3.19 -26.96,-17.58 -33.81,-33.18z"/>
  </g>
  <g>
   <path class="fil1" d="M1938.87 1595.33c-55.27,-22.96 -116.7,-34.45 -175.77,-42.79l0.01 -2.36c65.26,-8.1 151.95,6.55 207.38,39.47 12.68,7.53 22.91,16.31 31.04,28.69l-1.42 1.88c-24.02,-7.14 -38.89,-15.26 -61.24,-24.89z"/>
  </g>
  <g>
   <path class="fil1" d="M1321.45 2207.83c-0.76,-7.77 19.45,-9.99 20.26,-2.06 8.82,86.53 7.25,170.27 -60.79,231.75l-20.06 17.05 -1.84 -1.47c28.58,-54.89 55.25,-71.76 63.44,-150.5 3.29,-31.63 2.04,-63.19 -1.01,-94.77z"/>
  </g>
  <g>
   <path class="fil1" d="M2575.38 1319.64c-51.06,8.6 -171.19,30.32 -203.67,73.16l-2.08 -1.13c36.09,-75.64 262.04,-108.28 343.59,-96.25l3.07 0.48 0 2.36 -140.91 21.38z"/>
  </g>
  <g>
   <path class="fil1" d="M2469.03 1412.18c-36.07,9.66 -109.21,38.1 -142.45,55.66l-1.49 -1.84c44.03,-48.89 164.65,-98.19 233.93,-76.86l3.11 1 -0.11 2.36c-31.17,7.35 -62.64,11.97 -92.99,19.68z"/>
  </g>
  <g>
   <path class="fil1" d="M613.57 1116.99c-96.64,24.43 -143.1,13.73 -235.35,-9.53 -22.04,-5.55 -44.05,-9.82 -66.82,-10.41l0 -22.77c99.96,1.75 155.82,58.03 295.74,19.05 101.73,-28.34 171.68,-135.56 139.67,-239.96 -7.03,-22.91 -34.38,-86.4 -35.54,-94.03 -3.42,-22.57 16.73,-24.06 32.69,-18.21 18.23,6.7 106.15,50.02 123.72,60.62 61.88,37.33 128.23,90.74 155.51,159.52 6.03,15.2 10.26,31.03 13.14,47.11l0.56 31.99 -2.35 0.24 -5.87 -30.86c-30.34,-85.65 -88.21,-132.63 -162.83,-179.83 -35.55,-22.48 -74.55,-38.97 -112.36,-57.2 -7.47,-3.61 -16.56,-9.17 -24.99,-9.96 3.71,-0.45 7.4,-3.83 7.53,-7.71 0.41,2.67 28.82,70.85 35.57,93.65 33.18,111.99 -38.96,229.93 -147.68,265.22l-10.34 3.07z"/>
  </g>
  <g>
   <path class="fil1" d="M1004.06 1153.82c-2.7,8.56 -18.35,51.94 -13.52,58.35l0.63 0.71 -0.88 2.19c-24.07,-3.62 -6.03,-60.26 -1.79,-73.1 16.4,-49.66 42.27,-120.83 65.79,-166.16 29.82,-57.44 30.71,-75.29 9.35,-136.55 -18.03,-51.7 -26.11,-43.54 -55.02,-73.89 -13.52,-14.19 -4.36,-27.55 14.89,-24.88l0 -0.01 5.55 1.07 -2.27 10.52 2.28 -10.52c50.46,12.51 139.71,93.49 183.92,127.29 70.81,54.13 129.23,118.43 170.5,198.18l14.33 31.06c14.45,20.92 86.14,21.34 124.4,77.94 31.79,47.02 58.55,153.39 95.81,164.42l18.63 5.14c-28.15,26.14 -44.31,45.46 -55.53,83.22 -9.96,33.5 -9.22,62.86 16.56,88.4 -1.58,14.99 -12.24,76.59 -8.32,87.86 4.52,12.95 28.53,23.46 40.25,28.47l-0.35 -0.02 4.26 -0.16 0 19.28c-14.09,0.14 -26.48,-7.88 -38.35,-15.05 -41.51,-25.03 -24.5,-57.03 -18.64,-113 -43.42,-45.22 -14.58,-129.31 21.19,-170.42 -51.53,-31.94 -62.45,-156.64 -122.34,-194.31 -24,-15.09 -51.9,-20.92 -76.99,-33.54l-9.7 11.63c-21.4,-61.91 -44.11,-100.6 -85.32,-151.81 -52.08,-64.74 -99.47,-94.43 -161.3,-145.85 -27.6,-22.96 -56.59,-44.7 -87.62,-62.83 24.48,25.49 40.69,80.84 44.26,115.77 5.26,51.49 -31.69,92.23 -52.87,147.49 -14.37,37.52 -29.53,74.84 -41.79,113.11zm17.69 -402.36l-1.76 10.98 -3.27 -0.34c5.21,-0.92 4.33,-6.24 5.03,-10.64z"/>
  </g>
  <g>
   <path class="fil1" d="M2176.03 644.07c41.91,68.29 59.81,193.48 23.94,266.97l-21.18 -10.77c30.31,-67.99 10.67,-186.16 -29.24,-247.37 -48.46,-74.34 -129.64,-191.57 -198.12,-243.83l0 0c-9.64,-7.08 -0.68,-19.86 9.24,-12.5l-4.61 6.25 4.62 -6.25c78.29,59.39 161.19,164.47 215.35,247.5z"/>
  </g>
  <g>
   <path class="fil1" d="M1167.08 714.81c-3.52,47.84 -4.25,98.41 15.42,143.16l-2.07 1.15c-27.95,-43.97 -31.09,-94.72 -31.39,-145.09 -0.45,-75.32 -76.9,-200.12 -84.73,-257.86 -0.67,-4.94 0.37,-11.06 3.61,-13.89 4.16,-3.64 12.81,-5.26 19.18,1.24 19.8,20.21 34.55,74.86 93.1,121.72 30.32,24.26 63.07,45.99 89.51,74.6 18.25,19.75 43.46,50.11 59.54,66.71l-1.51 1.82c-30.22,-21.9 -65.42,-59.18 -93.92,-78.74 -46.58,-31.98 -87.86,-55.52 -119.57,-100.28 22.8,55.95 55.6,124.22 52.83,185.46zm-102.39 -256.3l22.96 -4.3 0.29 -1.92 0.27 1.82 -23.52 4.4z"/>
  </g>
  <g>
   <path class="fil1" d="M1495.58 587.79c-58.09,23.42 -181.28,45.04 -246.13,54.86l-3.71 -27.4c52.76,-6.62 220.35,-30.8 258.34,-58.66 47.5,-34.83 52.75,-97.58 110.08,-148.35 49.89,-44.17 109.59,-73.85 161.68,-110.85 24.57,-17.46 38.9,-32.03 43.44,-62.85 10.19,-69.25 5.8,-69.96 -11.87,-134.12l-2.74 -14.39c9.94,-5.65 16.21,-11.33 29.69,1.94 31.12,30.63 87.61,149.36 103.29,194.65 38.8,112.12 39.71,221.8 25.03,338.55 -1.99,15.76 -10.8,30.14 -13.22,45.81l-2.36 -0.18c1.2,-17.97 8.96,-29.29 10.17,-60.27 5.73,-146.77 -2.32,-253.81 -68.47,-386.87 -16.08,-32.34 -32.88,-64.53 -52.42,-94.93 12.51,44.75 10.24,76.53 2.1,121.97 -9.13,50.97 -70.75,80.91 -111.66,107.19 -46.89,30.13 -104.8,64.16 -133.94,112.96 -26.84,44.96 -46.73,97.52 -97.3,120.94z"/>
  </g>
  <g>
   <path class="fil2" d="M2151.48 905.8l18.44 -1.82 -0.06 0.27c-2.3,0.02 -17.45,3.55 -18.38,1.55l-4.55 -22.81c-16.83,-57.23 -66.09,-109.04 -124.76,-122.71 -33.33,-7.76 -89.88,-26.38 -110.53,-54.38 -10.28,-13.92 -18.47,-29 -24.93,-45.04 1.84,32.27 8.85,61.43 -20.42,77.52 -82.54,45.38 -137.07,66.31 -208.45,137.69 -28.99,28.99 -55.48,42.05 -92.3,59.95 -26.4,12.84 -104.66,49.58 -131.09,53.81 -31.94,5.11 -94.96,8.73 -126.21,2.62l5.37 -25.26c25.37,3.89 108.66,-1.03 131.6,-10.7 48.83,-20.59 151.63,-62.19 186.93,-98.24 71.75,-73.27 128.78,-97.65 216.28,-142.76 14.43,-7.44 12.81,-6.59 11.58,-42.48 -0.47,-13.9 -4.95,-62.25 3.84,-71.83 8.55,-9.32 19.38,-4.25 25.19,4.61 21.74,33.22 23.74,80.78 60.42,102.93 26.72,16.12 56.7,24.86 86.39,33.51 68.25,19.89 125.39,92.03 134.08,161.73l-18.44 1.84z"/>
  </g>
  <g>
   <path class="fil1" d="M1630.06 757.8c10.42,34.96 31.09,118.04 11.82,151.26l-2.22 -0.8c0.34,-18.86 -42.14,-159.25 -50.68,-185.35l-21.81 -68.37 1.84 -1.48c33.41,22.91 49.59,67.63 61.05,104.74z"/>
  </g>
  <g>
   <path class="fil1" d="M1294.67 1426.4c-29.82,64.52 -93.05,105.32 -83.8,156.41l-15.98 4.7c-30.08,-99.68 149.25,-150.47 58.16,-301.92 -22.77,-37.86 -33.51,-38.59 -71.06,-63.83 -12.52,-8.42 -47.27,-28.36 -37.3,-47.2 10.69,-20.2 72.82,-1.56 89.07,3.99 60.01,20.5 102.6,75.21 124.72,65.03 9.24,-4.25 42.92,-30.26 56.25,-38.59l9.77 15.78c-2.32,-5.52 -6.58,-10.72 -9.77,-15.79l0.94 -0.48 2.5 -0.84c5.67,0.85 10.72,15.26 9.39,20.18l0.57 0.92 -0.62 0.47 -0.28 -0.44 -0.12 0.19 -0.01 0.01 0.22 0.35c-23.74,14.97 -53.76,42.79 -73.38,44.12 -40.91,2.77 -68.39,-56.24 -157.27,-73.88l-7.53 -1.4c22.92,15.46 53.74,30.67 70.59,52.5 39.14,50.72 61.18,118.03 34.94,179.72zm129.83 -205.63l-3.48 -5.61 3.49 5.64 -0.01 -0.03zm2.84 4.57l0 0z"/>
  </g>
  <g>
   <path class="fil1" d="M1655.97 1132.18l-3.75 -7.35 0 0 3.75 7.35zm-166.66 525.72l-2.25 -0.72 -66.63 -169.05c-17.54,-47.2 -18.75,-59.94 -13.89,-112.72 6.26,-68.02 19.63,-118.14 1.1,-186.54 -6.65,-24.55 8.52,-16.3 -23.98,-62.45l-8.94 -12.72c20.69,-17.8 29.22,-20.41 57.82,-22.94 34.36,-3.04 121.54,-0.57 154.36,8.04 23.45,6.15 45.01,16.64 67.75,24.69l25.65 -8.28c36.29,-9.29 86.22,-15.44 121.32,0.54l-0.92 2.17c-38.73,-12.25 -105.75,2.65 -140.97,21.61l0 0.01c-11.07,2.52 -26.87,-5.6 -37.62,-9.13 -52.01,-17.06 -73.61,-15.09 -127.74,-15.64 -26.95,-0.27 -55.3,-0.86 -81.57,6.01 13.22,18.69 20.35,34.56 21.13,57.76 0.03,0.64 8.43,37.07 9.7,48.22 8.63,75.88 -24.01,176.28 -6.08,232.41 9.36,29.33 54.74,175.39 51.76,198.73z"/>
  </g>
  <g>
   <path class="fil1" d="M1378.9 1399.57c13.02,9.56 34.38,23.21 41.27,38.9l-1.7 1.65c-23.48,-2.98 -49.62,-14.8 -65.35,-33.12 -5.83,-6.78 -10.31,-16.65 -6.84,-25.53l2.3 -0.53c9.32,6.25 9.93,3.27 30.32,18.63z"/>
  </g>
  <g>
   <path class="fil1" d="M2152.09 1438.19c-33.09,27.08 -68.27,51.17 -103.19,75.78l-13.43 -19.67c70.2,-46.37 153.45,-92.85 175.62,-180.53 1.92,-7.59 13.7,-42.36 10.71,-47.7l12.94 -14.6 -12.98 14.57c-6.76,-3.95 -66.68,9.96 -76.9,14.22 17.62,18.15 31.35,24.48 14.22,59.43 -28.03,57.21 -112.5,59.71 -166.92,69.59 -48.79,8.85 -86.66,7.55 -129.75,-20.28 -18.51,-11.95 -59.76,-26.42 -84.24,-40.26l0.06 0.04c-16.14,-5.26 -29.16,-1.69 -55.12,-24.09 -26.42,-22.81 -10.49,-29.4 -38.6,-33.88 -20.49,-3.27 -27.9,-24.88 -34.56,-41.83 -8.18,26.62 -15.33,127.89 6.31,146.79 41.25,36.03 97.63,-2.27 124.71,28.28l23.88 17.83c18.98,15.32 56.64,48.62 82.24,44.36 11.02,-1.83 18.4,12.79 6.59,17.67l-3.85 -0.24 0.08 0.36c-42.41,6.89 -87.15,-46 -115.24,-62.42l1.9 0.23c-11.24,-2.42 -5.28,-5.11 -14.2,-9.83 -23.22,-12.3 -73.06,16.22 -117.59,-22.1 -31.12,-26.79 -25.14,-165.34 -3.4,-182.81l7.08 -4.14c24.45,10.21 17.11,31.14 33.68,47.18 9.16,8.87 19.65,-9.2 44.17,30.81 9.41,15.36 32.5,25.28 49.64,28.12l11.65 3.31 0 0c25.85,14.68 63.19,26.51 85.13,40.62 58.27,37.46 101.06,18.31 166.52,9.29 42.73,-5.89 101.38,-20.37 108.31,-71.17 1.21,-8.92 -68.84,-38.96 19.74,-57.09 41.68,-8.54 87.69,-24.09 70.08,38.45 -14.3,50.76 -20.49,77.24 -57.29,118.77l-28 26.94zm-262.19 65.78l0.28 -0.01 -0.27 0.07m-113.51 -71.22l0 0zm0.18 9.03l0 0zm1.54 -93.13l4.74 -8.17 -4.75 8.16 0.01 0.01z"/>
  </g>
  <g>
   <path class="fil1" d="M1949.69 1446.53c7.91,14.79 16.61,33.12 14.12,50.58l-2.27 0.64c-27.25,-25.39 -33.17,-56.39 -53.38,-80.45l-0.31 -0.47 0.34 -0.15c-13.65,-4.1 -14.73,-12.23 -18.88,-22.78l1.79 -1.55c10.83,6.67 8.08,9.13 19.35,9.79 15.27,0.89 32.87,32.65 39.24,44.39z"/>
  </g>
  <g>
   <path class="fil1" d="M2292.57 1340.6c14.61,-0.39 28.22,-0.32 40.96,8.09l-0.08 2.36c-19.7,11.69 -55.96,9.83 -81.41,10.02l-51.41 -0.55 -1.86 -1.46c10.93,-15.15 75.22,-17.92 93.8,-18.46z"/>
  </g>
  <g>
   <path class="fil1" d="M2143.12 1262.11c9.22,33.26 -12.35,79.09 -27.62,108.18l-2.31 -0.48c-1.98,-41.36 14.45,-81.35 4.82,-106.45l-1.21 -3.14 0 0c-41.69,-95.29 -143.48,-93.65 -206.18,-194.03 -26.51,-42.45 -38.03,-26.72 -75.79,22.08 -32.33,41.79 -38.62,47 -62.2,99.54 -14.36,31.98 -46.59,108.86 -24.91,141.56l-1.77 1.56c-36.08,-44.65 23.7,-187.21 54.3,-228.17 19.5,-26.12 51.09,-78.95 80.14,-82.86 33.31,-4.48 47.79,38.01 71.59,63.46 61.58,65.87 146.48,74.5 187.23,167.9l-11.2 4.49 11.21 -4.48 3.9 10.84z"/>
  </g>
  <g>
   <path class="fil1" d="M2032.9 1237.01l11.43 -6.76 -11.43 6.75 -15.41 -21.73 -0.01 0c-13.39,-14.98 -71.59,-75.68 -90.2,-43 -12.11,21.25 4.76,13.16 -35.4,37.44 -26.33,15.93 -36.74,29.66 -49.08,60.66 -12.4,31.15 -21.08,73.57 5.8,99.62l-1.38 1.92c-51.62,-34.99 -23.09,-139.93 19.28,-172.54l32.84 -22.91c1.42,-2.22 14.47,-65.75 81.01,-27.64 21.44,12.28 40.63,30.61 57.07,48.91l-9.97 8.77 9.97 -8.76 18.33 25.76 0.01 -0.01c24.01,41.8 49.55,122.15 13.52,159.95l-6.59 5.65 -1.7 -1.63c21.43,-39.34 -7.6,-114.65 -28.09,-150.45z"/>
  </g>
  <g>
   <path class="fil1" d="M2011.86 1308.77c9.15,25.6 17.55,58.4 10.84,85.49l-2.36 0.15c-16.68,-38.9 -17.85,-49.79 -30.65,-83.19 -4.22,-11 -13.9,-37.7 -27.24,-38.91 -10.85,-0.99 -53.45,-15.12 -65.47,-9.68l0.31 -0.73c-0.92,17.33 9.66,60.08 19.52,78.75 17.22,32.63 62.17,62.34 49.55,64.14l-0.33 -2.34 0.49 -0.21 -0.33 0.44c-12.83,-15.94 -63.6,-26.9 -82.9,-107.72 -8.09,-33.89 -13.4,-59.03 36.16,-53.03 17.22,2.08 34.21,7.58 45.1,9.04l-0.32 -0.01c25.95,0.66 40.08,37.28 47.63,57.81z"/>
  </g>
  <g>
   <path class="fil1" d="M1943.38 1298.09c14.91,-4.4 16.14,-19.74 20.01,-36.03l2.24 -0.75c41.15,37.94 -16.67,86.02 -59.82,55.57 -8.09,-5.71 -13.97,-13.7 -14.79,-23.83l2.01 -1.24c11.48,5.25 37.95,9.29 50.35,6.28z"/>
  </g>
  <g>
   <path class="fil1" d="M1904.9 1216.51c1.58,-12.98 1.53,-21.41 4.55,-34.64l2.3 -0.53c15.06,19.83 5.79,48.98 -2.16,69.77l-2.34 0.3c-6.61,-10.57 -3.86,-23.29 -2.35,-34.9z"/>
  </g>
  <g>
   <path class="fil1" d="M2191.71 1065.81c-52.72,51.61 -52.15,80.19 -71.32,139.4l-4.53 12.56 -16.53 -6.2c17.39,-53.21 13.86,-89.46 61.19,-143.57 44.58,-50.98 108.76,-85.03 173.53,-102.22l0.93 2.17c-46.85,29.43 -103.36,60.39 -143.27,97.86z"/>
  </g>
  <g>
   <path class="fil1" d="M1642.73 1015.03c41.19,16.88 58.99,46.94 73.68,89.23l4.12 12.91 -2 1.26c-61.19,-56.98 -34.35,-62.61 -113.54,-89.09 -44.39,-14.84 -43.63,-18.22 -77.33,-32.29l-10.06 -3.61 0 -2.36c29.92,-7.71 96.27,12.9 125.13,23.95z"/>
  </g>
  <g>
   <path class="fil1" d="M1686.43 1195.65c23.48,14.36 43.76,28.68 59.05,52.08l-1.48 1.84c-32.17,-11.95 -76.55,-43.32 -113.55,-62.49 -25.54,-13.24 -51.24,-24.99 -77.66,-36.33l0 0 -45.08 -19.29 0.69 -2.26 47.82 9.27c42.04,9.5 93.28,34.69 130.21,57.18z"/>
  </g>
  <path class="fil3 str1" d="M2179.74 2069.79c-70.72,-13.42 -201.55,-17.51 -303.18,14.92 -166.95,53.27 -204.75,94.95 -260.34,126.56 -27.6,15.69 -140.51,80.8 -157.91,88.16 -25.59,10.85 -6.17,45.04 -12.26,49.89 6.89,-0.28 20.78,12.39 35.92,19.87 9.15,4.52 45.73,11.54 56.26,13.05 31.13,4.47 56.78,5.76 103.36,15.22 61.49,12.49 130.25,21.03 197.69,-4.8 8.96,-3.43 17.89,-7.46 26.78,-12.18 140.76,-74.64 183.51,-92.43 262.35,-171.29 19.09,-19.1 40.31,-41.79 65.55,-69.73 20.96,-23.21 42.62,-45.54 34.03,-53.43 -6.29,-5.78 -23.63,-11.57 -48.25,-16.24z"/>
  <path class="fil3 str1" d="M1619.57 2057.13c-4.69,-11.83 -76.27,-56.04 -88.85,-69.11 -53.92,-56.04 -132,-94.72 -199.61,-221.67 -5.68,-10.68 -19.34,-41.15 -41.75,-73.9 -171.95,134.84 -51.94,513.74 113.05,543.04 35.06,6.23 72.14,-3.32 108.89,-34.35 27.2,-22.97 54.22,-57.71 80.09,-106.52 6.4,-12.08 33.05,-25.23 28.18,-37.49z"/>
  <polygon class="fil3 str1" points="2310.78,1633.99 2233.7,1579.14 2154.26,1587.84 2091.97,1617.7 2074.82,1650.19 2079.79,1689.04 2027.78,1688.84 1925.78,1676.78 1867.51,1678.9 1792.5,1691.88 1707.57,1725.41 1639.39,1780.63 1611.42,1820.43 1666.09,1884.7 1734.45,1930.16 1766.69,1940.09 1899.59,1867.54 2001,1825.16 2053.92,1807.22 2078.96,1769.02 2160.33,1708.8 2258.08,1655.7 "/>
  <path class="fil4 str1" d="M2303.02 1637.75c3.05,-22.09 -13.19,-15.52 -25.46,-27.4 -0.17,-0.16 -45.84,-25.9 -54.38,-26.05 -32.28,-0.58 -82.44,-5.04 -109.31,15.52 -11.18,8.56 -37.49,13.76 -35.49,43.62 0.78,11.56 3.44,22.81 3.44,43.2 0,9.8 -34.29,4.96 -42.01,4.96 -38.42,0 -70.5,-16.63 -114.03,-14.82 -87.95,3.67 -101.04,1.76 -185.29,32.49 -22.09,8.06 -98.38,66.4 -122.28,91.99 -9.73,10.41 -16.43,-3.81 5.4,34.31 10.54,18.4 62.86,68.7 80.9,76.04 42.17,17.16 27.62,55.64 147.28,-28.93 14.62,-10.33 197.4,-68.83 198.04,-69.79 0.07,-0.1 10.97,-15.99 16.61,-24.77 13.42,-20.87 48.5,-49.04 56.01,-53.39 49.04,-28.4 122.64,-76.97 135.63,-79.03 7.23,-1.14 44.86,-17.33 44.94,-17.95z"/>
  <path class="fil3 str1" d="M2302.95 1628.42l-18.5 -13.17c-2.33,-1.22 -4.68,-2.76 -6.89,-4.9 -0.17,-0.16 -45.84,-25.9 -54.38,-26.05 -18.31,5.05 -49.47,2.23 -62.32,2.98 -2.07,0.13 -4.11,0.29 -6.11,0.51l-0.49 0.05 -62.29 29.86 -13.59 25.74c0.78,11.56 3.44,22.81 3.44,43.2 0,1.28 -0.59,2.32 -1.63,3.14 2.63,6.06 -13.72,3.52 -18.3,3.09 -0.35,-0.03 -0.73,-0.07 -1.14,-0.11 -8.66,-0.19 -17.48,-1.16 -20.94,-1.16 -18.35,0 -35.26,-3.8 -52.66,-7.56l-61.37 -7.26c-25.94,1.08 -45.37,1.68 -62.03,2.77l-71.25 12.33 -72.57 28.65c-23.69,15.1 -58.17,41.38 -81.96,62.12l-24.62 35.04c2.06,3.67 4.95,8.63 8.84,15.41l33.06 38.86c7.05,6.92 14.49,13.79 21.55,19.86l34.59 23.01c6.74,3.57 11.9,7.58 16.71,11.11l6.35 4.22 16.94 5.22c16.72,0.01 43.25,-12.31 100.4,-52.7 6.32,-4.46 44,-17.91 84.83,-31.83 21.3,-9.19 42.82,-17.79 64.38,-25.69l0.04 -0.02c17.56,-6.43 35.12,-12.39 52.59,-17.82 2.43,-3.57 5.67,-8.36 8.6,-12.78l4.21 -6.42c0.21,-0.32 0.42,-0.65 0.64,-0.98l11.88 -18.12c9.35,-7.95 18.81,-15.59 28.36,-22.94 6.92,-5.7 12.6,-9.88 15.13,-11.35 12.5,-9.13 25.14,-17.76 37.88,-25.93 25.23,-16.17 50.88,-30.51 76.72,-43.17 10.12,-5.69 17.64,-9.39 21.03,-9.93l0.03 -0.01c14.98,-6.8 30,-13.06 45.02,-18.82 0.42,-3.5 0.33,-6.25 -0.18,-8.45z"/>
  <path class="fil4 str1" d="M1628.08 1352.72c-24.67,8.86 -43.94,55.92 -48.95,80.57 -4.49,22.12 -11.8,78.68 7.82,95.03 7.18,5.99 -30.44,66.9 13.22,97.43 9.31,6.51 9.62,11.69 27.16,15.27 23.28,4.74 68.7,-49.63 107.6,-65.1 11.96,-4.75 76,-36.5 83.98,-38.56 6.12,-1.59 69.84,-29.48 54.37,-39.92 -5.42,-3.66 -38.12,-23.54 -40.71,-28.04 -8.94,-15.55 -64.83,-43.68 -82.9,-45.74 -14.18,-1.62 -34.34,-3.51 -55.29,-8.04 -9.88,-2.13 -19.95,-9.52 -29.64,-9.14 -19.4,0.76 -38.48,-33.54 -40.66,-51.32 -0.54,-4.33 -2.5,-3.38 -8.5,-4.43"/>
  <path class="fil3 str1" d="M1623.99 1354.56c-22.7,12.23 -40.13,55.47 -44.86,78.73 -3.27,16.13 -8.04,50.57 -2.78,74.39 2.93,4.75 6.5,9.2 10.76,13.29 -0.24,2.34 -0.49,4.63 -0.74,6.85 0.19,0.17 0.39,0.34 0.58,0.5 2.54,2.12 -0.51,11.06 -3.59,23.1 -1.94,13.66 -3.73,24.45 -4.63,33.31 0.49,14.95 5.65,29.98 21.44,41.02 9.31,6.51 9.62,11.69 27.16,15.27 9.34,1.9 22.24,-5.7 36.85,-16.5l13.2 -11.68c1.73,-1.53 3.46,-3.05 5.2,-4.54 26.25,-22.65 53.16,-41.55 80.52,-56.94 35.53,-19.99 71.82,-34.08 108.43,-42.84 4.41,-4.37 5.82,-8.33 1.75,-11.08 -1.04,-0.7 -2.92,-2.1 -5.29,-3.91 -36.14,-11.6 -83.99,-60.86 -91.6,-60.72 -0.42,-0.6 -0.85,-1.17 -1.3,-1.72 -10.63,-4.02 -19.97,-6.81 -25.42,-7.43 -4.53,-0.52 -9.66,-1.67 -15.23,-3.16 -24.43,1.77 -54.47,6.24 -83.92,-17.66 -1.85,-1.5 -3.54,-3.52 -5.08,-5.98 -11.26,-11.33 -19.93,-30.06 -21.36,-41.7 -0.03,-0.21 -0.06,-0.42 -0.09,-0.6z"/>
  <g>
   <path class="fil1" d="M1504.01 987.07c-35.32,21.82 -110.54,38.67 -152.04,36.64l0.08 -2.37c41.82,-1.26 112.71,-22.21 147.96,-44.69 38.05,-24.27 97.46,-40.9 130.36,-68.12 32.44,-26.85 61.65,-58.14 88.47,-90.51 31.68,-38.24 125.9,-30.95 134.22,-92.53 3.39,-25.08 -12.94,-100.84 13.32,-94.14 19.02,4.86 33.13,58.16 38.45,75.3 7.3,23.52 24.53,28.49 49.99,39.8 47.02,20.9 67.52,21.84 115.55,58.03 20.22,15.24 66.01,59.66 73.53,84.28 1.68,5.49 4.53,11.86 4.6,17.67 -0.47,-6.75 -4.42,-13.97 -6.7,-20.26l0 0c-7.99,-20.48 -57.39,-64.03 -75.25,-76.41 -57.41,-39.8 -95.09,-40.08 -148.65,-68.6 -32.91,-17.53 -24.83,-61.8 -51.66,-94.18l-3.29 -3.11 2.99 -0.76c-10.43,22.57 21.83,88.42 -22.37,127 -32.37,28.26 -90.2,28.28 -117.47,60.99 -28.36,34.01 -77.71,88.08 -117.12,107.05 -29.46,14.19 -79.76,33.36 -104.97,48.92z"/>
  </g>
  <g>
   <path class="fil5" d="M1776.02 3029.05c-80.29,15.43 -91.13,16.19 -169.92,23.18l-11.67 1.28 -1.1 -2.09c51.28,-51.77 172.44,-66.4 242.15,-80.01 46.54,-9.09 95.18,-17.09 137.24,-39.98l37.91 -20.45 9.92 17.06 -9.9 -17.06c14.89,-6.39 28.23,-15.79 42.51,-23.37l6.63 9.96 -6.61 -9.96c19.56,-9.75 18.38,-21.98 58.11,-45.8l35.59 -20.89 9.66 -5.78 0.01 0.01c30.65,-17.79 8.25,-1.92 42.2,-29.75 42.4,-34.75 71.91,-70.17 104.66,-113.69l20.05 -24.89c-15.58,37.29 -63.26,93.77 -90.85,126.03 -14.56,17.04 -38.42,43.04 -57.17,56.08l-7.8 5.13 -5.55 -9.45 5.55 9.47c-12.44,7.22 -36.45,27.76 -53.68,37.63 -23.23,13.31 -28.15,19.91 -47.55,35.82l0.01 0c-13.14,11.62 -21.43,27.25 -35.96,37.55l0 0.01c-27.31,18.93 -66.02,37.68 -97.2,47.39 -51.34,15.98 -104.53,26.26 -157.24,36.57z"/>
  </g>
  <g>
   <path class="fil5" d="M1734.7 3160.69c-63.16,-2.26 -149.63,-9.84 -187.61,-68.46 5.76,-5.12 46.26,-42.53 49.4,-42.78l151.08 8.09c85.07,1.46 223.87,-7.05 305.86,-32.15 149.96,-45.91 291.09,-131.56 416.13,-224.82 88.73,-66.17 149.73,-108.33 242.08,-168.43 72.3,-47.06 148.79,-98.03 213.81,-154.54l1.75 1.59c-90.26,121.38 -228.98,228.39 -343.92,330.08 -133.39,118 -227.92,198.02 -396.94,273.77 -123.56,55.37 -203.84,67.77 -338.05,75.52 -39.17,2.26 -74.37,2.93 -113.59,2.13z"/>
  </g>
  <g>
   <path class="fil5" d="M2856.04 2497.82c-13.86,21.37 -51.33,76.56 -58.25,98.05l-8.41 -1.72c5.74,-33.41 70.58,-128.22 91.11,-161.64 32.68,-53.22 51.75,-81.43 86.68,-132.52 26.96,-39.45 53.09,-79.46 81.01,-118.25l14.14 10.57 -14.12 -10.57c104.83,-145.98 247.41,-481.27 264.16,-658.97 11.11,-117.92 18.53,-193.59 17.92,-316.28 -0.78,-155.39 -19.29,-361.47 -70.58,-514.89 -15.91,-47.6 -19.66,-57.51 -32.03,-109.15 -3.32,-13.86 -23.6,-98.59 -32.12,-103.48l2.19 -0.88c-3.84,13.1 69.95,115.81 81.72,136.32 49.75,86.76 78.94,284.53 87.54,380.29 15.76,175.43 7.77,348.33 -12.61,522.79 -9.82,84.08 -27.91,146.29 -55.63,226.34 -45.43,131.14 -136.26,343.14 -218.53,454.07l-3.79 4.97 0.01 0.01c-40.37,52.04 -80.41,104.18 -119.23,157.39 -33.55,45.98 -69.99,89.86 -101.18,137.55z"/>
  </g>
  <g>
   <path class="fil5" d="M2693.62 2945.17c-37.64,-9.22 -52.8,-20.56 -68.88,-56.09 -2.76,-6.1 4.14,-10.02 10.64,-14.67 70.23,-50.22 94.61,47.54 289.16,-27.83 102.55,-39.72 249.78,-121.03 336.23,-188.79 42.77,-33.53 84.52,-73.18 127.37,-108.58 16.69,-13.78 35.23,-27.06 48.76,-44.13 -7.08,63.37 -95.06,158.47 -146.28,199.02 -70.8,56.05 -236.66,165.53 -317.4,202.32 -72.79,33.16 -158.62,59.18 -239.2,46.79l-40.4 -8.04z"/>
  </g>
  <g>
   <path class="fil5" d="M3472.22 2344.6l0 0c6.08,44.81 -10.12,87.33 -7.66,93.87l0.58 1.04 -2.35 -0.27c6.5,-5.89 0.12,-48.2 -2.91,-60.5l-7.02 -31.72 5.19 -0.65 14.02 -1.98 0.01 0.02 0.11 -0.02 0.03 0.21z"/>
  </g>
  <g>
   <path class="fil5" d="M979.1 2904.76c22.59,2.94 55.36,10.07 77.47,5.63l-5.65 5.39 44.89 29.86c-19.38,24.04 -51.97,21.78 -80.07,19.77 -84.8,-6.07 -124.87,-23.44 -203.19,-51.54 -156.66,-56.21 -317.67,-185.3 -379.09,-343.69 -70.46,-181.69 -67.02,-305.72 -70.51,-495.7l38.21 -0.73 -38.21 0.65c-0.62,-30.99 11.16,-61.36 18.67,-91.03 4.5,-17.8 13.85,-33.88 19.03,-51.45 45.52,-154.52 137.42,-373.98 229.6,-507.07 92.91,-134.14 184.44,-224.48 312.74,-325.67 117.89,-92.98 265.06,-212.51 399.92,-275.28l4.89 9.01 -4.88 -9.01c24.75,-11.17 72.03,-32.68 96.36,-40.16l0.82 2.22c-22.49,12.18 -63.49,40.69 -87.42,55.96l0.01 0c-106.95,71.27 -286.48,233.88 -395.73,324.72 -114.94,95.58 -215.4,204.81 -298.6,329.02 -73.54,109.78 -177.71,325.89 -210.99,451.63 -3.33,12.6 -5.67,41.12 -8.32,57.39 -3.71,22.77 -0.23,45.51 0.31,68.34l0 0c2.86,175.92 -7.79,311.81 55.88,481.17 55.67,148.06 206.37,257.86 350.78,309.39 43.86,15.65 86.7,34.4 133.08,41.18zm368.7 -2071.85l0 0zm-946.64 1240.84l0 0z"/>
  </g>
  <g>
   <path class="fil6" d="M2854.17 1846.1c-2.1,2.39 -4.48,5.44 -2.15,8.42l-35.54 1.92c2.33,-23.29 12.33,-32.95 30.46,-42.25 6.85,-3.51 15.72,-8.03 18.76,-15.15 1.04,-2.43 2.03,-4.96 4.26,-6.52l9.69 17.15 -9.67 -17.15 32.18 -16.12c11.34,-5.98 22.16,-13.35 32.05,-21.55l0 0c57.47,-50 144.35,-154.68 181.94,-217.6 22.81,-38.18 54.22,-97.97 66.88,-140.67 21.1,-71.14 56.39,-211.89 49.29,-283.19 18.99,74.12 -5.55,242.48 -29.65,316.76 -11.44,35.27 -51.19,112.96 -70.86,144.28 -36.99,58.93 -107.64,142.32 -161.15,188.92l-16.58 14.36 -9.94 -11.43 9.92 11.43c-24.81,22.62 -24.91,21.28 -52.36,40.7l-12.37 8.4 0.01 0.01c-4.66,2.08 -13.74,-4.67 -27.24,8.88l-7.93 10.4z"/>
  </g>
  <g>
   <path class="fil5" d="M1988.77 420l10.36 9.73 -10.34 -9.73c22.52,-21.36 133.42,-21.89 166.02,-20.89 35.82,1.1 153.99,9.78 132.61,71.14 -2.54,7.31 -6.53,12.99 -11.78,18.56 21.17,-38.04 -4.47,-53.6 -39.35,-59.82 -44.34,-7.9 -170.53,-3.47 -216.48,7.32l-10.84 3.62 0.5 -0.47 -20.8 -19.31 0.1 -0.15z"/>
  </g>
  <g>
   <path class="fil5" d="M3055.91 173.16l-7.99 7.1 7.99 -7.09c59.96,66.75 54.21,46.64 87.84,127.58l31.27 81.13 -6.29 2.29 6.29 -2.28c6.98,20.11 7.52,40.41 12.04,61.67 -4.44,-19.5 -17.03,-37.05 -24.61,-57.09l-0.01 0c-25.06,-68.19 -64.86,-133.94 -112.96,-188.36l-9.56 -10.76 0 0.01c-3.04,-3.44 13.17,-17.34 15.99,-14.2zm132.35 270.35l0 0z"/>
  </g>
  <g>
   <path class="fil5" d="M605.71 957.24c2.31,29.67 9.29,106.52 17.32,133.92l-86.8 18c-9.47,-57.84 -7.73,-211.41 -4.17,-265.07 5.18,-78.22 25.33,-243.65 62.79,-315.45 83.62,-160.24 228.38,-328.02 416.76,-355.04l45.14 -4.99c-85.93,37.35 -128.21,56.61 -202.84,126.96 -74.19,69.95 -151.98,175.6 -197.79,266.4 -33.06,65.53 -50.44,226.36 -52.52,297.99 -0.97,33.2 -0.21,64.17 2.11,97.28z"/>
  </g>
  <g>
   <path class="fil5" d="M1466.24 128.65c-137.62,177.47 -353.29,537.78 -406.3,752.62 -9.86,39.97 -13.59,68.09 -11.79,108.84l-22.66 4.69c-11.22,-43.52 -13.39,-75.15 -9.92,-120.54 19.46,-254.82 233.5,-629.02 395.48,-826.03 77.15,-93.84 223.56,-232.87 320.58,-304.28 130.89,-96.34 290.31,-210.65 425.59,-299.41l-0.01 -0.01c118.81,-72.74 268.86,-110.55 407.25,-85.08l-0.24 2.35c-131.19,1.63 -267.63,54.69 -371.74,133.43l-17.63 -25.35 17.6 25.35c-29.46,25.72 -83.13,67.61 -114.72,92.88 -102.92,82.34 -204.24,159.72 -307.78,240.29 -91.99,71.58 -228.29,207 -303.71,300.25z"/>
  </g>
  <g>
   <path class="fil5" d="M2043.42 2922.24l-20.3 -0.2m-3.9 0l-0.61 0 0 -0.22 12.99 0.22m41.49 -55.36c-6.26,9.55 -27.96,46.02 -28.5,55.58l-25.98 -0.44c2.08,-31.3 59.04,-83.51 83.18,-103.47 12.36,-10.22 27.98,-17.55 43.38,-31.55 -12.74,12 -24.44,26.77 -41.68,43.2 -10.74,10.23 -22.13,24.31 -30.4,36.68z"/>
  </g>
  <path class="fil4 str2" d="M2634.48 2721.52c-0.66,-4.59 -7.67,-14.84 13.75,-42.78 10.2,-13.31 22.37,-29.3 25.89,-39.74 3.9,-11.55 -5.21,-11.59 16,-8 5.85,0.98 4.26,1.81 11.76,1.81 16.81,0 25.02,-3.02 40.16,-7.18 10.67,-2.94 19.46,-7.62 33.6,-11.48"/>
  <path class="fil7 str3" d="M2648.23 2678.74c-21.42,27.94 -14.41,38.19 -13.75,42.78 10.93,-8.4 22.49,-17.2 34.78,-26.46 22.73,-17.12 62.42,-46.09 106.38,-80.91 -14.14,3.86 -22.93,8.54 -33.6,11.48 -15.14,4.16 -23.35,7.18 -40.16,7.18 -7.5,0 -5.91,-0.83 -11.76,-1.81 -4.76,-0.81 -8.02,-1.28 -10.19,-1.78 -7.59,-1.75 -2.79,0.82 -5.81,9.78 -3.52,10.44 -15.69,26.43 -25.89,39.74z"/>
  <g>
   <path class="fil5" d="M2830.69 2867.01c15.46,6.91 23.44,14.83 29.88,30.43l-0.93 2.17c-32.42,11.92 -28.91,-16.08 -67.89,-5.13 -43.17,12.13 -24.81,10.19 -73.42,16l-32.34 5.25 -0.02 -0.04 -1.91 0.73 -1.38 -1.92 1.73 -1.95c24.66,-20.76 53.74,-27.35 86.28,-40.58 20.05,-8.15 39.42,-13.65 60,-4.96z"/>
  </g>
  <ellipse class="fil7 str3" transform="matrix(0.161205 2.50054 -2.41862 0.166665 3462.52 2345.69)" rx="5.22" ry="5.99"/>
  <path class="fil4 str2" d="M2959.91 2333.75c0.71,-54.59 38.53,-101.98 43.32,-140.85 0.53,-4.26 10.71,-45.88 11.77,-37.34 0.95,7.73 21.15,11.57 30.69,3.88 19.97,-16.1 6.14,-51.2 -17.35,-32.01 -25.67,20.97 -58.03,-2.23 -23.53,-11.59 12.1,-3.29 41.6,-15.02 51.15,-26.73 9.62,-11.8 32.25,-35.64 42.79,-53.66 2.07,-3.54 39.92,-58.85 68.53,-132.61 21.02,-54.21 55.88,-157.57 78.39,-254.56 6.16,-26.55 40.61,-138.06 38.8,-209.35 -0.05,-2.09 5.44,-2.97 10.4,-4.59 11.52,-3.77 21.5,-9.52 21.54,-28.63 0.02,-12.25 -11.08,-28.83 -22.09,-30.07 -3.51,-0.4 -10.82,1.16 -10.42,-2.17 4.05,-33.62 4.09,-68.81 8.56,-103.51 1.37,-10.7 5.33,23.59 7.65,31.51 0.87,2.96 10.14,9.58 10.34,8.19 5.19,-37.46 3.26,-75.23 5.09,-112.41 2.63,-53.28 -5.61,-108.25 -5.85,-149.66 -0.08,-12.39 -1.47,-19.33 1.61,-34.77 10.21,-51.3 19.4,-86.55 26.82,-100.82"/>
  <path class="fil8 str2" d="M3167.28 1902.84c-2.99,7.69 -6.07,15.18 -9.21,22.44 14.11,6.28 27.59,12.84 40.28,19.55 67.75,-150.59 126.25,-321.34 134.55,-420.33 2.93,-34.91 46.73,-308.67 5.22,-612.5 -7.42,14.27 -16.61,49.52 -26.82,100.82 -3.08,15.44 -1.69,22.38 -1.61,34.77 0.24,41.41 8.48,96.38 5.85,149.66 -1.83,37.18 0.1,74.95 -5.09,112.41 -0.2,1.39 -9.47,-5.23 -10.34,-8.19 -2.32,-7.92 -6.28,-42.21 -7.65,-31.51 -4.47,34.7 -4.51,69.89 -8.56,103.51 -0.4,3.33 6.91,1.77 10.42,2.17 11.01,1.24 22.11,17.82 22.09,30.07 -0.04,19.11 -10.02,24.86 -21.54,28.63 -4.96,1.62 -10.45,2.5 -10.4,4.59 1.81,71.29 -32.64,182.8 -38.8,209.35 -22.51,96.99 -57.37,200.35 -78.39,254.56z"/>
  <path class="fil8 str2" d="M3198.35 1944.83c-12.69,-6.71 -26.17,-13.27 -40.28,-19.55 -20.11,46.56 -42.26,83.29 -52.94,100.2 17.29,-4.08 34.08,-6.85 48.06,-8.16 3.9,-0.37 7.72,-0.66 11.47,-0.88 11.36,-23.07 22.65,-47.07 33.69,-71.61z"/>
  <path class="fil7 str3" d="M3153.19 2017.32c-13.98,1.31 -30.77,4.08 -48.06,8.16 -3.61,5.72 -5.91,9.17 -6.38,9.97 -10.54,18.02 -33.17,41.86 -42.79,53.66 -9.55,11.71 -39.05,23.44 -51.15,26.73 -34.5,9.36 -2.14,32.56 23.53,11.59 23.49,-19.19 37.32,15.91 17.35,32.01 -9.54,7.69 -29.74,3.85 -30.69,-3.88 -1.06,-8.54 -11.24,33.08 -11.77,37.34 -4.79,38.87 -42.61,86.26 -43.32,140.85 45.25,-63.88 86.25,-119.86 102.41,-141.44 31.25,-41.75 67.13,-104.33 102.34,-175.87 -3.75,0.22 -7.57,0.51 -11.47,0.88z"/>
  <path class="fil7 str3" d="M3105.13 2025.48c17.29,-4.08 34.08,-6.85 48.06,-8.16 3.9,-0.37 7.72,-0.66 11.47,-0.88 11.36,-23.07 22.65,-47.07 33.69,-71.61 -12.69,-6.71 -26.17,-13.27 -40.28,-19.55 -20.11,46.56 -42.26,83.29 -52.94,100.2z"/>
  <path class="fil7 str3" d="M3245.67 1648.28c-22.51,96.99 -57.37,200.35 -78.39,254.56 -2.99,7.69 -6.07,15.18 -9.21,22.44 14.11,6.28 27.59,12.84 40.28,19.55 67.75,-150.59 126.25,-321.34 134.55,-420.33 2.93,-34.91 46.73,-308.67 5.22,-612.5 -7.42,14.27 -16.61,49.52 -26.82,100.82 -3.08,15.44 -1.69,22.38 -1.61,34.77 0.24,41.41 8.48,96.38 5.85,149.66 -1.83,37.18 0.1,74.95 -5.09,112.41 -0.2,1.39 -9.47,-5.23 -10.34,-8.19 -2.32,-7.92 -6.28,-42.21 -7.65,-31.51 -4.47,34.7 -4.51,69.89 -8.56,103.51 -0.4,3.33 6.91,1.77 10.42,2.17 11.01,1.24 22.11,17.82 22.09,30.07 -0.04,19.11 -10.02,24.86 -21.54,28.63 -4.96,1.62 -10.45,2.5 -10.4,4.59 1.81,71.29 -32.64,182.8 -38.8,209.35z"/>
  <g>
   <path class="fil5" d="M3281.68 804.56l-1.76 -3.01 2.33 -0.41c-3.42,4.58 22.41,82 26.1,100.1 9.16,44.85 14.16,79.01 25.64,125.49l-25 3.4c-1.83,-62.43 -16.94,-108.67 -21.4,-171.79 -1.31,-18.5 -2.49,-35.42 -5.91,-53.78z"/>
  </g>
  <ellipse class="fil7 str3" transform="matrix(1.16783 0.943292 -0.943292 1.16783 3048.18 180.745)" rx="3.85" ry="4.98"/>
  <ellipse class="fil7 str3" transform="matrix(1.40337 1.78282 -1.78282 1.40337 2958.33 78.5945)" rx="5.14" ry="5.89"/>
  <ellipse class="fil7 str3" transform="matrix(1.72297 0.114871 -0.114871 1.72297 2922.63 48.9297)" rx="11.63" ry="8.77"/>
  <ellipse class="fil7 str3" transform="matrix(1.72621 -0.0451023 0.0451023 1.72621 2975.18 826.321)" rx="23.08" ry="19.01"/>
  <ellipse class="fil9 str2" transform="matrix(1.43224 -0.964633 0.964633 1.43224 2860.58 1577.21)" rx="8.91" ry="6.29"/>
  <ellipse class="fil7 str3" transform="matrix(1.48565 -0.88016 0.88016 1.48565 2949.44 2129.68)" rx="9.75" ry="8.34"/>
  <ellipse class="fil7 str3" transform="matrix(1.65317 -0.498875 0.498875 1.65317 2748.15 2831.48)" rx="17.74" ry="13.32"/>
  <path class="fil4 str2" d="M2770.56 1858.15c2.34,-3.64 38.24,-24.07 53.25,-38.84 6.56,-6.44 34.28,-43.96 37.87,-47.55 8.31,-8.3 35.71,-59.96 16.55,-23.67 -27.56,52.21 12.28,30.89 28.51,21.76 14.34,-8.08 44.37,-21.15 60.92,-24.67"/>
  <path class="fil4 str2" d="M2903.97 1799.76c-0.54,0.75 -7.93,25.22 5.7,25.17 23.79,-0.1 48.37,-19.77 65.12,-28.4 3.22,-1.67 34.23,-24.99 46.91,-37.61 12.11,-12.04 19.24,-20.73 7.76,-7.29 -12.88,15.09 -19.05,28.98 -35.8,45.34 -8.06,7.89 -18.8,18.22 -36.43,33 -5.89,4.93 -24,18.36 -44.5,33.33"/>
  <path class="fil10 str2" d="M2830.13 1858.96c19.56,-16.69 45.56,-36.41 73.84,-59.2 18.74,-15.1 38.48,-31.54 58.02,-49.35 1.9,-1.72 3.79,-3.47 5.67,-5.23 -16.55,3.52 -46.58,16.59 -60.92,24.67 -16.23,9.13 -56.07,30.45 -28.51,-21.76 19.16,-36.29 -8.24,15.37 -16.55,23.67 -3.59,3.59 -31.31,41.11 -37.87,47.55 -15.01,14.77 -50.91,35.2 -53.25,38.84 12.44,0.15 24.2,0.28 34.57,0.39 8.17,0.08 16.52,0.21 25,0.42z"/>
  <path class="fil10 str2" d="M2903.97 1799.76c-28.28,22.79 -54.28,42.51 -73.84,59.2 26.43,0.62 54.24,1.89 82.6,4.34 20.5,-14.97 38.61,-28.4 44.5,-33.33 17.63,-14.78 28.37,-25.11 36.43,-33 16.75,-16.36 22.92,-30.25 35.8,-45.34 11.48,-13.44 4.35,-4.75 -7.76,7.29 -12.68,12.62 -43.69,35.94 -46.91,37.61 -16.75,8.63 -41.33,28.3 -65.12,28.4 -13.63,0.05 -6.24,-24.42 -5.7,-25.17z"/>
  <ellipse class="fil7 str3" transform="matrix(-1.30349 1.13259 -1.13259 -1.30349 2191.77 286.251)" rx="17.17" ry="17.11"/>
  <ellipse class="fil7 str3" transform="matrix(-1.33076 1.10041 -1.10041 -1.33076 2220.01 259.105)" rx="14.33" ry="10.65"/>
  <ellipse class="fil7 str3" transform="matrix(1.72609 0.0493561 -0.0493561 1.72609 2252.66 308.262)" rx="7.44" ry="5.9"/>
  <ellipse class="fil7 str3" transform="matrix(1.48704 -0.877811 0.877811 1.48704 1517.39 749.939)" rx="6.01" ry="5.29"/>
  <ellipse class="fil7 str3" transform="matrix(1.53339 -0.794074 0.794074 1.53339 1557.32 725.78)" rx="12.51" ry="8.96"/>
  <ellipse class="fil7 str3" transform="matrix(1.72673 0.0152886 -0.0152886 1.72673 251.841 1629.73)" rx="31.42" ry="25.58"/>
  <ellipse class="fil7 str3" transform="matrix(1.45831 -0.924758 0.924758 1.45831 238.397 1673.42)" rx="13.5" ry="13.9"/>
  <ellipse class="fil7 str3" transform="matrix(1.57924 -0.698464 0.698464 1.57924 246.559 1704.63)" rx="15.81" ry="13.32"/>
  <path class="fil4 str2" d="M403.57 2032.25c-10.33,15.71 -50.19,166.83 -64.07,211.21 -5.61,17.95 -19.81,38.15 -29.46,51.64 -13.69,19.15 -25.09,24.28 24.14,-8.81 37.66,-25.32 55.49,7.78 50.81,31.25 -0.95,4.8 -3.7,16.44 -10.36,22.18 -4.69,4.04 -13.07,0.55 -19.44,0.54 -15.29,-0.05 -0.44,33.34 12.65,49.2 7.42,8.99 58.54,57.29 58.4,64.47 -0.03,1.85 2.37,0.6 4.03,0.17"/>
  <path class="fil7 str3" d="M403.57 2032.25c-10.33,15.71 -50.19,166.83 -64.07,211.21 -5.61,17.95 -19.81,38.15 -29.46,51.64 -13.69,19.15 -25.09,24.28 24.14,-8.81 37.66,-25.32 55.49,7.78 50.81,31.25 -0.95,4.8 -3.7,16.44 -10.36,22.18 -4.69,4.04 -13.07,0.55 -19.44,0.54 -15.29,-0.05 -0.44,33.34 12.65,49.2 7.42,8.99 58.54,57.29 58.4,64.47 -0.03,1.85 2.37,0.6 4.03,0.17 -30.18,-120.73 -26.04,-218.68 -29.17,-383.19 -0.22,-11.63 0.65,-24.6 2.47,-38.66z"/>
  <path class="fil4 str2" d="M566.64 1593.76c-0.2,0.02 -21.25,7.78 -37.8,22.63 -19.19,17.22 -32.48,41.85 -36.43,45.54 -2.2,2.05 -13.77,19.48 -27.39,28.26 -22.24,14.33 -50.45,32.62 -52.11,36.73 -1.19,2.96 -5.4,14.32 2.8,16.86 3.92,1.21 14.4,-5.5 18.89,-1.34 6.35,5.89 -3.68,29.47 -16.94,62.2 -6.36,15.68 -26.62,89.23 -28.59,103.94 -4.9,36.6 11.68,61.07 21.78,82.56"/>
  <path class="fil7 str3" d="M407.62 1932.04c0.79,-90.07 57,-155.79 64.74,-245.7 0.06,-0.64 0.11,-1.29 0.17,-1.94 -2.4,2.13 -4.91,4.11 -7.51,5.79 -22.24,14.33 -50.45,32.62 -52.11,36.73 -1.19,2.96 -5.4,14.32 2.8,16.86 3.92,1.21 14.4,-5.5 18.89,-1.34 6.35,5.89 -3.68,29.47 -16.94,62.2 -6.36,15.68 -26.62,89.23 -28.59,103.94 -4.9,36.6 11.68,61.07 21.78,82.56 -2.29,-19.29 -3.4,-38.99 -3.23,-59.1z"/>
  <path class="fil7 str3" d="M472.36 1686.34c-7.74,89.91 -63.95,155.63 -64.74,245.7 -0.17,20.11 0.94,39.81 3.23,59.1 25.06,-115.18 93.95,-277.16 155.79,-397.38 -0.2,0.02 -21.25,7.78 -37.8,22.63 -19.19,17.22 -32.48,41.85 -36.43,45.54 -1.78,1.66 -9.71,13.4 -19.88,22.47 -0.06,0.65 -0.11,1.3 -0.17,1.94z"/>
  <path class="fil7 str3" d="M1265.2 877.46c2.21,-4.85 93.46,-63.08 107.12,-73.41 13.58,-10.29 39.35,-24.67 52.95,-35.39 14.28,-11.24 27.04,-21.06 39.18,-16.84 7.16,2.49 8.37,13.5 3.18,21.84 -2.06,3.29 -8.28,15.04 -12.2,27.64 -3.08,9.91 -2.09,10.28 -3.46,14.7 -0.39,1.27 0.1,5.47 2.13,10.53 0.79,1.97 2.99,2.68 3.14,3.8 0.4,2.8 -2.45,-0.41 -8.06,-0.98 -8.32,-0.83 -21.22,2.4 -30.95,5.84 -14.08,4.99 -28.74,6.83 -50.66,13.82 -9.22,2.95 -25.75,7.43 -49.64,19.49 -33.5,16.89 -51.76,27.93 -57.11,15.77 -1.19,-2.68 -1.14,5.31 4.38,-6.81z"/>
  <path class="fil4 str3" d="M590.79 637.47c-2.8,23.39 -59.72,105.14 -70.88,120.33 -5.71,7.77 -14.42,16.78 -20.82,26.94 -3.25,5.17 -1.42,6.96 -2.16,14.05 -1.95,18.72 -1.99,38.29 -1.99,59.04 0,16.24 2.11,65.11 2.37,82.11 0.21,13.87 -0.63,25.7 1.81,-24.28 0.92,-19.06 6.43,-29.95 8.26,-39.59 3.47,-18.27 7.5,-28.22 22.84,-61.23 5.31,-11.41 28.05,-52.14 41.22,-52.88"/>
  <path class="fil7 str3" d="M589.95 641.5c-7.65,27.54 -59.45,101.89 -70.04,116.3 -5.71,7.77 -14.42,16.78 -20.82,26.94 -3.25,5.17 -1.42,6.96 -2.16,14.05 -1.95,18.72 -1.99,38.29 -1.99,59.04 0,16.24 2.11,65.11 2.37,82.11 0.21,13.87 -0.63,25.7 1.81,-24.28 0.92,-19.06 6.43,-29.95 8.26,-39.59 3.47,-18.27 7.5,-28.22 22.84,-61.23 5.31,-11.41 28.05,-52.14 41.22,-52.88 4.65,-43.9 11.17,-84.93 18.51,-120.46z"/>
  <path class="fil4 str2" d="M2174.85 -530.12c2.4,8.31 -32.88,63.82 -32.06,73.4 -34.75,0 -90.86,22.39 -96.92,22.34"/>
  <path class="fil10 str2" d="M2142.79 -456.72c-0.82,-9.58 34.46,-65.09 32.06,-73.4 -3.01,2.09 -58.39,43.21 -128.98,95.74 6.06,0.05 62.17,-22.34 96.92,-22.34z"/>
  <path class="fil4 str2" d="M2070.45 -452.66c3.82,1.24 -193.55,110.75 -232.03,134.13 -111.47,67.73 -141.92,96.22 -223.71,159.75 -8.8,6.83 -38.16,19.48 -44.88,35.67 -5.98,14.42 -3.83,56.49 -9.64,79.48"/>
  <path class="fil7 str2" d="M2065.41 -448.91c-30.85,19.55 -192.56,109.46 -226.99,130.38 -111.47,67.73 -141.92,96.22 -223.71,159.75 -8.8,6.83 -38.16,19.48 -44.88,35.67 -5.98,14.42 -3.83,56.49 -9.64,79.48 51.87,-51.97 111.42,-107.21 173.99,-157.63 13.4,-10.81 186.48,-139.92 311.69,-233.12 6.66,-4.95 13.19,-9.81 19.54,-14.53z"/>
  <path class="fil4 str3" d="M1229.97 405.47c-7.51,0.76 -104.02,25.36 -101.09,30.84 25.37,47.41 -5.92,91.72 -12.58,141.94 -0.85,6.39 -6.28,51.01 1.78,51.07"/>
  <path class="fil7 str3" d="M1229.97 405.47c-7.51,0.76 -104.02,25.36 -101.09,30.84 11.38,21.26 0.16,76.53 -8.21,119.75 -3.96,20.49 -3.77,38.41 -6.75,48.45 7.95,10.84 29.45,-56.69 37.82,-48.78 24.27,-50.59 50.77,-101.24 78.23,-150.26z"/>
 </g>
</svg>
