<?xml version="1.0" encoding="UTF-8"?>
<!DOCTYPE svg PUBLIC "-//W3C//DTD SVG 1.1//EN" "http://www.w3.org/Graphics/SVG/1.1/DTD/svg11.dtd">
<!-- Creator: CorelDRAW (Versão de avaliação) -->
<svg xmlns="http://www.w3.org/2000/svg" xml:space="preserve" width="3500px" height="3500px" version="1.1" style="shape-rendering:geometricPrecision; text-rendering:geometricPrecision; image-rendering:optimizeQuality; fill-rule:evenodd; clip-rule:evenodd"
viewBox="0 0 3500 3500"
 xmlns:xlink="http://www.w3.org/1999/xlink"
 xmlns:xodm="http://www.corel.com/coreldraw/odm/2003">
 <defs>
  <style type="text/css">
   <![CDATA[
    .str0 {stroke:#FEFEFE;stroke-width:2.36;stroke-miterlimit:22.9256}
    .fil3 {fill:none}
    .fil0 {fill:#FEFEFE}
    .fil1 {fill:url(#id0)}
    .fil2 {fill:url(#id1)}
    .fil4 {fill:url(#id2)}
   ]]>
  </style>
  <linearGradient id="id0" gradientUnits="objectBoundingBox" x1="0%" y1="50%" x2="100%" y2="50%">
   <stop offset="0" style="stop-opacity:1; stop-color:#00AB99"/>
   <stop offset="0.207843" style="stop-opacity:1; stop-color:#16B3A2"/>
   <stop offset="0.301961" style="stop-opacity:1; stop-color:#2CBCAC"/>
   <stop offset="1" style="stop-opacity:1; stop-color:#A036F0"/>
  </linearGradient>
  <linearGradient id="id1" gradientUnits="userSpaceOnUse" xlink:href="#id0" x1="1037.35" y1="435.26" x2="1037.36" y2="435.26">
  </linearGradient>
  <linearGradient id="id2" gradientUnits="objectBoundingBox" xlink:href="#id0" x1="1.17413e-11%" y1="50%" x2="100%" y2="50%">
  </linearGradient>
 </defs>
 <g id="Camada_x0020_1">
  <metadata id="CorelCorpID_0Corel-Layer"/>
  <polygon class="fil0 str0" points="1241.25,3499.47 1282.58,3410.19 1335,3271.55 1359.4,3198.99 1370.85,3189.55 1526.01,3039.17 1632.29,2972.33 1714.23,2960.92 1816.8,2977.95 1896.9,3000.49 2034.75,3010.91 2147.72,2968.83 2293.31,2995.62 2443.13,3008.72 2505.08,3002.22 2605.38,3070.96 2695.87,3189.18 2678.36,3055.74 2615.55,2921.34 2591.12,2861.21 2603.35,2833.77 2675.68,2770.85 2785.65,2561.12 2845.29,2219.26 2959.58,2062.95 3097.73,2001.1 3269.29,2003.9 3167.05,1925.34 3016.63,1866.71 2857.46,1841.99 2612.69,1827.14 2639.04,1716.23 2662.57,1660.17 2710.24,1629.45 2829.04,1611.93 2806.45,1588.92 2748.15,1573.22 2722.9,1561.7 2783.37,1498.59 2815.67,1427.35 2805.6,1318.67 2819.89,1241.12 2862.75,1159.48 2923.42,1099.48 3030.34,1034.61 3073.65,1005.46 2958.61,992.3 2831.81,1001.63 2695.51,1034.63 2682.45,942.31 2648.85,870.98 2564.78,797.22 2532.13,727.83 2561.72,614.56 2606.86,542.3 2499.47,579.87 2387.88,683.17 2331.6,708.65 2252.53,771.71 2204.17,862.44 2202.43,888.13 2158.08,886.16 2172.4,756.77 2129.76,615.16 2012.86,469.54 1935.87,391.96 1885.98,237.08 1805.88,88.07 1803.9,167.42 1781.48,255.05 1709.68,312.92 1580.13,405.91 1501,525.69 1411.26,572.55 1262.78,602.34 1211.15,598.79 1141.86,554.23 1047.96,448.11 1120.7,644.82 1127.73,756.96 1136.7,814.14 1128.67,821.36 995.42,732.92 1027.07,790.66 1043.18,818.02 1057.56,884.39 1007.86,1000.89 957.38,898.66 893.39,828.09 769.57,762.04 692.54,733.27 732.04,846.73 728.77,913.14 704.6,991.63 635.72,1060.57 517.24,1097.42 334.11,1072.94 170.84,1033.85 57.85,1041.67 177.58,1106.48 320.69,1230.07 394.57,1350.7 449.8,1583.83 429.48,1725.02 376.33,1912.54 392.76,2039.14 438.87,2150.93 541.74,2286.53 664.53,2376.62 787.27,2421.92 845.36,2421.61 885.42,2394.62 903.59,2342.55 915.52,2296.5 938.7,2264.12 966.27,2253.15 995.88,2314.58 1030.03,2319.65 1030.66,2288.82 1043.44,2244.67 1091.35,2224.22 1152.9,2268.78 1097.54,2345.35 1018.51,2440.72 773.15,2641.55 828.58,2659.14 916.06,2729.94 979.34,2843.73 1162.11,2973.54 1282.6,3119.31 1305.15,3264.44 "/>
  <g id="_1647794209616">
   <path class="fil1" d="M1083.69 1783.45c-47.34,-38.87 -106.44,-74.4 -170.16,-61.57l0.17 2.36c105.27,9.75 180.98,98.7 251.72,163.81l1.92 -1.38c-18.93,-41.68 -48.99,-73.99 -83.65,-103.22z"/>
   <polygon class="fil1" points="794.77,1673.27 794.77,1673.27 794.74,1673.29 "/>
   <polygon class="fil2" points="1037.35,435.26 1037.36,435.26 "/>
   <path class="fil1" d="M2764.42 2871.24c13.93,-3.91 22.42,-2.84 29.08,-0.41 -16.88,3.09 -33.92,5.43 -51.14,6.96 5.03,-1.59 11.8,-3.66 22.06,-6.55zm-175.69 149.33c-62.46,-57.68 -101.3,-35.68 -168.8,-29.89 -49.1,4.21 -97.25,-8.46 -144.08,-23.75 92.67,-53.96 162.76,-112.24 252.86,-187.2 21.65,34.59 42.45,69.72 62.32,105.35 50.06,89.71 93.42,168.7 95.65,273.4 -20.33,-44.24 -61.5,-104.24 -97.95,-137.91zm-553.47 10.79c-94.32,29.29 -289.27,42.57 -385.67,29.48 -16.4,-2.22 -71.47,-12.98 -80.61,-30.91l22 -4c53.45,-8.06 101.84,-15.87 155.12,-26.15 17.61,-3.48 35.17,-7.24 52.65,-11.31 31.81,7.71 63.65,17.83 96.46,26.28 164.77,42.48 214.87,-21.8 270.23,-34.24 -42.3,19.79 -85.68,37.03 -130.18,50.85zm-482.28 8.14l-28.12 24.96c9.2,-8.5 18.6,-16.93 28.12,-24.96zm140.44 -62.45c-42.01,9.22 -80.67,20.96 -109.47,38.41 12.46,-8.7 24.93,-16.13 37.23,-21.41l15.62 -5.76c19.28,-6.42 38.1,-9.91 56.62,-11.24zm336.41 -106.68l2.63 3.95 -2.63 -3.94c0,0 0,-0.01 0,-0.01zm-659.35 312.81c10.75,-71.43 13.36,-142.95 5.27,-200.32l-2.34 0.22c1.15,89.14 -19.16,186.81 -45.15,271.83 2.05,-24.94 -2.56,-49.66 -8.86,-73.7 -21.27,-81.1 -53.63,-148.51 -117.63,-205.41 -63.23,-56.21 -148.45,-98.37 -200.26,-141.58 -25.98,-21.66 -28.39,-28.37 -40.26,-59.08 -27.69,-71.56 -80.37,-134.13 -161.43,-139.37l7.53 -5.67c101.08,-75.62 202.89,-152.6 279.66,-254.18 18.95,-25.08 55.76,-67.49 65.73,-102.11 15.41,22.38 23.01,49.63 12.77,72.44 -20.43,45.51 -73.46,29.15 -57.08,73.54 12.12,32.84 76.02,90.36 104.6,110.56l0.01 -0.01c19.45,13.38 40.75,22.68 62.88,30.65l3.87 -10.9 -3.86 10.9c46.37,16.43 63.33,15.18 111.52,38.76 39.7,19.44 45.1,21.53 70.73,53.65 16.74,20.98 31.92,17.37 36.31,-3.51 11.68,-55.55 -40.9,-234.18 -62,-303.19l8.27 5.24c30.8,18.58 119.32,24.09 158.76,31.41 18.29,3.39 35.98,6.54 53.29,9.02l-0.37 0.98c73.79,32.82 165.44,140.47 212.92,204.99 22.56,31.22 68.9,100.11 85.15,133.78l2.3 -0.52c-0.65,-17.58 -4.64,-33.57 -10.73,-50.01 -30.81,-83.17 -147.25,-224.38 -241.33,-284.36 37.4,1.83 73.84,-1.81 111.62,-15.85 66.48,13.4 125.18,30.83 185.39,63.48 39.52,22.03 73.01,47.09 110.51,71.89l1.68 -1.65c-54.15,-83.06 -166.66,-124.82 -263.18,-149.28 131.01,-68.34 180.37,-92.68 257.31,-168.49 70.47,-24.87 134.99,-65.73 216.58,-74.26 63.73,-5.54 133.19,-0.85 198.18,-1.6l0.33 -2.34c-61.21,-18.14 -126.93,-21.91 -190.39,-17.06 -74.74,5.71 -129.12,33.7 -187.42,56.89 11.45,-12.21 23.62,-25.49 36.82,-40.15 15.69,-17.43 30.11,-32.38 33.72,-45 7.15,2.67 13.78,5.18 19.18,7.43 33.5,14.01 47.69,24.31 60.31,1.64 24.34,-43.72 52.06,-81.28 92.43,-111.78 40.19,-30.37 114.02,-52.2 163.22,-60.38 67.93,-11.28 59.91,-0.06 113.87,6.32 11.84,1.4 22.54,-3.21 16.46,-13.99 -3.64,-6.47 -36.71,-26.41 -65.68,-43.66 1.76,-4.74 3.41,-9.51 4.98,-14.31 9.29,0.58 21.65,-0.3 25.49,-0.34 98.71,-1.04 179.71,-5.45 279.82,7.29 37.36,4.76 81.02,14.25 125.11,27.98l-35.15 132.16c-6.29,3 -12.4,6.2 -18.15,9.71 -52.09,31.76 -112.03,96.45 -140.26,150.52 -38.37,73.5 -43.6,203.9 -56.03,288.01 -2.84,19.17 -6.63,38 -11.23,56.52 -12.16,21.52 -21.61,40.9 -24,52.96 -13.65,10.33 -27.38,20.48 -41.09,30.45 -2.12,0.73 -4.25,1.43 -6.47,2.04 -3.78,1.04 -7.14,2.01 -10.3,2.88 -7.9,2.17 -14.61,3.71 -23.93,4.16 -1.87,0.1 -3.83,0.14 -5.93,0.14 -2.82,0 -4.35,-0.11 -5.48,-0.31 -0.75,-0.13 -1.32,-0.3 -1.97,-0.49 -0.65,-0.19 -1.37,-0.41 -2.44,-0.65 -0.52,-0.11 -1.14,-0.23 -1.87,-0.36 -4.71,-0.79 -7.86,-1.4 -10.06,-1.75 -0.04,0 -0.09,-0.02 -0.13,-0.03 -4.59,-1.05 -4.65,-0.52 -4.65,2.05 0,0.15 0,0.33 0,0.49 0,0.45 -0.01,0.95 -0.04,1.5 0,0.07 0,0.13 -0.01,0.2 -0.01,0.23 -0.04,0.49 -0.07,0.74 -0.02,0.2 -0.04,0.41 -0.07,0.63 -0.02,0.24 -0.07,0.5 -0.11,0.75 -0.05,0.29 -0.12,0.6 -0.18,0.92 -0.05,0.22 -0.09,0.44 -0.15,0.67 -0.15,0.59 -0.31,1.19 -0.54,1.84 -0.35,1.06 -0.85,2.21 -1.38,3.38 -3.11,6.92 -8.94,15.51 -15.23,24.06 -3.08,4.19 -6.26,8.36 -9.27,12.3 -8.03,10.47 -12.07,18.46 -13.94,24.6 -0.32,1.08 -0.58,2.1 -0.79,3.06 -29.03,21.34 -56.7,42.19 -85.4,64.2 -17.3,-24.3 -33.65,-46.33 -47.8,-64.64 -20.82,-26.97 -29.49,-36.49 -48.22,-63.53l-1.97 1.29 15.43 25.14c25.76,35.33 50.42,71.46 74.1,108.24 -17.6,13.54 -35.66,27.58 -54.76,42.52 -72.46,56.67 -149.8,109.72 -231.63,153.75 -0.61,-0.21 -1.24,-0.42 -1.86,-0.63 -45.16,-15.05 -78.14,-5.18 -119.4,15.13 -88.67,43.67 -152.78,27.21 -232.06,4.5 62.86,-18.18 63.75,-23.87 124.92,-56.93l0 0c6.8,-3.82 13.01,-8.45 19.15,-13.2l0.59 0.02c0,-0.16 0.07,-0.37 0.08,-0.53 6.85,-5.31 13.62,-10.73 21.02,-15.29l-0.01 0c17.95,-11.17 19.53,-18.26 48.28,-34.74 17.18,-9.84 41.29,-30.43 53.68,-37.63l-5.55 -9.46 5.55 9.45 8.75 -5.81c18.35,-13 41.84,-38.58 56.22,-55.4 27.68,-32.4 75.19,-88.55 90.85,-126.03l-15.27 18.62c-43.42,56.21 -57.18,76.67 -113.62,123.38 -29.27,24.22 -10.5,10.19 -38.02,26.33l-0.01 -0.01 -9.67 5.77 -33.81 19.82c-39.39,24.42 -33.83,26.65 -48.12,39.22 3.39,-5.74 6.39,-10.59 8.15,-13.28 8.27,-12.36 19.65,-26.44 30.4,-36.68 17.24,-16.42 28.94,-31.19 41.68,-43.19 -15.41,13.99 -31.02,21.33 -43.38,31.54 -23.36,19.32 -77.46,68.85 -82.81,100.39 -0.91,0.64 -1.8,1.3 -2.73,1.89l4.29 7.41 -4.3 -7.41 -39.81 22.09c-30.95,16.27 -78.01,25.99 -129.45,34.87 -0.23,-0.06 -0.45,-0.12 -0.69,-0.18 -78.06,-20.4 -159.24,-25.38 -232.55,14.57 -62.65,34.14 -160.56,147.52 -215.93,214.45zm-419.28 -297.06c-47.14,-4.75 -90.99,-22.13 -135.71,-36.7 -153.1,-49.92 -308.29,-163.72 -367.76,-317.94 -28.91,-74.95 -43.71,-141.03 -51.55,-207.33l-8.39 -132.62c-0.83,-33.62 -1.15,-68.63 -1.69,-106.05 -0.3,-20.66 -1.64,-32.68 0.3,-44.84 29.32,100.38 91.35,191.56 167.49,262.53 59.97,55.9 104.14,76.36 179.96,103.52 57.81,20.71 94.81,37.41 148,0.87 24.62,-16.91 31.01,-64.9 37.85,-92.45 13.24,-53.35 26.91,-47.47 44.08,-60.38 2.57,30.94 17.96,60.15 46.11,75.6 38.13,20.92 33.84,-13.97 34.06,-29.98l-10.09 -0.15 10.09 0.14c0.56,-9.81 0.94,-19.69 2.96,-29.34 13.08,-62.65 67.81,-44.39 99.78,-5.27l-32.66 43.52c-70.11,99.2 -131.36,159.1 -228.07,233.89 -30.37,23.48 -102.17,72.19 -121,88.54 -4.63,4.02 -10.99,10.61 -9.39,17.44l5.88 9.1c3.06,2.36 8.59,2.32 12.28,2.38 53.51,1.02 92.12,15.87 125.12,60.72 22.29,30.3 27.02,50.53 39.94,84.01 11.79,30.55 45.55,59.37 80.96,84.59 -19.46,2.26 -54.77,-2.54 -68.55,-3.8zm-788.59 -1807.7c-45.42,-26.05 -45.79,-26.16 -94.3,-40.68l39.4 -2.06c60.62,-1.1 120.45,13.27 176.35,36.96l0 1.17c1.02,0.03 2.04,0.1 3.05,0.14 29.29,12.62 57.5,27.74 84.11,44.62 76.1,48.25 203.36,165.59 266.19,233.37 4.4,4.75 9.45,10.07 14.83,15.73 -10.04,13.15 -20.22,26.82 -30.65,41.18 -37.09,51.03 -74.51,111.96 -109.14,175.8 -3.69,2.51 -7.42,5.33 -10.94,8.49 -3.6,3.23 -6.99,6.72 -10.15,10.29 -6.32,7.12 -11.72,14.55 -16.02,20.76 -1.44,2.08 -2.75,4.01 -3.93,5.77 -2.95,4.37 -5.1,7.57 -6.34,8.73 -0.19,0.18 -0.5,0.54 -0.86,0.97 -0.07,0.09 -0.14,0.18 -0.22,0.27 -0.38,0.47 -0.83,1.04 -1.34,1.7 -0.45,0.57 -0.98,1.25 -1.52,1.93 -0.16,0.22 -0.33,0.43 -0.5,0.65 -0.54,0.69 -1.16,1.45 -1.78,2.22 0.15,-2.03 0.3,-4.03 0.42,-6.1 13.66,-245.71 -83.94,-439.93 -296.66,-561.91zm188.27 5.8c92.26,23.26 138.71,33.96 235.35,9.53l10.35 -3.07c108.72,-35.29 180.85,-153.24 147.68,-265.22 -5.18,-17.49 -23.08,-61.64 -31.34,-82.49 4.64,2.04 9.17,4.55 13.23,6.5 37.81,18.23 76.81,34.72 112.35,57.21 74.62,47.2 132.5,94.18 162.83,179.82l2.94 15.44c-5.36,12.82 -10.64,26.18 -15.73,39.56 -21.1,17.09 -41.49,33.67 -60.84,49.24 -14.06,11.32 -27.47,22.3 -40.37,33.07 -15.14,-11.31 -34.28,-24.64 -41.09,-23.66 -13.82,1.97 -4.25,18.85 -0.98,25.61 3.24,6.7 6.56,15.45 9.84,25.48 -22.17,19.26 -42.82,38.11 -62.53,57.18 -11.51,-24.81 -26.43,-49.75 -44.95,-75.58l-1.99 1.26c14.42,26.85 27.7,54.36 38.43,82.63 -42.88,42.25 -81.65,86.18 -122.55,138.88 -60.33,-65.92 -125.2,-127.93 -193.08,-186.06 -37.65,-32.24 -77.78,-61.66 -120.48,-86.05 0.97,0.24 1.95,0.47 2.93,0.72zm720.51 -214.25c-3,-29.31 -14.93,-72.94 -33.14,-101.3 0.68,-2.15 1.36,-4.29 2.07,-6.45 26.09,16.38 50.78,35.15 74.42,54.81 29.6,24.62 55.88,44.27 80.96,65.15 -59.82,41.78 -120.48,89.46 -177.07,135 21.2,-55.12 58.01,-95.8 52.76,-147.21zm30.98 -263.66c11.11,30.7 19.19,60.17 19.34,84.48 0.24,39.99 2.31,80.21 17.13,117.11 -28.6,-23.27 -61.54,-49.43 -91.03,-67.76 15.03,-42.92 33.57,-87.97 54.56,-133.83zm-6.2 -88.14c-0.45,2.36 -0.9,4.7 -1.35,7 -2.71,-6.48 -5.37,-12.86 -7.9,-19.06 2.98,4.22 6.09,8.2 9.25,12.06zm110.32 88.21c4.96,3.41 10.14,7.38 15.44,11.69l0.19 1.34c0.4,-0.06 0.83,-0.13 1.25,-0.19 24.81,20.33 52.55,48.17 77.04,65.9l1.51 -1.82c-16.09,-16.59 -41.29,-46.95 -59.55,-66.71 -0.09,-0.1 -0.19,-0.19 -0.29,-0.29 67.72,-10.84 173.6,-30.56 226.17,-51.75 50.57,-23.43 70.45,-75.98 97.3,-120.95 29.14,-48.8 87.05,-82.83 133.94,-112.95 40.91,-26.29 102.53,-56.22 111.66,-107.19 8.14,-45.45 10.41,-77.23 -2.1,-121.97 19.54,30.4 36.34,62.59 52.42,94.92 31.29,62.96 49.57,120.09 59.56,178.36 -1.63,2.78 -1.52,6.62 1.6,9.77 9.59,61.8 10.18,125.3 7.31,198.75 -1.21,30.97 -8.97,42.29 -10.17,60.27l2.36 0.18c2.42,-15.68 11.23,-30.05 13.21,-45.82 8.54,-67.9 11.74,-133.4 5.34,-198.39 64.63,56.99 136.93,161.71 181.54,230.13 39.84,61.1 59.47,178.95 29.38,247.01 -10.59,0.09 -20.98,0.5 -31.16,1.17 -0.96,-4.21 -2.7,-8.48 -3.87,-12.32 -7.52,-24.63 -53.32,-69.04 -73.54,-84.28 -48.03,-36.2 -68.52,-37.13 -115.55,-58.03 -25.45,-11.32 -42.68,-16.28 -49.99,-39.8 -5.32,-17.14 -19.42,-70.44 -38.44,-75.3 -26.27,-6.71 -9.93,69.06 -13.32,94.13 -8.32,61.58 -102.54,54.3 -134.22,92.53 -22.01,26.56 -45.65,52.35 -71.34,75.6 8.38,-38.76 -8.39,-105.44 -17.44,-135.82 -11.46,-37.1 -27.65,-81.82 -61.05,-104.73l-1.85 1.48 21.82 68.37c7.84,23.96 44.26,144.18 49.91,178.33 -2.83,2.44 -5.65,4.9 -8.53,7.29 -32.89,27.21 -92.3,43.85 -130.36,68.12 -33.98,21.67 -101.02,41.87 -143.28,44.42 -28.88,-44.46 -63.63,-83.7 -103.23,-118.86 6.04,-4.45 11.97,-8.77 17.85,-13.02 9.54,-1.27 24.83,-9.72 46.59,-20.7 23.89,-12.05 40.42,-16.54 49.63,-19.48 21.92,-7 36.59,-8.83 50.67,-13.82 9.73,-3.45 22.63,-6.68 30.95,-5.84 5.6,0.56 8.46,3.78 8.06,0.98 -0.16,-1.13 -2.35,-1.83 -3.14,-3.8 -2.03,-5.07 -2.52,-9.27 -2.13,-10.53 1.37,-4.42 0.37,-4.79 3.46,-14.7 3.91,-12.6 10.14,-24.35 12.19,-27.65 5.2,-8.34 3.99,-19.35 -3.17,-21.84 -12.14,-4.22 -24.9,5.6 -39.18,16.85 -13.61,10.72 -39.37,25.1 -52.96,35.38 -12.9,9.77 -95.05,62.27 -105.92,72.12 -8.07,5.24 -16.18,10.63 -24.31,16.15 -9.45,-8.03 -19.14,-15.87 -29.1,-23.48 -10.4,-7.95 -23.32,-18.54 -37.63,-30.21 -12.22,-39.68 -11.29,-82.75 -8.27,-123.81 1.67,-36.95 -9.63,-76.44 -23.85,-114.25 4.18,-8.77 8.44,-17.56 12.76,-26.35 23.38,19.76 49.62,36.05 77.83,55.41zm1155.06 304.79c26.83,4.37 73.51,-14.5 81.46,-7.36 -7.57,8.99 -31.1,18.87 -42.12,25.98 -21.9,14.12 -31.78,36.32 -40.54,60.15 -21.9,59.51 -23.59,116.02 -0.74,175.16 8.78,22.72 22.92,34.5 23.16,45.87 0.82,38.36 -17.03,91.85 -31.7,126.73 -26.09,62.02 -38.94,88.91 -90.32,135.11 -7.87,7.06 -47.68,38.41 -62.89,61.76 -16.64,-10.05 -34.18,-19.12 -52.61,-27.62 -32.91,-14.43 -65.97,-25.7 -99.03,-33.55 26.7,-18.78 53.23,-37.74 78.53,-58.45l28.01 -26.94c16.58,-18.71 26.92,-34.38 34.62,-50.58l37.33 0.39c25.45,-0.18 61.71,1.68 81.41,-10.01l0.08 -2.36c-12.74,-8.41 -26.36,-8.49 -40.96,-8.1 -13.08,0.39 -48.78,1.88 -72.61,8.01 6.42,-16.25 11.14,-33.85 17.41,-56.12 17.62,-62.54 -28.39,-46.99 -70.07,-38.46 -10.26,2.1 -18.31,4.37 -24.67,6.74l-3.41 -9.5 -11.21 4.48 11.2 -4.49c-6.3,-14.43 -13.66,-26.84 -21.82,-37.74l3 -8.31c19.17,-59.2 18.6,-87.78 71.32,-139.39 39.9,-37.48 96.42,-68.43 143.27,-97.86l-0.93 -2.17c-64.78,17.19 -128.95,51.24 -173.53,102.21 -42.97,49.13 -44.03,83.53 -56.86,129.27 -44.17,-46.68 -104.7,-63.65 -151.68,-113.9 -14.42,-15.42 -25.42,-37.07 -39.25,-50.77 43.91,-39.67 93.05,-79.15 147.22,-102.63 36.98,-16.03 87.39,-20.49 139.87,-18.99l0.14 0.07c0.02,-0.02 0.03,-0.05 0.04,-0.07 67.61,1.94 138.64,13.75 188.88,23.44zm81.83 -7.03l0.05 -0.05 0.1 0.22 -0.15 -0.17zm-52.99 -220.85c-1.54,1.88 -3.01,3.68 -4.31,5.31 -56.85,71.41 -67,103.06 -84.82,185.06l2.27 0.79 21.94 -47.15c21.64,-48.93 41.13,-75.26 75.37,-117.08 33.91,-41.41 139.7,-157.55 194.25,-161.64l-28.95 52.29c-16.33,30.69 -29.65,90.94 -32.08,124.76 -4.69,65.11 19.09,81.72 64.82,109.53 56.63,34.45 75.58,76.97 85.7,142.14 2.35,15.1 1.5,32.92 9.03,46.81 -102.39,35.92 -195.76,89.31 -269.95,169.65l1.73 1.61 14.35 -13.87c146.54,-135.4 420.82,-209.36 617.13,-171.39 -85.48,25.1 -154.03,73.08 -199.03,151.43 -23.73,41.32 -55.23,81.4 -53.94,127.27 1.44,50.84 14.37,127.62 -9.75,173.75 -11.44,21.86 -43.96,54.6 -69.94,92.59 -1.05,-0.15 -2.06,-0.3 -2.98,-0.44 -143.51,-20.47 -300.19,-3.29 -439.27,49.88 -21.95,-25.49 -46.54,-46 -73.68,-63.51 16.48,-22.29 76.89,-71.45 97.76,-95.46 2.06,-2.37 4.07,-4.87 6.05,-7.41 36.62,-17.42 97.64,-40.71 129.61,-49.27 30.35,-7.71 61.81,-12.33 92.98,-19.68l0.12 -2.36 -3.11 -1.01c-57.67,-17.75 -150.87,13.44 -205.9,52.59 11.88,-19.01 22.18,-40.5 31.07,-61.32 43.72,-34.71 145.31,-53.04 191.18,-60.77l140.92 -21.37 0 -2.36 -3.07 -0.48c-71.89,-10.61 -255.96,13.5 -323.3,71.18 2.29,-5.64 4.49,-11.18 6.57,-16.53 9.55,-24.61 32.71,-99.55 24.83,-124.74 -5.08,-16.24 -14.84,-16.7 -28.26,-57.38 -19.42,-58.91 -8.57,-134.82 24.1,-187.34 15.01,-24.13 71.07,-37.07 65.4,-56.77 -7.22,-25.08 -63.03,3.28 -91.39,-1.22l-1.15 5.89 1.14 -5.89c-47.75,-8.99 -104.75,-17.85 -160.6,-21.28 51.8,-85.9 100.94,-148.14 187.16,-194.81zm696.77 329.43l3.89 5.49 -4.91 -1.55 1.02 -3.94zm-942.01 545.08c-77.64,-1.01 -121.37,59.15 -99.89,106.92 -34.15,-0.55 -129.1,-18.43 -165.84,-16.85 -108.96,4.67 -215.62,33.62 -281.03,122.63 -2.86,2.72 -5.4,5.25 -7.51,7.51 -3.34,3.58 -6.32,4.25 -7.92,5.13 -17.6,-24.61 -34.65,-50.59 -52.61,-75.88 2.42,-0.87 4.67,-2.11 6.23,-3.41 33.66,-28.24 76.82,-67.69 111.41,-97.9 4.42,-3.87 8.87,-7.63 13.33,-11.33 4.26,8.11 7.51,19.28 11.22,27.95 6.86,15.6 15.59,29.99 33.82,33.18l1.33 -1.95 -7.64 -14.43c-9.51,-18.24 -17.1,-42.92 -29.54,-52.25 26.99,-21.57 54.72,-40.11 83.65,-55.12 53.32,8.14 107.82,19.5 157.37,40.09 22.36,9.63 37.23,17.75 61.25,24.89l1.42 -1.89c-8.13,-12.37 -18.36,-21.15 -31.04,-28.69 -46.54,-27.64 -115.08,-42.34 -174.52,-41.56 56.18,-26.49 117.08,-39.82 186.05,-36.67 91.64,4.19 158.18,33.13 225.6,69.32 -11.65,1.14 -23.66,0.46 -35.14,0.31zm-697.09 -421.19c59.89,37.66 70.81,162.36 122.34,194.31 -35.77,41.11 -64.62,125.2 -21.2,170.42 -5.85,55.97 -22.87,87.96 18.65,113 7.55,4.56 15.31,9.44 23.59,12.37 -15.33,13.88 -30.29,27.57 -44.74,40.4 -9.84,8.73 -21.62,16.95 -26.93,25.51 -17.79,-24.13 -36.72,-47.24 -58.15,-67.47 -4.79,-39.98 -42.91,-162.62 -51.41,-189.23 -17.93,-56.13 14.72,-156.52 6.09,-232.4 -1.27,-11.15 -9.68,-47.58 -9.7,-48.22 -0.55,-16.43 -4.36,-29.17 -11.18,-41.85 17.94,6.81 36.2,12.82 52.64,23.16zm101.03 289.69c-0.21,1.55 -0.42,3.15 -0.61,4.78 -0.03,0.23 -0.06,0.45 -0.09,0.69 0.2,-2 0.46,-4.02 0.77,-6.06 -0.02,0.19 -0.05,0.4 -0.07,0.59zm0.31 -2.22c0.01,-0.04 0.01,-0.08 0.02,-0.12 -0.01,0.04 -0.01,0.08 -0.02,0.12zm49.94 -81.69c-0.17,-0.51 -0.33,-1.01 -0.49,-1.51 -0.37,-1.16 -0.69,-2.28 -0.97,-3.38 -0.12,-0.46 -0.25,-0.92 -0.35,-1.36 -0.17,-0.73 -0.26,-1.39 -0.39,-2.09 0.34,-0.33 0.66,-0.67 1,-1 0.42,3.39 0.89,6.72 1.43,9.94 -0.07,-0.2 -0.16,-0.4 -0.23,-0.6zm270.61 -103.1c11.94,-4.94 51.44,7.82 63.86,9.59 -2.75,12.19 -6,22.49 -17.76,25.97 -9.89,2.4 -28.73,0.3 -41.78,-3.3 -2.86,-12.72 -4.6,-24.69 -4.32,-32.26zm65.46 131.86c-10.95,-11.79 -34.52,-32.12 -45.93,-53.74 -3.01,-5.69 -6.08,-13.64 -8.87,-22.39 32.71,20.93 72.56,-1.47 71.72,-29.85 4.53,8.13 7.94,17.38 10.03,22.81 11.8,30.79 13.74,42.5 27.04,74.62 -19.44,3.36 -37.02,6.94 -53.99,8.55zm102.28 -16.62c-8.86,1.95 -17.61,3.39 -25.77,4.52 -5.08,0.69 -10,1.46 -14.82,2.25 2.99,-24.95 -4.5,-53.16 -12.57,-75.77 -7.55,-20.53 -21.68,-57.16 -47.63,-57.81l0.32 0c-10.9,-1.45 -27.88,-6.95 -45.11,-9.04 -2.22,-0.26 -4.3,-0.45 -6.31,-0.6 5.24,-15.4 9.32,-33.38 4.47,-48.59 5.82,-5.37 2.14,-7.23 9.67,-20.47 18.61,-32.67 76.82,28.03 90.21,43.01l0.01 -0.01 15.4 21.73 11.44 -6.74 -11.44 6.76c18.93,33.05 45.09,99.75 32.13,140.76zm-222.22 -107.41c12.34,-31 22.74,-44.72 49.08,-60.65 6.09,-3.68 10.85,-6.61 14.62,-9.02 -0.49,4.92 -0.88,9.89 -1.6,15.82 -1.04,8.02 -2.61,16.57 -1.34,24.58 -32.32,1.16 -27.37,24.14 -20.27,53.87 16.12,67.47 54.14,86.25 73.73,99.89 -27.51,1.84 -53.78,-2.24 -84.29,-21.86 -9.43,-6.06 -21.71,-11.7 -34.7,-17.33 -13.23,-25.62 -5.56,-59.35 4.77,-85.3zm-64.69 78.34l4.75 -8.16 -4.74 8.17 -0.01 -0.01zm0.12 0.08l-0.06 -0.04c24.48,13.83 65.73,28.31 84.23,40.26 10.67,6.89 21.02,12.14 31.29,16.03 2.52,5.14 6.17,9.15 14.49,11.65l-0.34 0.15 0.32 0.47c16.74,19.93 23.71,44.61 41.08,66.94 -17.38,0.75 -34.73,2.62 -52.02,5.62 -2.28,-2.63 -5.94,-4.32 -10.13,-3.62 -25.6,4.26 -63.26,-29.05 -82.25,-44.36l-23.88 -17.83c-27.07,-30.56 -83.45,7.75 -124.7,-28.28 -21.64,-18.91 -14.5,-120.17 -6.31,-146.79 6.66,16.95 14.07,38.56 34.56,41.83 28.11,4.48 12.17,11.07 38.6,33.88 25.96,22.4 38.97,18.82 55.12,24.09zm-126.02 -223.96l0.01 0 3.75 7.36 -3.76 -7.36zm7.52 14.71l-0.01 0c32.63,-17.56 92.5,-31.6 131.94,-23.84 -17.61,28.97 -39.91,79.54 -50.63,125.8 -14.69,-19.76 -33.31,-32.82 -54.6,-45.85 -36.94,-22.48 -88.17,-47.68 -130.22,-57.17l-47.81 -9.27 -0.7 2.26 45.09 19.28 0 0.01c26.42,11.34 52.12,23.09 77.66,36.32 35.37,18.33 77.46,47.76 109.21,60.77 -5.17,24.61 -6.75,47.59 -2.26,64.97 -4.51,-3.48 -8.38,-7.44 -11.09,-11.87 -24.52,-40 -35.02,-21.93 -44.18,-30.8 -16.57,-16.05 -9.22,-36.98 -33.67,-47.18l-7.08 4.14c-13.34,10.71 -20.72,66.93 -17.28,115.02l-6.07 -1.68c-37.26,-11.04 -64.02,-117.4 -95.81,-164.43 -24.01,-35.52 -61.2,-48.92 -89.14,-59.14 20.25,-2.68 41.15,-2.3 61.29,-2.1 54.13,0.55 75.73,-1.42 127.74,15.64 10.75,3.52 26.55,11.64 37.62,9.12zm-365.06 286.87c26.24,-61.69 4.2,-129 -34.95,-179.73 -16.84,-21.82 -47.66,-37.03 -70.58,-52.49l7.52 1.4c88.88,17.63 116.37,76.64 157.28,73.88 16.54,-1.12 40.47,-21.06 61.8,-36.27 4.64,47.83 -4.37,89.7 -9.21,142.22 -1.67,18.18 -2.59,31.56 -2.41,43.29 -8.4,-7.39 -18.06,-13.88 -25.22,-19.14 -20.39,-15.35 -21,-12.37 -30.32,-18.62l-2.3 0.53c-3.48,8.88 1.01,18.75 6.84,25.53 12.9,15.02 32.81,25.66 52.51,30.66 2.15,14.36 6.73,28.78 14.79,50.47l60.19 152.68c-25.35,-22.33 -54.21,-40.54 -88.66,-51.82 -42.17,-13.8 -119.74,-17.93 -181.8,-12.08 -3.65,-48.39 55.86,-88.49 84.52,-150.51zm326.21 614.36c-21.11,-20.59 -67.33,-46.49 -81.7,-60.88 -45.34,-45.45 -96.77,-80.45 -139.09,-130.01 -41.7,-48.85 -50.81,-73.23 -79.58,-123.96 -46.36,-81.76 -75.21,-102.09 -165.52,-124.72 46.6,-14.63 125.88,-13.85 173.59,-9.67 148.05,12.99 199.04,126.74 272.16,228.19 -47.25,-6.75 -76.26,1.34 -123.12,14.32l0.6 2.28c48.72,-12.2 77.26,-19.48 126.93,-10.58 12.53,17.08 25.74,33.76 40.25,49.45 30.19,32.65 58.12,52.63 96.69,66.31 -45.88,30.97 -87.28,64.46 -121.21,99.27zm590.21 -726.99c-21.51,85.07 -100.52,131.36 -169.32,176.39 -26.04,-4.4 -52.06,-6.56 -78.02,-6.32 -1.79,-13.19 -8.14,-26.24 -14.07,-37.31 -4.02,-7.42 -12.53,-22.83 -22.11,-33.39 20.2,2.25 41.13,0.39 64.59,-3.87 54.42,-9.88 138.89,-12.38 166.92,-69.58 16.99,-34.67 3.62,-41.19 -13.8,-59.01 0,-0.19 -0.01,-0.39 -0.01,-0.59 11.26,-4.43 69.81,-17.95 76.49,-14.05l12.98 -14.57 -12.94 14.59c2.99,5.35 -8.79,40.11 -10.71,47.71zm-68.84 -9.67c3.26,2.94 5.53,5.34 5.3,7.01 -2.38,17.5 -10.9,30.68 -22.79,40.7 6.94,-14.65 13.71,-31.3 17.49,-47.71zm-25.45 -43.88l0 0 1.21 3.14c8.87,23.12 -4.34,58.88 -4.94,96.7 -11.24,6.72 -24.17,11.55 -37.3,15.08 26.05,-40.27 2.36,-112.7 -20.01,-151.65l-0.01 0 -18.34 -25.76 -9.97 8.76 9.97 -8.77c-16.43,-18.29 -35.62,-36.62 -57.06,-48.9 -66.54,-38.11 -79.59,25.42 -81.01,27.64l-32.84 22.9c-36.01,27.71 -61.99,107.63 -37.32,152.49 -14.54,-6.22 -29.35,-12.52 -41.58,-19.48l-0.01 0.01 -11.64 -3.31c-10.51,-1.75 -23.25,-6.16 -33.72,-12.86 -8.87,-36.92 17.72,-100.16 30.4,-128.4 23.58,-52.54 29.86,-57.76 62.2,-99.55 37.76,-48.79 49.28,-64.52 75.79,-22.07 62.69,100.37 164.48,98.74 206.18,194.03zm-390.71 -429.12c27.28,-32.72 85.1,-32.73 117.47,-60.99 42.59,-37.17 14.23,-99.62 21.41,-124.33l1.26 1.2c26.84,32.37 18.76,76.65 51.67,94.18 53.56,28.52 91.23,28.79 148.65,68.6 17.85,12.37 67.26,55.93 75.25,76.4l0 0c1.68,4.67 4.28,9.83 5.71,14.94 -13.56,0.91 -26.73,2.3 -39.23,4.41 -72.45,12.25 -141.25,67.63 -194.11,116.09 17.12,-42.82 19.09,-160.8 -3.7,-201.74l-2.01 1.24c14.5,27.61 14.78,83.36 13.63,114.07 -1.11,29.79 -3.09,63.63 -17.66,90.53 -6.96,-4.65 -14.77,-7.05 -24.04,-5.8 -29.05,3.91 -60.64,56.74 -80.15,82.86 -2.09,2.8 -4.34,6.13 -6.67,9.83 -22.74,-7.84 -50.23,-7.95 -75.97,-4.61l-1.19 -3.72c-14.69,-42.29 -32.5,-72.35 -73.68,-89.24 -28.86,-11.05 -95.21,-31.66 -125.14,-23.95l0 2.36 10.07 3.61c33.7,14.08 32.93,17.46 77.33,32.3 74.7,24.97 55.09,31.42 103.98,79.9 -10.1,1.62 -19.8,3.69 -28.68,5.97l-25.64 8.27c-22.74,-8.04 -44.3,-18.54 -67.75,-24.69 -32.82,-8.61 -120,-11.07 -154.36,-8.03 -16.04,1.41 -25.77,2.86 -34.87,7l-14.18 -30.74c-7.72,-14.93 -16.05,-29.31 -24.94,-43.19 42.45,0.16 111.92,-16.04 145.46,-36.77 25.21,-15.55 75.5,-34.72 104.97,-48.91 39.41,-18.98 88.76,-73.04 117.11,-107.05zm-737.59 310.87c-2.75,8.32 -11.28,35.03 -10.4,53.79l-44.88 -34.62c0.87,-0.72 1.74,-1.45 2.61,-2.18 19.56,-16.2 41.73,-34.75 65.53,-54.62 -4.7,13.3 -9.05,26.06 -12.86,37.63zm-103.5 0.88l18.45 13.62c-3.26,2.75 -6.48,5.49 -9.67,8.22 -2.85,-8.17 -5.8,-15.61 -8.78,-21.84zm-47.89 232.54c-1.13,29.99 -6.64,59.25 -13.67,88.38 -20.34,84.21 -18.44,106.39 4.05,192.77 2.12,8.16 3.85,11.74 4.04,15.82 -0.57,1.83 -1.12,3.66 -1.67,5.5 -18.32,-56.08 -27.41,-114.69 -44.68,-171.04 -12.98,-42.39 -48.71,-77.74 -79.95,-110.47 35.2,-46.36 73.78,-90.23 114.8,-131.65 11.26,35.56 17.93,72.37 17.08,110.69zm2.33 273.91c-0.26,-0.87 -0.49,-1.65 -0.65,-2.26 -21.83,-83.63 -21.44,-101.95 -1.93,-184.07 18.72,-78.76 17.14,-143.71 -7.14,-207.98 19.49,-19.33 39.51,-38.11 59.96,-56.35 11.25,40.57 21.25,90.1 25.66,115.72 19.54,113.56 2.52,155.25 -42.22,255.38 -12.59,28.19 -24.3,54.23 -33.68,79.56zm-392.07 297.98c28.05,-105.99 101.59,-283.47 151.82,-382.59 27.79,-54.85 60.49,-106.93 97,-156.27 25.56,27.06 53.94,58.37 66.51,81.35 16.89,30.9 43.46,175.1 59.4,206.74l3.06 -1.19 -3.06 1.19c0.68,1.35 1.34,2.47 1.98,3.4 -10.5,46.84 -9.48,94.55 12.59,152.49 18.22,47.87 36.51,72.53 61.46,114.83 3.8,6.42 7.58,13.18 11.34,20.18 -47.23,-41.53 -108.56,-52.22 -172.73,-54.62 -39.19,-1.25 -74.72,0.8 -113.17,9.19l0.09 2.36 48.24 3.67c88.45,2.34 169.78,-2.55 245.34,54.3 39.84,78.87 74.57,184.91 73.46,264.75 -0.02,0.82 0.03,1.64 0.03,2.47 -13.72,4.4 -23.85,6.58 -35.9,19.62 -26.46,28.64 -24.48,110.01 -50.32,129.12 -17.63,13.04 -36.98,21.3 -59.13,20.3 -29.35,-1.33 -98.66,-28.42 -126.2,-40.23 -104.01,-44.61 -192.22,-142.16 -243.93,-240.42 -20.33,-38.62 -37.13,-84.35 -46.86,-130.95 21.86,-42.64 8.57,-40.38 18.98,-79.69zm806.02 587.49l-6.51 9.4 6.51 -9.42c-23.38,-16.29 -93.84,-77.55 -98.46,-105.38l20.9 -10.5c106.25,-65.38 -7.66,-210.37 -82.11,-183.35 -40.72,14.79 -42.44,66.39 -42.44,102.69l-14.2 -8.66c-26.29,-21.36 -26.6,-44.77 -26.94,-73.18 -1.07,-89.05 -52.17,-226.54 -99.96,-302.83 -39.8,-63.55 -79.93,-131.03 -76.68,-208.84 2.37,-56.49 34.3,-126.09 57.66,-178.01 50.07,-111.3 58.01,-160.78 32.99,-282.02 -5.02,-24.3 -13.19,-62.86 -22.88,-96.27 6.95,-6.08 13.94,-12.1 20.97,-18.06l8.82 6.51c36.32,28.89 74.9,55.41 110.2,84.99 67.77,56.79 84.6,88.62 130.75,159.17l2.05 -1.18 -2.06 -4.27c-49.64,-104.05 -90.96,-143.66 -182.2,-210.78 1.49,-14.54 12.08,-44.06 14.25,-50.96 8,-24.94 17.22,-49.48 26.66,-73.93 64.57,-53.72 137.89,-113.88 204.57,-164.08 22.88,19.85 45.03,41.64 68.1,70.32 34.76,43.2 56.35,77.55 75.1,124.38 -1.21,1.01 -2.46,2.07 -3.76,3.19l8.94 12.72c0.67,0.96 1.3,1.86 1.93,2.77 1.04,2.88 2.08,5.76 3.11,8.75l1.57 -1.89c23.66,35.41 11.23,30.14 17.37,52.81 1.67,6.16 2.99,12.13 4.17,18.01 -14.77,9.8 -44.7,32.74 -53.33,36.71 -22.12,10.18 -64.71,-44.54 -124.73,-65.04 -16.25,-5.55 -78.37,-24.18 -89.06,-3.98 -9.97,18.84 24.77,38.78 37.29,47.2 37.56,25.23 48.3,25.97 71.07,63.83 88.43,147.02 -77.96,199.18 -60.27,293.29 -14.25,1.88 -27.31,4.36 -38.43,7.44 -27.64,7.66 -31.48,20.77 -8.77,27.32 58.14,16.79 91.06,20.13 129.32,72.89l-4.32 2.9c-58.47,53.51 -78.02,141.76 -75.82,217.51 2.8,96.02 46.14,231.21 126.75,299.88 -0.05,0.33 -0.1,0.66 -0.06,1.01 3.05,31.58 4.29,63.14 1,94.77 -8.18,78.74 -34.85,95.61 -63.44,150.49l1.85 1.48 20.06 -17.05c63.46,-57.35 69.09,-134.06 62.4,-214.33 6.4,4.13 12.99,7.87 19.79,11.15 6.95,3.35 13.79,6.06 20.52,8.21 9.3,12.21 15.48,26.36 21.57,40.34 7.36,16.52 10.27,34.89 19.64,50.55l9.53 -5.85 0.02 0.38 -9.31 6.08 0.79 2.78 5.69 18.31c1.83,18.4 12.43,42.82 17.51,61.45 18.37,67.4 49.8,171.81 50.32,239.25 -13.14,-16.89 -24.63,-27.15 -43.29,-37.88 -65.95,-37.93 -80.72,-33.39 -145.1,-55.52l0 -0.01c-20.28,-7.09 -39.74,-15.64 -57.61,-27.66zm1595.46 -910.35c-12.3,2.24 -9.13,1.82 -29.88,2.1 -153.76,-1.57 -160.33,108.13 -181.29,217.54 -8.65,0.36 -7.48,16.34 -4.42,21.38 0.01,0.03 0.05,0.05 0.07,0.07 -0.87,4.05 -1.78,8.09 -2.74,12.11 -13.67,-8.13 -25.57,-15.23 -31.7,-19.38l-1.46 1.85c26.06,23.42 55.49,42 83.28,63.16 -19.47,-4.74 -39.25,-10.98 -59.37,-12.08 -44.63,-2.43 -112.11,17.15 -154.39,32.75 -56.01,20.66 -89.56,47.82 -126.47,95.33 -24.87,32.02 -29.75,49.12 -39.6,63.11 -18.87,-3.51 -46.45,-18.83 -72.85,-28.19 -4.91,-2.9 -11.45,-5.6 -19.92,-8.08 -86.73,-25.4 -235.32,-18.77 -321.11,5.69 -80.72,23.02 -159.47,56.84 -229.76,102.86 -54.96,35.99 -112.67,67.81 -170.16,99.6l4.3 7.8 -4.29 -7.79 -7.16 3.89c-16.96,9.09 -34.96,14.13 -42.21,27.95 -5.85,-18.74 -9.96,-37.94 -13.38,-57.26 77.96,-0.82 138.23,-76.72 174.84,-144.14 8.37,-15.41 32.82,-26.65 32.63,-44.53 8,-8.22 16.41,-16.25 26.3,-25.05 127.05,-113.2 325.93,-203.82 491.67,-238.82 49.98,-9.61 95.51,-12.06 146.25,-11.29 45.52,0.69 98.09,8.84 136.84,-6.69l0.05 -2.37 -9.52 -4.03c-46.47,-17.63 -168.29,-15.1 -217.82,-10.47 -43.15,4.03 -90.76,13.79 -140.13,28.21 0.34,-0.53 0.67,-1.04 0.99,-1.53 3.55,-5.53 8.64,-11.56 14.31,-17.53l4.95 -4.21c69.15,-55.18 147.17,-97.21 229.86,-126.59 0.37,0.19 0.73,0.38 1.1,0.57l1.15 -1.37c76.81,-27.06 157.61,-43.24 239.08,-48.84 75.53,-5.19 213.34,-0.79 283.31,29.49l8.65 4.78zm351.77 183.69c2.64,-8.12 5.29,-16.45 7.95,-24.96 4.43,-14.19 8.85,-28.85 13.17,-43.78 -4.32,14.93 -8.75,29.59 -13.17,43.78 -2.66,8.51 -5.31,16.84 -7.95,24.96 -2.64,8.12 -5.25,16.02 -7.83,23.65 2.58,-7.63 5.19,-15.53 7.83,-23.65zm28.77 -95.85c2.51,-9.11 4.94,-18.27 7.31,-27.42 -2.37,9.15 -4.81,18.31 -7.31,27.42 -1.66,6.07 -3.35,12.11 -5.07,18.13 1.72,-6.02 3.41,-12.06 5.07,-18.13zm16.28 -63.99c-2.11,9.09 -4.33,18.24 -6.64,27.4 2.31,-9.16 4.53,-18.31 6.64,-27.4zm41.54 -313.18c-0.56,8.62 -1.17,17.2 -1.97,25.7 0.8,-8.5 1.41,-17.08 1.97,-25.7zm5.71 -67.03c0,0.01 -0.01,0.01 -0.02,0.02 0.01,-0.01 0.01,-0.01 0.02,-0.02zm0.55 0.15c0.21,0.35 0.43,0.97 0.66,1.81 0.4,1.4 0.82,3.41 1.26,5.75 -0.44,-2.34 -0.87,-4.35 -1.26,-5.75 -0.23,-0.84 -0.45,-1.46 -0.66,-1.81 -0.13,-0.22 -0.27,-0.33 -0.39,-0.3 0.12,-0.03 0.26,0.08 0.39,0.3zm3.01 13.7c-0.19,-1.09 -0.37,-2.15 -0.55,-3.18 0.18,1.03 0.36,2.09 0.55,3.18zm1.38 8.2c-0.18,-1.07 -0.37,-2.16 -0.55,-3.26 0.18,1.1 0.37,2.19 0.55,3.26zm7.67 17.08c1.23,0.93 2.43,1.72 3.34,2.19 0.91,0.47 1.52,0.62 1.57,0.27 3.9,-28.09 3.79,-56.36 4.26,-84.43 0.16,-9.35 0.38,-18.68 0.84,-27.98 -0.46,9.3 -0.68,18.63 -0.84,27.98 -0.47,28.07 -0.36,56.34 -4.26,84.43 -0.05,0.35 -0.66,0.2 -1.57,-0.27 -0.91,-0.47 -2.11,-1.26 -3.34,-2.19 -1.51,-1.14 -2.99,-2.47 -4.05,-3.68 1.06,1.21 2.54,2.54 4.05,3.68zm-25.25 706.71c-19.61,-1.32 -39.03,-4.71 -58.59,-6.6 -10.28,-1 -21.08,-1.51 -32.16,-1.61 6.94,-14.71 13.75,-29.58 20.38,-44.5 27.06,15.75 51.22,33.37 70.37,52.71zm-217.97 178.41zm34.56 -153.82l-34.56 153.82zm34.56 -153.82c-0.82,1.3 -1.68,2.62 -2.59,3.95 0.91,-1.33 1.77,-2.65 2.59,-3.95l0 0zm53.54 -96.13c0.02,-0.04 0.03,-0.08 0.05,-0.12 -0.01,0.04 -0.03,0.08 -0.05,0.12zm-4.4 9.27c0.33,-0.68 0.66,-1.37 0.99,-2.05 -0.33,0.68 -0.66,1.36 -0.99,2.05zm-3.57 7.31c0.33,-0.67 0.66,-1.35 0.99,-2.02 -0.33,0.67 -0.66,1.35 -0.99,2.02zm-3.68 7.32c0.1,-0.2 0.2,-0.4 0.31,-0.6 -0.1,0.2 -0.21,0.4 -0.31,0.6zm-4.12 7.97c0.36,-0.69 0.72,-1.38 1.08,-2.07 -0.36,0.69 -0.72,1.38 -1.08,2.07zm-3.36 6.33c0.33,-0.61 0.66,-1.24 0.99,-1.86 -0.33,0.62 -0.66,1.25 -0.99,1.86zm-3.7 6.8c0.19,-0.35 0.38,-0.68 0.57,-1.02 -0.19,0.34 -0.38,0.67 -0.57,1.02zm-3.62 6.5c0.36,-0.62 0.7,-1.25 1.06,-1.89 -0.35,0.64 -0.71,1.27 -1.06,1.89zm-3.03 5.33c0.33,-0.55 0.65,-1.12 0.97,-1.69 -0.32,0.56 -0.64,1.14 -0.97,1.69zm-3.43 5.92c0.24,-0.4 0.46,-0.77 0.69,-1.18 -0.23,0.41 -0.45,0.78 -0.69,1.18zm-3.03 5.14c0.34,-0.58 0.69,-1.16 1.04,-1.75 -0.35,0.59 -0.7,1.17 -1.04,1.75zm40.12 -77.07c-0.22,0.48 -0.43,0.96 -0.65,1.45 0.22,-0.49 0.43,-0.97 0.65,-1.46 0,0.01 0,0.01 0,0.01zm7.81 -18.19c0.26,-0.63 0.52,-1.26 0.78,-1.89 -0.26,0.63 -0.52,1.27 -0.78,1.89zm-143.55 245.51c-2.18,-1.32 -3.62,-3.01 -3.86,-4.94 -0.06,-0.54 -0.16,-0.87 -0.3,-1.04 -0.06,-0.08 -0.14,-0.12 -0.22,-0.11 0.08,-0.01 0.16,0.03 0.22,0.11 0.14,0.17 0.24,0.5 0.3,1.04 0.24,1.93 1.68,3.62 3.86,4.94zm7.07 -31.24c0.81,-0.57 1.62,-1.18 2.42,-1.84 3.67,-2.99 7.1,-4.67 10.21,-5.29 -3.11,0.62 -6.54,2.3 -10.21,5.29 -0.8,0.66 -1.61,1.27 -2.43,1.84 -1.62,1.15 -3.27,2.12 -4.91,2.95 -1.64,0.82 -3.28,1.5 -4.91,2.03 1.63,-0.53 3.27,-1.21 4.91,-2.03 1.65,-0.83 3.29,-1.8 4.92,-2.95zm28.02 -37.96c0.75,-0.73 1.42,-1.46 2.02,-2.19 3.61,-4.43 9.04,-10.55 14.98,-17.42 2.98,-3.43 6.07,-7.05 9.13,-10.75 -3.05,3.7 -6.16,7.32 -9.13,10.75 -5.94,6.87 -11.38,12.99 -14.98,17.42 -0.6,0.73 -1.27,1.46 -2.02,2.19zm-8.25 68.14c1.25,-1.01 2.37,-2.09 3.35,-3.23 -0.98,1.14 -2.1,2.22 -3.35,3.23 -2.98,2.4 -7,3.67 -11.16,4.06 4.16,-0.39 8.18,-1.66 11.16,-4.06zm238.78 -720.51c-0.01,-0.26 0.07,-0.51 0.23,-0.73 -0.15,0.22 -0.24,0.47 -0.23,0.73 0.11,4.46 0.08,9.07 -0.07,13.81 0.15,-4.74 0.18,-9.35 0.07,-13.81zm31.93 -33.22c0,1.19 -0.04,2.33 -0.12,3.43 0.08,-1.1 0.12,-2.24 0.12,-3.43 0.02,-9.19 -6.21,-20.81 -13.98,-26.57 7.77,5.76 14,17.38 13.98,26.57zm-1.49 -268.31c-0.9,-16.38 -2.17,-32.36 -3.23,-47.48 1.06,15.12 2.33,31.1 3.23,47.48zm-20.59 238.23c1.37,0.16 2.75,0.56 4.11,1.15 -1.36,-0.59 -2.74,-0.99 -4.12,-1.14 -1.75,-0.2 -4.45,0.09 -6.67,0.01 2.22,0.08 4.92,-0.21 6.68,-0.02zm-413.84 1056.87c-5.91,9.64 -15.53,24.41 -26.35,41.32 9.52,-69.45 10.99,-135.42 29.11,-210.62 10.63,-44.12 33.1,-83.86 62.02,-118.63 3.73,0.44 7.8,-0.32 11.51,-2.51 7.33,-4.34 10.56,-12.55 7.96,-19.16 17.64,-18.3 36.95,-34.99 56.98,-49.96 2.99,-2.23 6.09,-4.36 9.28,-6.42l-11.8 44.38c-0.89,0.35 -1.78,0.7 -2.63,1.02 -4.62,1.74 -8.73,3.09 -11.75,3.92 -24.8,6.73 -15.06,20.6 1.92,20.09 1.92,-0.06 3.94,-0.32 6.01,-0.78l-32.27 121.27c8.75,-20.2 17.77,-38.96 21.49,-56.14 -3.72,17.18 -12.75,35.94 -21.49,56.15l0 -0.01c-6.7,15.51 -13.2,31.87 -17.05,49.04 -32.6,47.73 -51.4,75.7 -82.94,127.04zm-159.44 322.75c-24.47,40.94 -67.17,50.53 -98.58,97.57 -3.82,5.72 -7,10.02 -9.58,13.45 -15.74,-24.53 -31.83,-48.51 -47.49,-71.08 4.27,-3.55 8.57,-7.13 12.94,-10.75 67.69,-56.21 142.91,-112.7 212.9,-172.51 -18.52,49.56 -42.57,97.09 -70.19,143.32zm-1700.54 -1996.01l1.25 -7.78c-0.43,2.65 -0.29,5.63 -1.25,7.78zm2296.56 1878.09c-69.06,65.4 -198.51,146.67 -284.33,185.46 -57.81,26.13 -116.72,49.3 -177.59,63.97 -5.66,-8.94 -13,-14.63 -24.46,-19.76 -20.57,-8.68 -39.94,-3.19 -60,4.97 -26.26,10.67 -50.27,17.04 -71.52,30.01l-30.18 -1.33c-4.5,4.55 -15.13,-33.51 -37.56,-14.5 2.51,1.44 10.02,5.13 7.56,9.08 -1.56,2.5 -2.47,5.29 -2.8,8.22 -3.67,-6.01 -7.39,-12.02 -11.15,-18.02 3.06,-3.59 5.91,-8.42 8.76,-12.69 29.48,-44.05 45.36,-45.08 78.73,-72.44 36.72,-30.11 85.38,-131.1 103.34,-176.23 6.67,-16.74 12.24,-32.95 16.95,-48.75 34,-30.91 66.01,-62.83 94.38,-96.13l-1.74 -1.59c-27.02,26.83 -56.44,52.55 -86.96,77.29 4.02,-15.51 7.28,-30.65 10,-45.55 2.9,-4.41 5.5,-8.37 7.55,-11.53 31.19,-47.68 67.62,-91.56 101.17,-137.55 38.82,-53.2 78.87,-105.34 119.24,-157.38l-0.01 -0.01 3.79 -4.98c33.41,-45.05 67.55,-105.94 99.29,-171.28 6.87,-0.17 13.6,-0.17 20.09,0.06 51.87,1.85 63.32,11.49 118.42,4.44l-9.21 -13.16c-22.71,-31.96 -57.71,-54.49 -91.61,-73.33 31.53,-72.34 58.8,-144.44 77.87,-202.05 26.27,-79.39 43.61,-142.7 51.94,-225.9 13.73,-136.97 20.06,-274.16 13.07,-411.8 -6.73,-132.32 -32.88,-344.85 -89.51,-473.34 -9.22,-20.93 -74.93,-146.35 -72.85,-153.45l-2.19 0.88c5.73,3.28 71.19,179.74 78.53,201.32 26.55,78.05 43.96,167.59 54.61,257.68 -3.37,11.6 -6.96,26.07 -10.73,43.11 -5.16,-24.3 -9.47,-48.06 -14.36,-74.41 -2.09,-11.24 -23.86,-102.15 -21.35,-105.52l-2.32 0.41 1.76 3 6.63 38.81c7.36,47.06 20.28,111.72 24.5,161.95 -0.5,2.45 -1,4.92 -1.5,7.46l-232.32 873.32c-51.3,-15.38 -103.23,-24.55 -156.83,-29.7 5.47,-4.02 10.64,-7.83 15.28,-11.28 2.06,-1.53 4.02,-3 5.86,-4.37 6.44,-4.83 11.35,-8.62 13.93,-10.78 13.22,-11.08 22.56,-19.66 29.81,-26.59 1.21,-1.16 2.36,-2.26 3.46,-3.33 1.1,-1.06 2.15,-2.09 3.16,-3.08 2.1,-2.04 4.02,-4.05 5.82,-6.02 1.8,-1.98 3.46,-3.92 5.03,-5.84 9.4,-11.52 15.29,-22.15 24.95,-33.47 3.59,-4.2 5.36,-6.24 5.73,-6.69 0.73,-0.91 -4.13,4.54 -11.28,11.77 -0.72,0.72 -1.45,1.46 -2.21,2.21 -12.68,12.62 -43.69,35.94 -46.92,37.6 -16.75,8.64 -41.32,28.31 -65.11,28.4 -0.84,0.01 -1.59,-0.09 -2.27,-0.26l-2.15 -15.59c16.23,-10.58 27.73,-20.55 44.81,-35.96l-5.92 -6.83 5.93 6.83c48.69,-42.5 134.77,-144.47 168.99,-197.11 21.42,-32.96 65.36,-116.09 77,-153.82 23.24,-75.33 51.94,-233.54 36.26,-308.8 3.31,22.71 2.62,45.57 0.65,68.38 -4.3,49.94 -32.22,204.04 -52.01,248.22 -29.89,66.73 -63.19,131.74 -109.5,188.76 -53.24,65.55 -65.44,81.43 -124.1,132.74 -10.59,3.94 -21.99,8.91 -31.1,13.39 -3.59,1.77 -6.84,3.46 -9.53,4.97 -8.11,4.57 -22.13,12.19 -30.67,12.13 -1.07,-0.01 -2.05,-0.13 -2.93,-0.4 -2.18,-0.67 -3.69,-2.22 -4.19,-4.97 -0.19,-1.11 -0.23,-2.4 -0.08,-3.91 0.16,-1.51 0.49,-3.23 1.04,-5.19 1.36,-4.89 4.02,-11.26 8.33,-19.41 4.79,-9.08 6.67,-12.65 6.66,-12.78 0,-0.23 -5.78,10.09 -11.83,19.97 -2.59,4.23 -5.24,8.38 -7.5,11.59 -1.5,2.14 -2.84,3.85 -3.88,4.89 -0.22,0.22 -0.54,0.58 -0.94,1.05 -4.02,4.74 -16.37,21.14 -25.97,33.34 -1.92,2.44 -3.73,4.71 -5.34,6.69 -2.42,2.96 -4.39,5.26 -5.62,6.47 -1.88,1.85 -4.08,3.78 -6.5,5.76 -2.42,1.98 -5.07,4 -7.82,6.02 -1.38,1.02 -2.79,2.03 -4.21,3.03 -8.34,5.91 -17.17,11.62 -23.87,16.05 -43.45,-1.18 -86.79,-4.05 -130.24,-5.68 12.06,-43.61 19.43,-87.32 34.01,-121.5 40.99,-96.08 123.34,-71.18 166.35,-79.13 4.78,-0.89 16.95,-4.95 19.59,-9.15l2.19 -12.4 -5.85 -8.64c-15.31,-15.61 -73.24,-28.06 -105.25,-33.55 27.43,-21.1 61.2,-49.06 77.43,-73.06 32.35,-47.85 23.34,-130.79 19.3,-186.48 -3.21,-44.11 17.72,-67.46 40.04,-105.45 25.44,-43.27 40.9,-68.5 82.26,-101.5 51.23,-40.87 82.65,-46.12 139.01,-64.16 9.91,-3.17 22.31,-9.67 17.43,-22.53 -2.59,-6.8 -11.72,-9.74 -17.98,-11.28 -124.49,-30.56 -265.96,-12.93 -386.33,27.37 -0.09,0.03 -0.18,0.06 -0.27,0.09 1.79,-6.66 1.69,-13.69 0.95,-21.01l-7.1 -46.58c-25.41,-119.97 -87.7,-124.04 -124.43,-157.98 -31.62,-29.22 -18.61,-83.5 -9.47,-119.64 11.66,-46.1 15.63,-53.22 36.9,-89.61 11.42,-19.55 34.77,-51.17 8.87,-59.42 -56.01,-17.86 -159.17,85.93 -207.94,142.08 -51.14,7.14 -92.9,36.38 -129.16,73.18 -37.27,38.87 -66.65,83.72 -76.98,136.91 -6.72,-0.37 -13.41,-0.65 -20.07,-0.84 29.38,-74.45 11.28,-191.1 -28.64,-256.14 -42.78,-65.58 -103.48,-144.9 -165.68,-204.61l9.46 -3.16c45.95,-10.78 172.14,-15.21 216.48,-7.31 34.88,6.21 60.52,21.77 39.35,59.82 5.25,-5.58 9.23,-11.25 11.78,-18.56 21.38,-61.36 -96.79,-70.04 -132.61,-71.14 -32.5,-1 -142.83,-0.48 -165.81,20.7 -7.89,-6.93 -15.77,-13.48 -23.62,-19.6 -5.24,-39.17 -14.12,-78.23 -27.74,-117.6 -15.67,-45.28 -72.16,-164.01 -103.28,-194.64 -13.48,-13.28 -19.75,-7.6 -29.69,-1.94l2.74 14.38c17.66,64.16 22.05,64.88 11.87,134.12 -4.54,30.83 -18.87,45.4 -43.44,62.85 -52.09,37.01 -111.8,66.69 -161.68,110.85 -57.34,50.77 -62.59,113.53 -110.08,148.36 -37.99,27.86 -205.59,52.04 -258.34,58.65l0.25 1.85c-21.04,-18.29 -44.03,-34.44 -65.79,-51.85 -4.91,-3.93 -9.48,-7.91 -13.8,-11.92 84.9,-168.51 194.19,-337.85 276.11,-443.45 77.47,-97.12 220.43,-236.81 316.83,-310.28l321.55 -244.33c9.1,-2.71 19.13,-5.48 29.1,-7.67 2.57,-0.56 5.13,-1.09 7.67,-1.57 8.9,-1.67 17.53,-2.74 25.13,-2.74 -0.31,-3.6 4.46,-13.65 10.41,-25.25 1.99,-3.87 4.11,-7.9 6.21,-11.93 1.05,-2.02 2.1,-4.03 3.13,-6.01 0.51,-1 1.02,-1.98 1.52,-2.96 1,-1.96 1.97,-3.88 2.9,-5.74 0.41,-0.83 0.81,-1.65 1.21,-2.45l13.03 -9.91 -6.36 -9.15 6.37 9.15c108.91,-76.5 249.21,-124.24 383.01,-117.23l0.24 -2.36c-136.46,-16.15 -281.95,26.65 -395.98,101.28l0 0 -6.43 4.54c-68.01,48.49 -136.86,98.37 -205.43,148.6 -1.07,0.6 -2.14,1.2 -3.2,1.81 -0.22,0.12 -0.44,0.25 -0.66,0.37 -3.77,2.13 -7.53,4.27 -11.29,6.4 -1.27,0.72 -2.54,1.44 -3.81,2.16 -1.27,0.72 -2.55,1.44 -3.82,2.16 -5.18,2.94 -10.32,5.85 -15.37,8.71 -0.88,0.5 -1.75,1 -2.62,1.49 -2.05,1.16 -4.08,2.31 -6.09,3.45 -1,0.57 -2,1.14 -2.99,1.7 -1.89,1.07 -3.77,2.14 -5.63,3.2 -0.71,0.4 -1.42,0.8 -2.12,1.2 -1.99,1.13 -3.96,2.25 -5.9,3.36 -0.54,0.3 -1.09,0.62 -1.63,0.92 -2.35,1.34 -4.66,2.65 -6.93,3.95 -0.25,0.14 -0.5,0.29 -0.75,0.43 -2.17,1.23 -4.29,2.44 -6.36,3.63 -0.53,0.3 -1.06,0.6 -1.59,0.9 -2.02,1.16 -3.99,2.29 -5.91,3.39 -0.35,0.2 -0.69,0.39 -1.04,0.59 -2,1.15 -3.95,2.27 -5.82,3.35 -0.23,0.13 -0.45,0.26 -0.68,0.39 -1.72,0.99 -3.37,1.95 -4.98,2.87 -0.29,0.17 -0.6,0.35 -0.89,0.52 -1.68,0.97 -3.28,1.9 -4.81,2.79 -0.27,0.15 -0.53,0.31 -0.79,0.46 -1.51,0.88 -2.95,1.72 -4.31,2.52 -0.22,0.13 -0.44,0.26 -0.66,0.39 -1.34,0.78 -2.61,1.54 -3.78,2.23 -0.16,0.1 -0.31,0.19 -0.46,0.28 -1.2,0.71 -2.32,1.39 -3.32,1.99 -4.82,2.93 -9.43,5.76 -13.96,8.55 -3.27,2.01 -6.47,3.99 -9.61,5.94 -22.56,14.04 -41.53,26.38 -58.38,37.84 -11.28,7.67 -21.63,14.97 -31.48,22.12 -5.77,4.19 -11.39,8.34 -16.91,12.49 -28.86,21.68 -55.66,43.52 -93.36,72.8 -4.96,3.85 -16.41,9.53 -26.68,16.65 -7.99,5.54 -15.26,11.94 -18.2,19.02 -0.37,0.9 -0.72,1.92 -1.03,3.02 -0.63,2.21 -1.14,4.81 -1.58,7.71 -0.22,1.44 -0.42,2.96 -0.6,4.55 -0.37,3.16 -0.67,6.58 -0.94,10.15 -0.13,1.79 -0.26,3.61 -0.38,5.47 -0.45,6.92 -0.85,14.23 -1.39,21.35 -42.57,41.52 -82.7,83.76 -116.47,122.93 -76,88.19 -163.98,219.35 -239.52,358.44 -0.41,0.11 -0.8,0.2 -1.22,0.31 -2.67,0.67 -5.47,1.39 -8.37,2.14 -3.97,1.03 -8.11,2.14 -12.3,3.27 -0.84,0.23 -1.68,0.45 -2.52,0.68 -2.23,0.61 -4.47,1.23 -6.71,1.86 -2.42,0.67 -4.83,1.35 -7.22,2.04 -2.15,0.62 -4.28,1.23 -6.36,1.86 -2.37,0.7 -4.67,1.39 -6.91,2.07 -1.68,0.52 -3.31,1.03 -4.89,1.54 -1.5,0.48 -2.96,0.95 -4.35,1.42 -0.8,0.26 -1.57,0.52 -2.33,0.78 -2.69,0.92 -5.12,1.79 -7.23,2.62 -1.31,0.51 -2.52,1 -3.56,1.47 -3.6,1.6 -5.52,2.9 -5.07,3.74 0,0 0,0.01 0,0.01 7.53,14.07 5.14,43.05 0.25,73.55 -19.62,-28.58 -29.88,-53.94 -42.03,-66.34 -6.37,-6.51 -15.02,-4.88 -19.18,-1.24 -3.24,2.83 -4.29,8.95 -3.61,13.89 0.1,0.75 0.26,1.56 0.38,2.34l22.96 -4.3 -22.96 4.29c5.11,31.64 29.04,81.78 50.15,132.97 -0.36,3.92 -0.7,8.29 -0.91,12.64 -21.93,51.74 -40.6,102.34 -54.7,150 -10.97,-5.91 -21.19,-10.34 -30.16,-12.56l-2.29 10.51 2.28 -10.51 -5.55 -1.08 0 0.01c-19.25,-2.66 -28.41,10.7 -14.89,24.89 18.38,19.3 28.34,23.04 37.79,36.49 -3.95,16.54 -7.26,32.63 -9.83,48.15 -8.55,51.57 -10.22,91.61 0.24,142.44 -3.56,-33.57 -3.36,-54.89 1.61,-88.81 3.78,-25.75 10.01,-53.41 18.28,-82.48 2.18,5.09 4.46,11.02 6.93,18.1 21.36,61.26 20.47,79.11 -9.35,136.55 -5.87,11.31 -11.89,24.24 -17.87,38.03l-0.1 -5.46c-2.87,-16.08 -7.11,-31.92 -13.13,-47.12 -27.28,-68.77 -93.63,-122.18 -155.52,-159.51 -17.56,-10.6 -105.49,-53.92 -123.72,-60.62 -15.96,-5.86 -36.11,-4.37 -32.68,18.21 1.16,7.62 28.51,71.12 35.53,94.03 32.01,104.39 -37.94,211.61 -139.66,239.95 -8.79,2.45 -17.25,4.52 -25.41,6.26 -4.38,-31.54 -5.64,-107.84 -6.2,-140.98l0.2 -50.04c1.96,-84.44 20.68,-280.58 59.7,-357.16 48.33,-94.85 126.46,-199.71 207.25,-269.44 76.23,-65.79 125.24,-85.41 214.06,-113.36l-46.95 10.01c-178,43.02 -312.56,205.18 -394.38,360.86 -15.75,29.96 -28.23,77.92 -37.53,128.65 -0.12,0.22 -0.24,0.44 -0.36,0.67 -0.43,0.78 -0.87,1.57 -1.31,2.37 -0.36,0.64 -0.72,1.28 -1.08,1.93 -0.48,0.84 -0.98,1.71 -1.47,2.57 -0.35,0.61 -0.7,1.21 -1.05,1.83 -0.55,0.93 -1.1,1.88 -1.66,2.83 -0.33,0.56 -0.65,1.11 -0.98,1.67 -0.68,1.15 -1.37,2.3 -2.06,3.45 -0.23,0.37 -0.44,0.74 -0.67,1.11 -0.91,1.52 -1.84,3.04 -2.78,4.57 -0.35,0.57 -0.7,1.13 -1.05,1.7 -0.6,0.98 -1.21,1.97 -1.83,2.95 -0.39,0.63 -0.79,1.26 -1.18,1.89 -0.58,0.92 -1.15,1.83 -1.72,2.75 -0.42,0.65 -0.84,1.31 -1.26,1.97 -0.56,0.88 -1.12,1.77 -1.69,2.65 -0.43,0.67 -0.87,1.35 -1.3,2.03 -0.54,0.84 -1.08,1.68 -1.62,2.51 -0.45,0.69 -0.89,1.38 -1.34,2.07 -0.54,0.83 -1.08,1.66 -1.62,2.48 -0.41,0.63 -0.83,1.27 -1.24,1.89 -0.56,0.86 -1.13,1.72 -1.68,2.56 -0.42,0.63 -0.83,1.25 -1.24,1.87 -0.53,0.8 -1.06,1.6 -1.58,2.38 -0.43,0.65 -0.86,1.29 -1.29,1.93 -0.51,0.76 -1.03,1.53 -1.53,2.29 -0.42,0.61 -0.83,1.23 -1.24,1.85 -0.5,0.72 -0.99,1.45 -1.47,2.17 -0.4,0.59 -0.8,1.17 -1.2,1.76 -0.5,0.74 -0.99,1.46 -1.48,2.18 -0.36,0.51 -0.71,1.03 -1.05,1.54 -0.52,0.75 -1.02,1.48 -1.52,2.21 -0.32,0.45 -0.63,0.91 -0.94,1.36 -0.49,0.71 -0.97,1.41 -1.45,2.1 -0.3,0.43 -0.6,0.86 -0.89,1.28 -0.45,0.65 -0.88,1.27 -1.32,1.89 -0.29,0.42 -0.59,0.85 -0.87,1.25 -0.42,0.6 -0.82,1.18 -1.22,1.74 -0.26,0.37 -0.52,0.74 -0.77,1.1 -0.43,0.61 -0.84,1.19 -1.24,1.76 -0.18,0.25 -0.37,0.52 -0.55,0.76 -0.44,0.63 -0.85,1.21 -1.26,1.77 -0.12,0.16 -0.24,0.35 -0.35,0.5 -0.49,0.68 -0.94,1.31 -1.36,1.88 -0.01,0.01 -0.02,0.03 -0.03,0.05 -0.43,0.6 -0.82,1.13 -1.17,1.61 -5.72,7.76 -14.42,16.78 -20.82,26.94 -1.63,2.58 -1.98,4.32 -2.02,6.3 -0.04,1.98 0.23,4.2 -0.14,7.75 -0.97,9.35 -1.47,18.93 -1.73,28.76 -0.12,4.91 -0.19,9.89 -0.23,14.93 -0.03,5.05 -0.03,10.16 -0.03,15.35l0 0c0,7.11 0.4,20.46 0.88,34.65 0.06,2.03 0.14,4.07 0.21,6.12 0.14,4.09 0.28,8.19 0.41,12.17 0.07,1.99 0.14,3.95 0.2,5.86 0.32,9.57 0.59,18 0.67,23.31 0.12,7.8 -0.1,14.95 0.12,10.82 0.03,-0.45 0.06,-1.05 0.1,-1.8 0.05,-1.13 0.12,-2.6 0.21,-4.47 0.09,-1.87 0.19,-4.14 0.32,-6.85 0.25,-5.42 0.6,-12.62 1.05,-21.99 0.35,-7.14 1.35,-13.14 2.55,-18.35 1.69,-7.35 3.77,-13.13 5.07,-18.39 0.24,-0.96 0.47,-1.91 0.65,-2.84 0.81,-4.27 1.66,-8.08 2.67,-11.84 2.31,-8.63 5.52,-17.01 11.25,-29.89 2.46,-5.54 5.38,-11.89 8.92,-19.5 0.33,-0.72 0.73,-1.55 1.19,-2.47 1.39,-2.78 3.32,-6.43 5.64,-10.51 1.54,-2.72 3.25,-5.62 5.07,-8.58 1.82,-2.95 3.76,-5.96 5.76,-8.89 4,-5.85 8.24,-11.36 12.31,-15.46 1.23,-1.24 2.43,-2.3 3.62,-3.25 -3.38,30.85 -5.46,58.78 -6.29,79.76 -2.49,63.17 3.17,189.98 19.93,254.97 -118.69,23.81 -173.49,-24.51 -266.06,-26.13l0 0.84c-37.62,-15.8 -77.07,-27.39 -118.43,-33.46 -21.41,-3.14 -124.38,-10.1 -134.59,11.72 -7.1,15.18 13.31,22.28 23.89,25.82 54.25,18.13 40.4,9.31 94.02,40.18 209.62,120.68 301.78,312.71 284.44,554.34 -0.51,7.09 -1.29,13.96 -2.27,20.7 -6.43,4.16 -13.08,8.49 -19.26,12.6 -6.92,4.61 -13.23,8.94 -17.94,12.44 -4.71,3.5 -7.82,6.17 -8.34,7.45 -1.2,2.97 -5.4,14.33 2.79,16.87 0.25,0.07 0.52,0.12 0.81,0.13 0.3,0.03 0.61,0.02 0.95,-0.01 0.33,-0.04 0.69,-0.08 1.06,-0.15 3.34,-0.62 8.01,-2.63 11.78,-2.69 0.84,-0.01 1.63,0.08 2.35,0.29 0.73,0.22 1.38,0.57 1.95,1.09 2.77,2.57 2.42,8.54 0.03,17.17 -0.69,2.47 -1.54,5.15 -2.53,8.03 -1.48,4.33 -3.28,9.12 -5.31,14.3 -2.71,6.9 -5.82,14.51 -9.14,22.7 -0.59,1.47 -1.31,3.45 -2.12,5.84 -2.72,7.96 -6.49,20.52 -10.35,34.09 -0.77,2.72 -1.54,5.47 -2.31,8.24 -2.32,8.3 -4.58,16.72 -6.6,24.48 -3.69,14.22 -6.53,26.23 -7.21,31.29 -2.24,16.76 0.05,30.96 4.13,43.52 -0.12,0.28 -0.24,0.61 -0.36,0.89 -27.66,64.8 -4.67,65.52 -3.43,118.14 0,0.03 0,0.05 0.01,0.08 -1.52,4.86 -3.09,10 -4.71,15.4 -3.01,10.03 -6.18,20.87 -9.41,32.05 -3.22,11.18 -6.51,22.7 -9.74,34.1 -1.61,5.69 -3.21,11.36 -4.79,16.93 -1.57,5.57 -3.12,11.05 -4.62,16.38 -4.52,15.99 -8.68,30.62 -12.1,42.29 -1.71,5.84 -3.24,10.94 -4.54,15.1 -1.41,4.49 -3.35,9.11 -5.62,13.74 -4.54,9.26 -10.41,18.52 -15.96,26.66 -2.78,4.07 -5.47,7.86 -7.88,11.23 -1.29,1.8 -2.55,3.48 -3.75,5 -0.39,0.51 -0.79,1.01 -1.17,1.48 -1.52,1.91 -2.9,3.55 -4.01,4.88 -4.45,5.32 -4.68,5.61 6.6,-2.13 2.82,-1.94 6.36,-4.38 10.73,-7.37 1.09,-0.75 2.24,-1.53 3.44,-2.35 3.6,-2.45 7.68,-5.21 12.29,-8.32 7.07,-4.74 13.43,-7.44 19.08,-8.52 0.94,-0.19 1.86,-0.32 2.76,-0.42 0.9,-0.09 1.79,-0.14 2.65,-0.15 0.86,-0.02 1.7,0.01 2.52,0.08 6.58,0.54 11.86,3.54 15.82,7.92 0.99,1.1 1.9,2.28 2.73,3.54 0.41,0.63 0.8,1.27 1.17,1.93 1.11,1.98 2.02,4.1 2.75,6.3 0.49,1.47 0.89,2.98 1.21,4.5 1.1,5.35 1.15,10.94 0.13,16.08 -0.36,1.8 -0.97,4.56 -1.94,7.61 -0.33,1.02 -0.69,2.07 -1.1,3.12 -1.64,4.23 -4,8.58 -7.32,11.45 -1.76,1.51 -4.04,1.97 -6.53,1.94 -1.67,-0.01 -3.43,-0.24 -5.2,-0.5 -2.65,-0.41 -5.32,-0.9 -7.71,-0.91 -9.56,-0.03 -7.34,13.01 -1.14,26.66 1.24,2.73 2.64,5.48 4.14,8.16 3,5.36 6.38,10.42 9.65,14.39 1.85,2.25 6.44,6.95 12.27,12.85 2.19,2.22 4.55,4.6 7.01,7.09 1.64,1.65 3.33,3.35 5.03,5.08 0.85,0.87 1.71,1.74 2.57,2.61 3.43,3.5 6.9,7.06 10.22,10.53 1.66,1.74 3.28,3.45 4.84,5.12 1.54,1.65 3.02,3.26 4.42,4.81 8.6,39.83 20.53,81.24 37.18,125.97 59.54,159.9 216.52,284.28 372.29,343.85 76.34,29.19 108.64,45.65 192.31,55.26 28.05,3.22 59.85,6.8 79.62,-16.77 8.05,5.3 15.63,10.33 22.42,15.05 92.28,64.14 138.79,98.93 178.46,208.24 25.49,70.23 28.38,94.43 11.26,167.61 -21.99,94.01 -20.57,82.01 -36.34,190.66 19.85,-30.13 42.79,-61 59.27,-93.35 29.26,-57.41 52.11,-135.53 65.12,-214.8 34.5,-24.2 67.54,-50.16 99.11,-78.16 16.01,-14.2 33.71,-31.47 52.3,-48.8l4.22 3.5c37.99,29.26 136.49,32.26 183.81,33.81 38.15,0.8 73,0.12 111.1,-2.04 136.53,-7.77 213.71,-20.36 339.21,-77.13 26.83,-12.13 51.57,-24.25 74.77,-36.5 24.7,7.98 49.36,16 74.47,22.62 85.44,22.51 101.21,12.7 181.24,2.85 37.43,-4.61 65.58,14.45 90.4,40.6 43.55,45.87 74.49,94.49 97.41,153.33 7.81,20.04 6.86,18.14 24.25,20.41 3.8,-3.58 7.98,-6.37 9.29,-11.56 10.79,-42.91 -1.1,-120.04 -13.55,-161.61 -12.34,-41.18 -38.42,-93.41 -69.73,-147.15 3.55,2.08 7.58,3.8 12.08,4.97 16.67,4.08 34.54,4.48 51.6,3.87 82.17,-2.96 233.89,-59.75 306.26,-94.2 72.32,-34.44 184.73,-107.62 248.32,-156.94 47.71,-37 146.96,-134.04 164.55,-186.07 -17.03,35.27 -89.08,103.12 -119.84,132.26z"/>
   <path class="fil3" d="M2764.42 2871.24c13.93,-3.91 22.42,-2.84 29.08,-0.41 -16.88,3.09 -33.92,5.43 -51.14,6.96 5.03,-1.59 11.8,-3.66 22.06,-6.55m-175.69 149.33c-62.46,-57.68 -101.3,-35.68 -168.8,-29.89 -49.1,4.21 -97.25,-8.46 -144.08,-23.75 92.67,-53.96 162.76,-112.24 252.86,-187.2 21.65,34.59 42.45,69.72 62.32,105.35 50.06,89.71 93.42,168.7 95.65,273.4 -20.33,-44.24 -61.5,-104.24 -97.95,-137.91m-553.47 10.79c-94.32,29.29 -289.27,42.57 -385.67,29.48 -16.4,-2.22 -71.47,-12.98 -80.61,-30.91l22 -4c53.45,-8.06 101.84,-15.87 155.12,-26.15 17.61,-3.48 35.17,-7.24 52.65,-11.31 31.81,7.71 63.65,17.83 96.46,26.28 164.77,42.48 214.87,-21.8 270.23,-34.24 -42.3,19.79 -85.68,37.03 -130.18,50.85m-482.28 8.14l-28.12 24.96c9.2,-8.5 18.6,-16.93 28.12,-24.96m140.44 -62.45c-42.01,9.22 -80.67,20.96 -109.47,38.41 12.46,-8.7 24.93,-16.13 37.23,-21.41l15.62 -5.76c19.28,-6.42 38.1,-9.91 56.62,-11.24m336.41 -106.68l2.63 3.95 -2.63 -3.94c0,0 0,-0.01 0,-0.01m-659.35 312.81c10.75,-71.43 13.36,-142.95 5.27,-200.32l-2.34 0.22c1.15,89.14 -19.16,186.81 -45.15,271.83 2.05,-24.94 -2.56,-49.66 -8.86,-73.7 -21.27,-81.1 -53.63,-148.51 -117.63,-205.41 -63.23,-56.21 -148.45,-98.37 -200.26,-141.58 -25.98,-21.66 -28.39,-28.37 -40.26,-59.08 -27.69,-71.56 -80.37,-134.13 -161.43,-139.37l7.53 -5.67c101.08,-75.62 202.89,-152.6 279.66,-254.18 18.95,-25.08 55.76,-67.49 65.73,-102.11 15.41,22.38 23.01,49.63 12.77,72.44 -20.43,45.51 -73.46,29.15 -57.08,73.54 12.12,32.84 76.02,90.36 104.6,110.56l0.01 -0.01c19.45,13.38 40.75,22.68 62.88,30.65l3.87 -10.9 -3.86 10.9c46.37,16.43 63.33,15.18 111.52,38.76 39.7,19.44 45.1,21.53 70.73,53.65 16.74,20.98 31.92,17.37 36.31,-3.51 11.68,-55.55 -40.9,-234.18 -62,-303.19l8.27 5.24c30.8,18.58 119.32,24.09 158.76,31.41 18.29,3.39 35.98,6.54 53.29,9.02l-0.37 0.98c73.79,32.82 165.44,140.47 212.92,204.99 22.56,31.22 68.9,100.11 85.15,133.78l2.3 -0.52c-0.65,-17.58 -4.64,-33.57 -10.73,-50.01 -30.81,-83.17 -147.25,-224.38 -241.33,-284.36 37.4,1.83 73.84,-1.81 111.62,-15.85 66.48,13.4 125.18,30.83 185.39,63.48 39.52,22.03 73.01,47.09 110.51,71.89l1.68 -1.65c-54.15,-83.06 -166.66,-124.82 -263.18,-149.28 131.01,-68.34 180.37,-92.68 257.31,-168.49 70.47,-24.87 134.99,-65.73 216.58,-74.26 63.73,-5.54 133.19,-0.85 198.18,-1.6l0.33 -2.34c-61.21,-18.14 -126.93,-21.91 -190.39,-17.06 -74.74,5.71 -129.12,33.7 -187.42,56.89 11.45,-12.21 23.62,-25.49 36.82,-40.15 15.69,-17.43 30.11,-32.38 33.72,-45 7.15,2.67 13.78,5.18 19.18,7.43 33.5,14.01 47.69,24.31 60.31,1.64 24.34,-43.72 52.06,-81.28 92.43,-111.78 40.19,-30.37 114.02,-52.2 163.22,-60.38 67.93,-11.28 59.91,-0.06 113.87,6.32 11.84,1.4 22.54,-3.21 16.46,-13.99 -3.64,-6.47 -36.71,-26.41 -65.68,-43.66 1.76,-4.74 3.41,-9.51 4.98,-14.31 9.29,0.58 21.65,-0.3 25.49,-0.34 98.71,-1.04 179.71,-5.45 279.82,7.29 37.36,4.76 81.02,14.25 125.11,27.98l-35.15 132.16c-6.29,3 -12.4,6.2 -18.15,9.71 -52.09,31.76 -112.03,96.45 -140.26,150.52 -38.37,73.5 -43.6,203.9 -56.03,288.01 -2.84,19.17 -6.63,38 -11.23,56.52 -12.16,21.52 -21.61,40.9 -24,52.96 -13.65,10.33 -27.38,20.48 -41.09,30.45 -2.12,0.73 -4.25,1.43 -6.47,2.04 -3.78,1.04 -7.14,2.01 -10.3,2.88 -7.9,2.17 -14.61,3.71 -23.93,4.16 -1.87,0.1 -3.83,0.14 -5.93,0.14 -2.82,0 -4.35,-0.11 -5.48,-0.31 -0.75,-0.13 -1.32,-0.3 -1.97,-0.49 -0.65,-0.19 -1.37,-0.41 -2.44,-0.65 -0.52,-0.11 -1.14,-0.23 -1.87,-0.36 -4.71,-0.79 -7.86,-1.4 -10.06,-1.75 0,0 -0.13,-0.03 -0.13,-0.03 -4.59,-1.05 -4.65,-0.52 -4.65,2.05 0,0 0,0.49 0,0.49 0,0.45 -0.04,0.95 -0.04,1.5 0,0 -0.01,0.2 -0.01,0.2 0,0 -0.07,0.74 -0.07,0.74 0,0 -0.07,0.63 -0.07,0.63 0,0 -0.11,0.75 -0.11,0.75 0,0 -0.18,0.6 -0.18,0.92 0,0 -0.15,0.67 -0.15,0.67 -0.15,0.59 -0.31,1.19 -0.54,1.84 -0.35,1.06 -0.85,2.21 -1.38,3.38 -3.11,6.92 -8.94,15.51 -15.23,24.06 -3.08,4.19 -6.26,8.36 -9.27,12.3 -8.03,10.47 -12.07,18.46 -13.94,24.6 -0.32,1.08 -0.58,2.1 -0.79,3.06 -29.03,21.34 -56.7,42.19 -85.4,64.2 -17.3,-24.3 -33.65,-46.33 -47.8,-64.64 -20.82,-26.97 -29.49,-36.49 -48.22,-63.53l-1.97 1.29 15.43 25.14c25.76,35.33 50.42,71.46 74.1,108.24 -17.6,13.54 -35.66,27.58 -54.76,42.52 -72.46,56.67 -149.8,109.72 -231.63,153.75 -0.61,-0.21 -1.24,-0.42 -1.86,-0.63 -45.16,-15.05 -78.14,-5.18 -119.4,15.13 -88.67,43.67 -152.78,27.21 -232.06,4.5 62.86,-18.18 63.75,-23.87 124.92,-56.93l0 0c6.8,-3.82 13.01,-8.45 19.15,-13.2l0.59 0.02c0,0 0.08,-0.53 0.08,-0.53 6.85,-5.31 13.62,-10.73 21.02,-15.29l-0.01 0c17.95,-11.17 19.53,-18.26 48.28,-34.74 17.18,-9.84 41.29,-30.43 53.68,-37.63l-5.55 -9.46 5.55 9.45 8.75 -5.81c18.35,-13 41.84,-38.58 56.22,-55.4 27.68,-32.4 75.19,-88.55 90.85,-126.03l-15.27 18.62c-43.42,56.21 -57.18,76.67 -113.62,123.38 -29.27,24.22 -10.5,10.19 -38.02,26.33l-0.01 -0.01 -9.67 5.77 -33.81 19.82c-39.39,24.42 -33.83,26.65 -48.12,39.22 3.39,-5.74 6.39,-10.59 8.15,-13.28 8.27,-12.36 19.65,-26.44 30.4,-36.68 17.24,-16.42 28.94,-31.19 41.68,-43.19 -15.41,13.99 -31.02,21.33 -43.38,31.54 -23.36,19.32 -77.46,68.85 -82.81,100.39 -0.91,0.64 -1.8,1.3 -2.73,1.89l4.29 7.41 -4.3 -7.41 -39.81 22.09c-30.95,16.27 -78.01,25.99 -129.45,34.87 0,0 -0.69,-0.18 -0.69,-0.18 -78.06,-20.4 -159.24,-25.38 -232.55,14.57 -62.65,34.14 -160.56,147.52 -215.93,214.45m-419.28 -297.06c-47.14,-4.75 -90.99,-22.13 -135.71,-36.7 -153.1,-49.92 -308.29,-163.72 -367.76,-317.94 -28.91,-74.95 -43.71,-141.03 -51.55,-207.33l-8.39 -132.62c-0.83,-33.62 -1.15,-68.63 -1.69,-106.05 -0.3,-20.66 -1.64,-32.68 0.3,-44.84 29.32,100.38 91.35,191.56 167.49,262.53 59.97,55.9 104.14,76.36 179.96,103.52 57.81,20.71 94.81,37.41 148,0.87 24.62,-16.91 31.01,-64.9 37.85,-92.45 13.24,-53.35 26.91,-47.47 44.08,-60.38 2.57,30.94 17.96,60.15 46.11,75.6 38.13,20.92 33.84,-13.97 34.06,-29.98l-10.09 -0.15 10.09 0.14c0.56,-9.81 0.94,-19.69 2.96,-29.34 13.08,-62.65 67.81,-44.39 99.78,-5.27l-32.66 43.52c-70.11,99.2 -131.36,159.1 -228.07,233.89 -30.37,23.48 -102.17,72.19 -121,88.54 -4.63,4.02 -10.99,10.61 -9.39,17.44l5.88 9.1c3.06,2.36 8.59,2.32 12.28,2.38 53.51,1.02 92.12,15.87 125.12,60.72 22.29,30.3 27.02,50.53 39.94,84.01 11.79,30.55 45.55,59.37 80.96,84.59 -19.46,2.26 -54.77,-2.54 -68.55,-3.8m-788.59 -1807.7c-45.42,-26.05 -45.79,-26.16 -94.3,-40.68l39.4 -2.06c60.62,-1.1 120.45,13.27 176.35,36.96l0 1.17c1.02,0.03 2.04,0.1 3.05,0.14 29.29,12.62 57.5,27.74 84.11,44.62 76.1,48.25 203.36,165.59 266.19,233.37 4.4,4.75 9.45,10.07 14.83,15.73 -10.04,13.15 -20.22,26.82 -30.65,41.18 -37.09,51.03 -74.51,111.96 -109.14,175.8 -3.69,2.51 -7.42,5.33 -10.94,8.49 -3.6,3.23 -6.99,6.72 -10.15,10.29 -6.32,7.12 -11.72,14.55 -16.02,20.76 -1.44,2.08 -2.75,4.01 -3.93,5.77 -2.95,4.37 -5.1,7.57 -6.34,8.73 -0.19,0.18 -0.5,0.54 -0.86,0.97 0,0 -0.14,0.18 -0.22,0.27 -0.38,0.47 -0.83,1.04 -1.34,1.7 -0.45,0.57 -0.98,1.25 -1.52,1.93 -0.16,0.22 -0.33,0.43 -0.5,0.65 -0.54,0.69 -1.16,1.45 -1.78,2.22 0.15,-2.03 0.3,-4.03 0.42,-6.1 13.66,-245.71 -83.94,-439.93 -296.66,-561.91m188.27 5.8c92.26,23.26 138.71,33.96 235.35,9.53l10.35 -3.07c108.72,-35.29 180.85,-153.24 147.68,-265.22 -5.18,-17.49 -23.08,-61.64 -31.34,-82.49 4.64,2.04 9.17,4.55 13.23,6.5 37.81,18.23 76.81,34.72 112.35,57.21 74.62,47.2 132.5,94.18 162.83,179.82l2.94 15.44c-5.36,12.82 -10.64,26.18 -15.73,39.56 -21.1,17.09 -41.49,33.67 -60.84,49.24 -14.06,11.32 -27.47,22.3 -40.37,33.07 -15.14,-11.31 -34.28,-24.64 -41.09,-23.66 -13.82,1.97 -4.25,18.85 -0.98,25.61 3.24,6.7 6.56,15.45 9.84,25.48 -22.17,19.26 -42.82,38.11 -62.53,57.18 -11.51,-24.81 -26.43,-49.75 -44.95,-75.58l-1.99 1.26c14.42,26.85 27.7,54.36 38.43,82.63 -42.88,42.25 -81.65,86.18 -122.55,138.88 -60.33,-65.92 -125.2,-127.93 -193.08,-186.06 -37.65,-32.24 -77.78,-61.66 -120.48,-86.05 0.97,0.24 1.95,0.47 2.93,0.72m720.51 -214.25c-3,-29.31 -14.93,-72.94 -33.14,-101.3 0.68,-2.15 1.36,-4.29 2.07,-6.45 26.09,16.38 50.78,35.15 74.42,54.81 29.6,24.62 55.88,44.27 80.96,65.15 -59.82,41.78 -120.48,89.46 -177.07,135 21.2,-55.12 58.01,-95.8 52.76,-147.21m30.98 -263.66c11.11,30.7 19.19,60.17 19.34,84.48 0.24,39.99 2.31,80.21 17.13,117.11 -28.6,-23.27 -61.54,-49.43 -91.03,-67.76 15.03,-42.92 33.57,-87.97 54.56,-133.83m-6.2 -88.14c-0.45,2.36 -0.9,4.7 -1.35,7 -2.71,-6.48 -5.37,-12.86 -7.9,-19.06 2.98,4.22 6.09,8.2 9.25,12.06m110.32 88.21c4.96,3.41 10.14,7.38 15.44,11.69l0.19 1.34c0.4,-0.06 0.83,-0.13 1.25,-0.19 24.81,20.33 52.55,48.17 77.04,65.9l1.51 -1.82c-16.09,-16.59 -41.29,-46.95 -59.55,-66.71 -0.09,-0.1 -0.19,-0.19 -0.29,-0.29 67.72,-10.84 173.6,-30.56 226.17,-51.75 50.57,-23.43 70.45,-75.98 97.3,-120.95 29.14,-48.8 87.05,-82.83 133.94,-112.95 40.91,-26.29 102.53,-56.22 111.66,-107.19 8.14,-45.45 10.41,-77.23 -2.1,-121.97 19.54,30.4 36.34,62.59 52.42,94.92 31.29,62.96 49.57,120.09 59.56,178.36 -1.63,2.78 -1.52,6.62 1.6,9.77 9.59,61.8 10.18,125.3 7.31,198.75 -1.21,30.97 -8.97,42.29 -10.17,60.27l2.36 0.18c2.42,-15.68 11.23,-30.05 13.21,-45.82 8.54,-67.9 11.74,-133.4 5.34,-198.39 64.63,56.99 136.93,161.71 181.54,230.13 39.84,61.1 59.47,178.95 29.38,247.01 -10.59,0.09 -20.98,0.5 -31.16,1.17 -0.96,-4.21 -2.7,-8.48 -3.87,-12.32 -7.52,-24.63 -53.32,-69.04 -73.54,-84.28 -48.03,-36.2 -68.52,-37.13 -115.55,-58.03 -25.45,-11.32 -42.68,-16.28 -49.99,-39.8 -5.32,-17.14 -19.42,-70.44 -38.44,-75.3 -26.27,-6.71 -9.93,69.06 -13.32,94.13 -8.32,61.58 -102.54,54.3 -134.22,92.53 -22.01,26.56 -45.65,52.35 -71.34,75.6 8.38,-38.76 -8.39,-105.44 -17.44,-135.82 -11.46,-37.1 -27.65,-81.82 -61.05,-104.73l-1.85 1.48 21.82 68.37c7.84,23.96 44.26,144.18 49.91,178.33 -2.83,2.44 -5.65,4.9 -8.53,7.29 -32.89,27.21 -92.3,43.85 -130.36,68.12 -33.98,21.67 -101.02,41.87 -143.28,44.42 -28.88,-44.46 -63.63,-83.7 -103.23,-118.86 6.04,-4.45 11.97,-8.77 17.85,-13.02 9.54,-1.27 24.83,-9.72 46.59,-20.7 23.89,-12.05 40.42,-16.54 49.63,-19.48 21.92,-7 36.59,-8.83 50.67,-13.82 9.73,-3.45 22.63,-6.68 30.95,-5.84 5.6,0.56 8.46,3.78 8.06,0.98 -0.16,-1.13 -2.35,-1.83 -3.14,-3.8 -2.03,-5.07 -2.52,-9.27 -2.13,-10.53 1.37,-4.42 0.37,-4.79 3.46,-14.7 3.91,-12.6 10.14,-24.35 12.19,-27.65 5.2,-8.34 3.99,-19.35 -3.17,-21.84 -12.14,-4.22 -24.9,5.6 -39.18,16.85 -13.61,10.72 -39.37,25.1 -52.96,35.38 -12.9,9.77 -95.05,62.27 -105.92,72.12 -8.07,5.24 -16.18,10.63 -24.31,16.15 -9.45,-8.03 -19.14,-15.87 -29.1,-23.48 -10.4,-7.95 -23.32,-18.54 -37.63,-30.21 -12.22,-39.68 -11.29,-82.75 -8.27,-123.81 1.67,-36.95 -9.63,-76.44 -23.85,-114.25 4.18,-8.77 8.44,-17.56 12.76,-26.35 23.38,19.76 49.62,36.05 77.83,55.41m1155.06 304.79c26.83,4.37 73.51,-14.5 81.46,-7.36 -7.57,8.99 -31.1,18.87 -42.12,25.98 -21.9,14.12 -31.78,36.32 -40.54,60.15 -21.9,59.51 -23.59,116.02 -0.74,175.16 8.78,22.72 22.92,34.5 23.16,45.87 0.82,38.36 -17.03,91.85 -31.7,126.73 -26.09,62.02 -38.94,88.91 -90.32,135.11 -7.87,7.06 -47.68,38.41 -62.89,61.76 -16.64,-10.05 -34.18,-19.12 -52.61,-27.62 -32.91,-14.43 -65.97,-25.7 -99.03,-33.55 26.7,-18.78 53.23,-37.74 78.53,-58.45l28.01 -26.94c16.58,-18.71 26.92,-34.38 34.62,-50.58l37.33 0.39c25.45,-0.18 61.71,1.68 81.41,-10.01l0.08 -2.36c-12.74,-8.41 -26.36,-8.49 -40.96,-8.1 -13.08,0.39 -48.78,1.88 -72.61,8.01 6.42,-16.25 11.14,-33.85 17.41,-56.12 17.62,-62.54 -28.39,-46.99 -70.07,-38.46 -10.26,2.1 -18.31,4.37 -24.67,6.74l-3.41 -9.5 -11.21 4.48 11.2 -4.49c-6.3,-14.43 -13.66,-26.84 -21.82,-37.74l3 -8.31c19.17,-59.2 18.6,-87.78 71.32,-139.39 39.9,-37.48 96.42,-68.43 143.27,-97.86l-0.93 -2.17c-64.78,17.19 -128.95,51.24 -173.53,102.21 -42.97,49.13 -44.03,83.53 -56.86,129.27 -44.17,-46.68 -104.7,-63.65 -151.68,-113.9 -14.42,-15.42 -25.42,-37.07 -39.25,-50.77 43.91,-39.67 93.05,-79.15 147.22,-102.63 36.98,-16.03 87.39,-20.49 139.87,-18.99l0.14 0.07c0,0 0.04,-0.07 0.04,-0.07 67.61,1.94 138.64,13.75 188.88,23.44m81.83 -7.03l0.05 -0.05 0.1 0.22 -0.15 -0.17m-52.99 -220.85c-1.54,1.88 -3.01,3.68 -4.31,5.31 -56.85,71.41 -67,103.06 -84.82,185.06l2.27 0.79 21.94 -47.15c21.64,-48.93 41.13,-75.26 75.37,-117.08 33.91,-41.41 139.7,-157.55 194.25,-161.64l-28.95 52.29c-16.33,30.69 -29.65,90.94 -32.08,124.76 -4.69,65.11 19.09,81.72 64.82,109.53 56.63,34.45 75.58,76.97 85.7,142.14 2.35,15.1 1.5,32.92 9.03,46.81 -102.39,35.92 -195.76,89.31 -269.95,169.65l1.73 1.61 14.35 -13.87c146.54,-135.4 420.82,-209.36 617.13,-171.39 -85.48,25.1 -154.03,73.08 -199.03,151.43 -23.73,41.32 -55.23,81.4 -53.94,127.27 1.44,50.84 14.37,127.62 -9.75,173.75 -11.44,21.86 -43.96,54.6 -69.94,92.59 -1.05,-0.15 -2.06,-0.3 -2.98,-0.44 -143.51,-20.47 -300.19,-3.29 -439.27,49.88 -21.95,-25.49 -46.54,-46 -73.68,-63.51 16.48,-22.29 76.89,-71.45 97.76,-95.46 2.06,-2.37 4.07,-4.87 6.05,-7.41 36.62,-17.42 97.64,-40.71 129.61,-49.27 30.35,-7.71 61.81,-12.33 92.98,-19.68l0.12 -2.36 -3.11 -1.01c-57.67,-17.75 -150.87,13.44 -205.9,52.59 11.88,-19.01 22.18,-40.5 31.07,-61.32 43.72,-34.71 145.31,-53.04 191.18,-60.77l140.92 -21.37 0 -2.36 -3.07 -0.48c-71.89,-10.61 -255.96,13.5 -323.3,71.18 2.29,-5.64 4.49,-11.18 6.57,-16.53 9.55,-24.61 32.71,-99.55 24.83,-124.74 -5.08,-16.24 -14.84,-16.7 -28.26,-57.38 -19.42,-58.91 -8.57,-134.82 24.1,-187.34 15.01,-24.13 71.07,-37.07 65.4,-56.77 -7.22,-25.08 -63.03,3.28 -91.39,-1.22l-1.15 5.89 1.14 -5.89c-47.75,-8.99 -104.75,-17.85 -160.6,-21.28 51.8,-85.9 100.94,-148.14 187.16,-194.81m696.77 329.43l3.89 5.49 -4.91 -1.55 1.02 -3.94m-942.01 545.08c-77.64,-1.01 -121.37,59.15 -99.89,106.92 -34.15,-0.55 -129.1,-18.43 -165.84,-16.85 -108.96,4.67 -215.62,33.62 -281.03,122.63 -2.86,2.72 -5.4,5.25 -7.51,7.51 -3.34,3.58 -6.32,4.25 -7.92,5.13 -17.6,-24.61 -34.65,-50.59 -52.61,-75.88 2.42,-0.87 4.67,-2.11 6.23,-3.41 33.66,-28.24 76.82,-67.69 111.41,-97.9 4.42,-3.87 8.87,-7.63 13.33,-11.33 4.26,8.11 7.51,19.28 11.22,27.95 6.86,15.6 15.59,29.99 33.82,33.18l1.33 -1.95 -7.64 -14.43c-9.51,-18.24 -17.1,-42.92 -29.54,-52.25 26.99,-21.57 54.72,-40.11 83.65,-55.12 53.32,8.14 107.82,19.5 157.37,40.09 22.36,9.63 37.23,17.75 61.25,24.89l1.42 -1.89c-8.13,-12.37 -18.36,-21.15 -31.04,-28.69 -46.54,-27.64 -115.08,-42.34 -174.52,-41.56 56.18,-26.49 117.08,-39.82 186.05,-36.67 91.64,4.19 158.18,33.13 225.6,69.32 -11.65,1.14 -23.66,0.46 -35.14,0.31m-697.09 -421.19c59.89,37.66 70.81,162.36 122.34,194.31 -35.77,41.11 -64.62,125.2 -21.2,170.42 -5.85,55.97 -22.87,87.96 18.65,113 7.55,4.56 15.31,9.44 23.59,12.37 -15.33,13.88 -30.29,27.57 -44.74,40.4 -9.84,8.73 -21.62,16.95 -26.93,25.51 -17.79,-24.13 -36.72,-47.24 -58.15,-67.47 -4.79,-39.98 -42.91,-162.62 -51.41,-189.23 -17.93,-56.13 14.72,-156.52 6.09,-232.4 -1.27,-11.15 -9.7,-47.58 -9.7,-48.22 -0.55,-16.43 -4.36,-29.17 -11.18,-41.85 17.94,6.81 36.2,12.82 52.64,23.16m101.03 289.69c-0.21,1.55 -0.42,3.15 -0.61,4.78 0,0 -0.09,0.69 -0.09,0.69 0.2,-2 0.46,-4.02 0.77,-6.06 0,0 -0.07,0.59 -0.07,0.59m0.31 -2.22c0,0 0.02,-0.12 0.02,-0.12 0,0 -0.02,0.12 -0.02,0.12m49.94 -81.69c-0.17,-0.51 -0.33,-1.01 -0.49,-1.51 -0.37,-1.16 -0.69,-2.28 -0.97,-3.38 -0.12,-0.46 -0.25,-0.92 -0.35,-1.36 -0.17,-0.73 -0.26,-1.39 -0.39,-2.09 0.34,-0.33 0.66,-0.67 1,-1 0.42,3.39 0.89,6.72 1.43,9.94 0,0 -0.23,-0.6 -0.23,-0.6m270.61 -103.1c11.94,-4.94 51.44,7.82 63.86,9.59 -2.75,12.19 -6,22.49 -17.76,25.97 -9.89,2.4 -28.73,0.3 -41.78,-3.3 -2.86,-12.72 -4.6,-24.69 -4.32,-32.26m65.46 131.86c-10.95,-11.79 -34.52,-32.12 -45.93,-53.74 -3.01,-5.69 -6.08,-13.64 -8.87,-22.39 32.71,20.93 72.56,-1.47 71.72,-29.85 4.53,8.13 7.94,17.38 10.03,22.81 11.8,30.79 13.74,42.5 27.04,74.62 -19.44,3.36 -37.02,6.94 -53.99,8.55m102.28 -16.62c-8.86,1.95 -17.61,3.39 -25.77,4.52 -5.08,0.69 -10,1.46 -14.82,2.25 2.99,-24.95 -4.5,-53.16 -12.57,-75.77 -7.55,-20.53 -21.68,-57.16 -47.63,-57.81l0.32 0c-10.9,-1.45 -27.88,-6.95 -45.11,-9.04 -2.22,-0.26 -4.3,-0.45 -6.31,-0.6 5.24,-15.4 9.32,-33.38 4.47,-48.59 5.82,-5.37 2.14,-7.23 9.67,-20.47 18.61,-32.67 76.82,28.03 90.21,43.01l0.01 -0.01 15.4 21.73 11.44 -6.74 -11.44 6.76c18.93,33.05 45.09,99.75 32.13,140.76m-222.22 -107.41c12.34,-31 22.74,-44.72 49.08,-60.65 6.09,-3.68 10.85,-6.61 14.62,-9.02 -0.49,4.92 -0.88,9.89 -1.6,15.82 -1.04,8.02 -2.61,16.57 -1.34,24.58 -32.32,1.16 -27.37,24.14 -20.27,53.87 16.12,67.47 54.14,86.25 73.73,99.89 -27.51,1.84 -53.78,-2.24 -84.29,-21.86 -9.43,-6.06 -21.71,-11.7 -34.7,-17.33 -13.23,-25.62 -5.56,-59.35 4.77,-85.3m-64.69 78.34l4.75 -8.16 -4.74 8.17 -0.01 -0.01m0.12 0.08l-0.06 -0.04c24.48,13.83 65.73,28.31 84.23,40.26 10.67,6.89 21.02,12.14 31.29,16.03 2.52,5.14 6.17,9.15 14.49,11.65l-0.34 0.15 0.32 0.47c16.74,19.93 23.71,44.61 41.08,66.94 -17.38,0.75 -34.73,2.62 -52.02,5.62 -2.28,-2.63 -5.94,-4.32 -10.13,-3.62 -25.6,4.26 -63.26,-29.05 -82.25,-44.36l-23.88 -17.83c-27.07,-30.56 -83.45,7.75 -124.7,-28.28 -21.64,-18.91 -14.5,-120.17 -6.31,-146.79 6.66,16.95 14.07,38.56 34.56,41.83 28.11,4.48 12.17,11.07 38.6,33.88 25.96,22.4 38.97,18.82 55.12,24.09m-126.02 -223.96l0.01 0 3.75 7.36 -3.76 -7.36m7.52 14.71l-0.01 0c32.63,-17.56 92.5,-31.6 131.94,-23.84 -17.61,28.97 -39.91,79.54 -50.63,125.8 -14.69,-19.76 -33.31,-32.82 -54.6,-45.85 -36.94,-22.48 -88.17,-47.68 -130.22,-57.17l-47.81 -9.27 -0.7 2.26 45.09 19.28 0 0.01c26.42,11.34 52.12,23.09 77.66,36.32 35.37,18.33 77.46,47.76 109.21,60.77 -5.17,24.61 -6.75,47.59 -2.26,64.97 -4.51,-3.48 -8.38,-7.44 -11.09,-11.87 -24.52,-40 -35.02,-21.93 -44.18,-30.8 -16.57,-16.05 -9.22,-36.98 -33.67,-47.18l-7.08 4.14c-13.34,10.71 -20.72,66.93 -17.28,115.02l-6.07 -1.68c-37.26,-11.04 -64.02,-117.4 -95.81,-164.43 -24.01,-35.52 -61.2,-48.92 -89.14,-59.14 20.25,-2.68 41.15,-2.3 61.29,-2.1 54.13,0.55 75.73,-1.42 127.74,15.64 10.75,3.52 26.55,11.64 37.62,9.12m-365.06 286.87c26.24,-61.69 4.2,-129 -34.95,-179.73 -16.84,-21.82 -47.66,-37.03 -70.58,-52.49l7.52 1.4c88.88,17.63 116.37,76.64 157.28,73.88 16.54,-1.12 40.47,-21.06 61.8,-36.27 4.64,47.83 -4.37,89.7 -9.21,142.22 -1.67,18.18 -2.59,31.56 -2.41,43.29 -8.4,-7.39 -18.06,-13.88 -25.22,-19.14 -20.39,-15.35 -21,-12.37 -30.32,-18.62l-2.3 0.53c-3.48,8.88 1.01,18.75 6.84,25.53 12.9,15.02 32.81,25.66 52.51,30.66 2.15,14.36 6.73,28.78 14.79,50.47l60.19 152.68c-25.35,-22.33 -54.21,-40.54 -88.66,-51.82 -42.17,-13.8 -119.74,-17.93 -181.8,-12.08 -3.65,-48.39 55.86,-88.49 84.52,-150.51m326.21 614.36c-21.11,-20.59 -67.33,-46.49 -81.7,-60.88 -45.34,-45.45 -96.77,-80.45 -139.09,-130.01 -41.7,-48.85 -50.81,-73.23 -79.58,-123.96 -46.36,-81.76 -75.21,-102.09 -165.52,-124.72 46.6,-14.63 125.88,-13.85 173.59,-9.67 148.05,12.99 199.04,126.74 272.16,228.19 -47.25,-6.75 -76.26,1.34 -123.12,14.32l0.6 2.28c48.72,-12.2 77.26,-19.48 126.93,-10.58 12.53,17.08 25.74,33.76 40.25,49.45 30.19,32.65 58.12,52.63 96.69,66.31 -45.88,30.97 -87.28,64.46 -121.21,99.27m590.21 -726.99c-21.51,85.07 -100.52,131.36 -169.32,176.39 -26.04,-4.4 -52.06,-6.56 -78.02,-6.32 -1.79,-13.19 -8.14,-26.24 -14.07,-37.31 -4.02,-7.42 -12.53,-22.83 -22.11,-33.39 20.2,2.25 41.13,0.39 64.59,-3.87 54.42,-9.88 138.89,-12.38 166.92,-69.58 16.99,-34.67 3.62,-41.19 -13.8,-59.01 0,0 -0.01,-0.59 -0.01,-0.59 11.26,-4.43 69.81,-17.95 76.49,-14.05l12.98 -14.57 -12.94 14.59c2.99,5.35 -8.79,40.11 -10.71,47.71m-68.84 -9.67c3.26,2.94 5.53,5.34 5.3,7.01 -2.38,17.5 -10.9,30.68 -22.79,40.7 6.94,-14.65 13.71,-31.3 17.49,-47.71m-25.45 -43.88l0 0 1.21 3.14c8.87,23.12 -4.34,58.88 -4.94,96.7 -11.24,6.72 -24.17,11.55 -37.3,15.08 26.05,-40.27 2.36,-112.7 -20.01,-151.65l-0.01 0 -18.34 -25.76 -9.97 8.76 9.97 -8.77c-16.43,-18.29 -35.62,-36.62 -57.06,-48.9 -66.54,-38.11 -79.59,25.42 -81.01,27.64l-32.84 22.9c-36.01,27.71 -61.99,107.63 -37.32,152.49 -14.54,-6.22 -29.35,-12.52 -41.58,-19.48l-0.01 0.01 -11.64 -3.31c-10.51,-1.75 -23.25,-6.16 -33.72,-12.86 -8.87,-36.92 17.72,-100.16 30.4,-128.4 23.58,-52.54 29.86,-57.76 62.2,-99.55 37.76,-48.79 49.28,-64.52 75.79,-22.07 62.69,100.37 164.48,98.74 206.18,194.03m-390.71 -429.12c27.28,-32.72 85.1,-32.73 117.47,-60.99 42.59,-37.17 14.23,-99.62 21.41,-124.33l1.26 1.2c26.84,32.37 18.76,76.65 51.67,94.18 53.56,28.52 91.23,28.79 148.65,68.6 17.85,12.37 67.26,55.93 75.25,76.4l0 0c1.68,4.67 4.28,9.83 5.71,14.94 -13.56,0.91 -26.73,2.3 -39.23,4.41 -72.45,12.25 -141.25,67.63 -194.11,116.09 17.12,-42.82 19.09,-160.8 -3.7,-201.74l-2.01 1.24c14.5,27.61 14.78,83.36 13.63,114.07 -1.11,29.79 -3.09,63.63 -17.66,90.53 -6.96,-4.65 -14.77,-7.05 -24.04,-5.8 -29.05,3.91 -60.64,56.74 -80.15,82.86 -2.09,2.8 -4.34,6.13 -6.67,9.83 -22.74,-7.84 -50.23,-7.95 -75.97,-4.61l-1.19 -3.72c-14.69,-42.29 -32.5,-72.35 -73.68,-89.24 -28.86,-11.05 -95.21,-31.66 -125.14,-23.95l0 2.36 10.07 3.61c33.7,14.08 32.93,17.46 77.33,32.3 74.7,24.97 55.09,31.42 103.98,79.9 -10.1,1.62 -19.8,3.69 -28.68,5.97l-25.64 8.27c-22.74,-8.04 -44.3,-18.54 -67.75,-24.69 -32.82,-8.61 -120,-11.07 -154.36,-8.03 -16.04,1.41 -25.77,2.86 -34.87,7l-14.18 -30.74c-7.72,-14.93 -16.05,-29.31 -24.94,-43.19 42.45,0.16 111.92,-16.04 145.46,-36.77 25.21,-15.55 75.5,-34.72 104.97,-48.91 39.41,-18.98 88.76,-73.04 117.11,-107.05m-737.59 310.87c-2.75,8.32 -11.28,35.03 -10.4,53.79l-44.88 -34.62c0.87,-0.72 1.74,-1.45 2.61,-2.18 19.56,-16.2 41.73,-34.75 65.53,-54.62 -4.7,13.3 -9.05,26.06 -12.86,37.63m-103.5 0.88l18.45 13.62c-3.26,2.75 -6.48,5.49 -9.67,8.22 -2.85,-8.17 -5.8,-15.61 -8.78,-21.84m-47.89 232.54c-1.13,29.99 -6.64,59.25 -13.67,88.38 -20.34,84.21 -18.44,106.39 4.05,192.77 2.12,8.16 3.85,11.74 4.04,15.82 -0.57,1.83 -1.12,3.66 -1.67,5.5 -18.32,-56.08 -27.41,-114.69 -44.68,-171.04 -12.98,-42.39 -48.71,-77.74 -79.95,-110.47 35.2,-46.36 73.78,-90.23 114.8,-131.65 11.26,35.56 17.93,72.37 17.08,110.69m2.33 273.91c-0.26,-0.87 -0.49,-1.65 -0.65,-2.26 -21.83,-83.63 -21.44,-101.95 -1.93,-184.07 18.72,-78.76 17.14,-143.71 -7.14,-207.98 19.49,-19.33 39.51,-38.11 59.96,-56.35 11.25,40.57 21.25,90.1 25.66,115.72 19.54,113.56 2.52,155.25 -42.22,255.38 -12.59,28.19 -24.3,54.23 -33.68,79.56m-392.07 297.98c28.05,-105.99 101.59,-283.47 151.82,-382.59 27.79,-54.85 60.49,-106.93 97,-156.27 25.56,27.06 53.94,58.37 66.51,81.35 16.89,30.9 43.46,175.1 59.4,206.74l3.06 -1.19 -3.06 1.19c0.68,1.35 1.34,2.47 1.98,3.4 -10.5,46.84 -9.48,94.55 12.59,152.49 18.22,47.87 36.51,72.53 61.46,114.83 3.8,6.42 7.58,13.18 11.34,20.18 -47.23,-41.53 -108.56,-52.22 -172.73,-54.62 -39.19,-1.25 -74.72,0.8 -113.17,9.19l0.09 2.36 48.24 3.67c88.45,2.34 169.78,-2.55 245.34,54.3 39.84,78.87 74.57,184.91 73.46,264.75 0,0.82 0.03,1.64 0.03,2.47 -13.72,4.4 -23.85,6.58 -35.9,19.62 -26.46,28.64 -24.48,110.01 -50.32,129.12 -17.63,13.04 -36.98,21.3 -59.13,20.3 -29.35,-1.33 -98.66,-28.42 -126.2,-40.23 -104.01,-44.61 -192.22,-142.16 -243.93,-240.42 -20.33,-38.62 -37.13,-84.35 -46.86,-130.95 21.86,-42.64 8.57,-40.38 18.98,-79.69m806.02 587.49l-6.51 9.4 6.51 -9.42c-23.38,-16.29 -93.84,-77.55 -98.46,-105.38l20.9 -10.5c106.25,-65.38 -7.66,-210.37 -82.11,-183.35 -40.72,14.79 -42.44,66.39 -42.44,102.69l-14.2 -8.66c-26.29,-21.36 -26.6,-44.77 -26.94,-73.18 -1.07,-89.05 -52.17,-226.54 -99.96,-302.83 -39.8,-63.55 -79.93,-131.03 -76.68,-208.84 2.37,-56.49 34.3,-126.09 57.66,-178.01 50.07,-111.3 58.01,-160.78 32.99,-282.02 -5.02,-24.3 -13.19,-62.86 -22.88,-96.27 6.95,-6.08 13.94,-12.1 20.97,-18.06l8.82 6.51c36.32,28.89 74.9,55.41 110.2,84.99 67.77,56.79 84.6,88.62 130.75,159.17l2.05 -1.18 -2.06 -4.27c-49.64,-104.05 -90.96,-143.66 -182.2,-210.78 1.49,-14.54 12.08,-44.06 14.25,-50.96 8,-24.94 17.22,-49.48 26.66,-73.93 64.57,-53.72 137.89,-113.88 204.57,-164.08 22.88,19.85 45.03,41.64 68.1,70.32 34.76,43.2 56.35,77.55 75.1,124.38 -1.21,1.01 -2.46,2.07 -3.76,3.19l8.94 12.72c0.67,0.96 1.3,1.86 1.93,2.77 1.04,2.88 2.08,5.76 3.11,8.75l1.57 -1.89c23.66,35.41 11.23,30.14 17.37,52.81 1.67,6.16 2.99,12.13 4.17,18.01 -14.77,9.8 -44.7,32.74 -53.33,36.71 -22.12,10.18 -64.71,-44.54 -124.73,-65.04 -16.25,-5.55 -78.37,-24.18 -89.06,-3.98 -9.97,18.84 24.77,38.78 37.29,47.2 37.56,25.23 48.3,25.97 71.07,63.83 88.43,147.02 -77.96,199.18 -60.27,293.29 -14.25,1.88 -27.31,4.36 -38.43,7.44 -27.64,7.66 -31.48,20.77 -8.77,27.32 58.14,16.79 91.06,20.13 129.32,72.89l-4.32 2.9c-58.47,53.51 -78.02,141.76 -75.82,217.51 2.8,96.02 46.14,231.21 126.75,299.88 0,0.33 -0.06,0.66 -0.06,1.01 3.05,31.58 4.29,63.14 1,94.77 -8.18,78.74 -34.85,95.61 -63.44,150.49l1.85 1.48 20.06 -17.05c63.46,-57.35 69.09,-134.06 62.4,-214.33 6.4,4.13 12.99,7.87 19.79,11.15 6.95,3.35 13.79,6.06 20.52,8.21 9.3,12.21 15.48,26.36 21.57,40.34 7.36,16.52 10.27,34.89 19.64,50.55l9.53 -5.85 0.02 0.38 -9.31 6.08 0.79 2.78 5.69 18.31c1.83,18.4 12.43,42.82 17.51,61.45 18.37,67.4 49.8,171.81 50.32,239.25 -13.14,-16.89 -24.63,-27.15 -43.29,-37.88 -65.95,-37.93 -80.72,-33.39 -145.1,-55.52l0 -0.01c-20.28,-7.09 -39.74,-15.64 -57.61,-27.66m1595.46 -910.35c-12.3,2.24 -9.13,1.82 -29.88,2.1 -153.76,-1.57 -160.33,108.13 -181.29,217.54 -8.65,0.36 -7.48,16.34 -4.42,21.38 0,0 0.07,0.07 0.07,0.07 -0.87,4.05 -1.78,8.09 -2.74,12.11 -13.67,-8.13 -25.57,-15.23 -31.7,-19.38l-1.46 1.85c26.06,23.42 55.49,42 83.28,63.16 -19.47,-4.74 -39.25,-10.98 -59.37,-12.08 -44.63,-2.43 -112.11,17.15 -154.39,32.75 -56.01,20.66 -89.56,47.82 -126.47,95.33 -24.87,32.02 -29.75,49.12 -39.6,63.11 -18.87,-3.51 -46.45,-18.83 -72.85,-28.19 -4.91,-2.9 -11.45,-5.6 -19.92,-8.08 -86.73,-25.4 -235.32,-18.77 -321.11,5.69 -80.72,23.02 -159.47,56.84 -229.76,102.86 -54.96,35.99 -112.67,67.81 -170.16,99.6l4.3 7.8 -4.29 -7.79 -7.16 3.89c-16.96,9.09 -34.96,14.13 -42.21,27.95 -5.85,-18.74 -9.96,-37.94 -13.38,-57.26 77.96,-0.82 138.23,-76.72 174.84,-144.14 8.37,-15.41 32.82,-26.65 32.63,-44.53 8,-8.22 16.41,-16.25 26.3,-25.05 127.05,-113.2 325.93,-203.82 491.67,-238.82 49.98,-9.61 95.51,-12.06 146.25,-11.29 45.52,0.69 98.09,8.84 136.84,-6.69l0.05 -2.37 -9.52 -4.03c-46.47,-17.63 -168.29,-15.1 -217.82,-10.47 -43.15,4.03 -90.76,13.79 -140.13,28.21 0.34,-0.53 0.67,-1.04 0.99,-1.53 3.55,-5.53 8.64,-11.56 14.31,-17.53l4.95 -4.21c69.15,-55.18 147.17,-97.21 229.86,-126.59 0.37,0.19 0.73,0.38 1.1,0.57l1.15 -1.37c76.81,-27.06 157.61,-43.24 239.08,-48.84 75.53,-5.19 213.34,-0.79 283.31,29.49l8.65 4.78m351.77 183.69c2.64,-8.12 5.29,-16.45 7.95,-24.96 4.43,-14.19 8.85,-28.85 13.17,-43.78 -4.32,14.93 -8.75,29.59 -13.17,43.78 -2.66,8.51 -5.31,16.84 -7.95,24.96 -2.64,8.12 -5.25,16.02 -7.83,23.65 2.58,-7.63 5.19,-15.53 7.83,-23.65m28.77 -95.85c2.51,-9.11 4.94,-18.27 7.31,-27.42 -2.37,9.15 -4.81,18.31 -7.31,27.42 -1.66,6.07 -3.35,12.11 -5.07,18.13 1.72,-6.02 3.41,-12.06 5.07,-18.13m16.28 -63.99c-2.11,9.09 -4.33,18.24 -6.64,27.4 2.31,-9.16 4.53,-18.31 6.64,-27.4m41.54 -313.18c-0.56,8.62 -1.17,17.2 -1.97,25.7 0.8,-8.5 1.41,-17.08 1.97,-25.7m5.71 -67.03c0,0 -0.02,0.02 -0.02,0.02 0,0 0.02,-0.02 0.02,-0.02m0.55 0.15c0.21,0.35 0.43,0.97 0.66,1.81 0.4,1.4 0.82,3.41 1.26,5.75 -0.44,-2.34 -0.87,-4.35 -1.26,-5.75 -0.23,-0.84 -0.45,-1.46 -0.66,-1.81 -0.13,-0.22 -0.39,-0.3 -0.39,-0.3 0,0 0.26,0.08 0.39,0.3m3.01 13.7c-0.19,-1.09 -0.37,-2.15 -0.55,-3.18 0.18,1.03 0.36,2.09 0.55,3.18m1.38 8.2c-0.18,-1.07 -0.37,-2.16 -0.55,-3.26 0.18,1.1 0.37,2.19 0.55,3.26m7.67 17.08c1.23,0.93 2.43,1.72 3.34,2.19 0.91,0.47 1.57,0.62 1.57,0.27 3.9,-28.09 3.79,-56.36 4.26,-84.43 0.16,-9.35 0.38,-18.68 0.84,-27.98 -0.46,9.3 -0.68,18.63 -0.84,27.98 -0.47,28.07 -0.36,56.34 -4.26,84.43 0,0.35 -0.66,0.2 -1.57,-0.27 -0.91,-0.47 -2.11,-1.26 -3.34,-2.19 -1.51,-1.14 -2.99,-2.47 -4.05,-3.68 1.06,1.21 2.54,2.54 4.05,3.68m-25.25 706.71c-19.61,-1.32 -39.03,-4.71 -58.59,-6.6 -10.28,-1 -21.08,-1.51 -32.16,-1.61 6.94,-14.71 13.75,-29.58 20.38,-44.5 27.06,15.75 51.22,33.37 70.37,52.71m-217.97 178.41l34.56 -153.82 -34.56 153.82m34.56 -153.82c-0.82,1.3 -1.68,2.62 -2.59,3.95 0.91,-1.33 1.77,-2.65 2.59,-3.95l0 0m53.54 -96.13c0,0 0.05,-0.12 0.05,-0.12 0,0 -0.05,0.12 -0.05,0.12m-4.4 9.27c0.33,-0.68 0.66,-1.37 0.99,-2.05 -0.33,0.68 -0.66,1.36 -0.99,2.05m-3.57 7.31c0.33,-0.67 0.66,-1.35 0.99,-2.02 -0.33,0.67 -0.66,1.35 -0.99,2.02m-3.68 7.32c0.1,-0.2 0.2,-0.4 0.31,-0.6 -0.1,0.2 -0.21,0.4 -0.31,0.6m-4.12 7.97c0.36,-0.69 0.72,-1.38 1.08,-2.07 -0.36,0.69 -0.72,1.38 -1.08,2.07m-3.36 6.33c0.33,-0.61 0.66,-1.24 0.99,-1.86 -0.33,0.62 -0.66,1.25 -0.99,1.86m-3.7 6.8c0.19,-0.35 0.38,-0.68 0.57,-1.02 -0.19,0.34 -0.38,0.67 -0.57,1.02m-3.62 6.5c0.36,-0.62 0.7,-1.25 1.06,-1.89 -0.35,0.64 -0.71,1.27 -1.06,1.89m-3.03 5.33c0.33,-0.55 0.65,-1.12 0.97,-1.69 -0.32,0.56 -0.64,1.14 -0.97,1.69m-3.43 5.92c0.24,-0.4 0.46,-0.77 0.69,-1.18 -0.23,0.41 -0.45,0.78 -0.69,1.18m-3.03 5.14c0.34,-0.58 0.69,-1.16 1.04,-1.75 -0.35,0.59 -0.7,1.17 -1.04,1.75m40.12 -77.07c-0.22,0.48 -0.43,0.96 -0.65,1.45 0.22,-0.49 0.43,-0.97 0.65,-1.46 0,0 0,0.01 0,0.01m7.81 -18.19c0.26,-0.63 0.52,-1.26 0.78,-1.89 -0.26,0.63 -0.52,1.27 -0.78,1.89m-143.55 245.51c-2.18,-1.32 -3.62,-3.01 -3.86,-4.94 0,-0.54 -0.16,-0.87 -0.3,-1.04 0,0 -0.22,-0.11 -0.22,-0.11 0,0 0.22,0.11 0.22,0.11 0.14,0.17 0.3,0.5 0.3,1.04 0.24,1.93 1.68,3.62 3.86,4.94m7.07 -31.24c0.81,-0.57 1.62,-1.18 2.42,-1.84 3.67,-2.99 7.1,-4.67 10.21,-5.29 -3.11,0.62 -6.54,2.3 -10.21,5.29 -0.8,0.66 -1.61,1.27 -2.43,1.84 -1.62,1.15 -3.27,2.12 -4.91,2.95 -1.64,0.82 -3.28,1.5 -4.91,2.03 1.63,-0.53 3.27,-1.21 4.91,-2.03 1.65,-0.83 3.29,-1.8 4.92,-2.95m28.02 -37.96c0.75,-0.73 1.42,-1.46 2.02,-2.19 3.61,-4.43 9.04,-10.55 14.98,-17.42 2.98,-3.43 6.07,-7.05 9.13,-10.75 -3.05,3.7 -6.16,7.32 -9.13,10.75 -5.94,6.87 -11.38,12.99 -14.98,17.42 -0.6,0.73 -1.27,1.46 -2.02,2.19m-8.25 68.14c1.25,-1.01 2.37,-2.09 3.35,-3.23 -0.98,1.14 -2.1,2.22 -3.35,3.23 -2.98,2.4 -7,3.67 -11.16,4.06 4.16,-0.39 8.18,-1.66 11.16,-4.06m238.78 -720.51c0,0 0.07,-0.51 0.23,-0.73 -0.15,0.22 -0.23,0.73 -0.23,0.73 0.11,4.46 0.08,9.07 -0.07,13.81 0.15,-4.74 0.18,-9.35 0.07,-13.81m31.93 -33.22c0,1.19 -0.04,2.33 -0.12,3.43 0.08,-1.1 0.12,-2.24 0.12,-3.43 0,-9.19 -6.21,-20.81 -13.98,-26.57 7.77,5.76 13.98,17.38 13.98,26.57m-1.49 -268.31c-0.9,-16.38 -2.17,-32.36 -3.23,-47.48 1.06,15.12 2.33,31.1 3.23,47.48m-20.59 238.23c1.37,0.16 2.75,0.56 4.11,1.15 -1.36,-0.59 -2.74,-0.99 -4.12,-1.14 -1.75,-0.2 -4.45,0.09 -6.67,0.01 2.22,0.08 4.92,-0.21 6.68,-0.02m-413.84 1056.87c-5.91,9.64 -15.53,24.41 -26.35,41.32 9.52,-69.45 10.99,-135.42 29.11,-210.62 10.63,-44.12 33.1,-83.86 62.02,-118.63 3.73,0.44 7.8,-0.32 11.51,-2.51 7.33,-4.34 10.56,-12.55 7.96,-19.16 17.64,-18.3 36.95,-34.99 56.98,-49.96 2.99,-2.23 6.09,-4.36 9.28,-6.42l-11.8 44.38c-0.89,0.35 -1.78,0.7 -2.63,1.02 -4.62,1.74 -8.73,3.09 -11.75,3.92 -24.8,6.73 -15.06,20.6 1.92,20.09 1.92,-0.06 3.94,-0.32 6.01,-0.78l-32.27 121.27c8.75,-20.2 17.77,-38.96 21.49,-56.14 -3.72,17.18 -12.75,35.94 -21.49,56.15l0 -0.01c-6.7,15.51 -13.2,31.87 -17.05,49.04 -32.6,47.73 -51.4,75.7 -82.94,127.04m-159.44 322.75c-24.47,40.94 -67.17,50.53 -98.58,97.57 -3.82,5.72 -7,10.02 -9.58,13.45 -15.74,-24.53 -31.83,-48.51 -47.49,-71.08 4.27,-3.55 8.57,-7.13 12.94,-10.75 67.69,-56.21 142.91,-112.7 212.9,-172.51 -18.52,49.56 -42.57,97.09 -70.19,143.32m-1700.54 -1996.01l1.25 -7.78c-0.43,2.65 -0.29,5.63 -1.25,7.78m2296.56 1878.09c-69.06,65.4 -198.51,146.67 -284.33,185.46 -57.81,26.13 -116.72,49.3 -177.59,63.97 -5.66,-8.94 -13,-14.63 -24.46,-19.76 -20.57,-8.68 -39.94,-3.19 -60,4.97 -26.26,10.67 -50.27,17.04 -71.52,30.01l-30.18 -1.33c-4.5,4.55 -15.13,-33.51 -37.56,-14.5 2.51,1.44 10.02,5.13 7.56,9.08 -1.56,2.5 -2.47,5.29 -2.8,8.22 -3.67,-6.01 -7.39,-12.02 -11.15,-18.02 3.06,-3.59 5.91,-8.42 8.76,-12.69 29.48,-44.05 45.36,-45.08 78.73,-72.44 36.72,-30.11 85.38,-131.1 103.34,-176.23 6.67,-16.74 12.24,-32.95 16.95,-48.75 34,-30.91 66.01,-62.83 94.38,-96.13l-1.74 -1.59c-27.02,26.83 -56.44,52.55 -86.96,77.29 4.02,-15.51 7.28,-30.65 10,-45.55 2.9,-4.41 5.5,-8.37 7.55,-11.53 31.19,-47.68 67.62,-91.56 101.17,-137.55 38.82,-53.2 78.87,-105.34 119.24,-157.38l-0.01 -0.01 3.79 -4.98c33.41,-45.05 67.55,-105.94 99.29,-171.28 6.87,-0.17 13.6,-0.17 20.09,0.06 51.87,1.85 63.32,11.49 118.42,4.44l-9.21 -13.16c-22.71,-31.96 -57.71,-54.49 -91.61,-73.33 31.53,-72.34 58.8,-144.44 77.87,-202.05 26.27,-79.39 43.61,-142.7 51.94,-225.9 13.73,-136.97 20.06,-274.16 13.07,-411.8 -6.73,-132.32 -32.88,-344.85 -89.51,-473.34 -9.22,-20.93 -74.93,-146.35 -72.85,-153.45l-2.19 0.88c5.73,3.28 71.19,179.74 78.53,201.32 26.55,78.05 43.96,167.59 54.61,257.68 -3.37,11.6 -6.96,26.07 -10.73,43.11 -5.16,-24.3 -9.47,-48.06 -14.36,-74.41 -2.09,-11.24 -23.86,-102.15 -21.35,-105.52l-2.32 0.41 1.76 3 6.63 38.81c7.36,47.06 20.28,111.72 24.5,161.95 -0.5,2.45 -1,4.92 -1.5,7.46l-232.32 873.32c-51.3,-15.38 -103.23,-24.55 -156.83,-29.7 5.47,-4.02 10.64,-7.83 15.28,-11.28 2.06,-1.53 4.02,-3 5.86,-4.37 6.44,-4.83 11.35,-8.62 13.93,-10.78 13.22,-11.08 22.56,-19.66 29.81,-26.59 1.21,-1.16 2.36,-2.26 3.46,-3.33 1.1,-1.06 2.15,-2.09 3.16,-3.08 2.1,-2.04 4.02,-4.05 5.82,-6.02 1.8,-1.98 3.46,-3.92 5.03,-5.84 9.4,-11.52 15.29,-22.15 24.95,-33.47 3.59,-4.2 5.36,-6.24 5.73,-6.69 0.73,-0.91 -4.13,4.54 -11.28,11.77 -0.72,0.72 -1.45,1.46 -2.21,2.21 -12.68,12.62 -43.69,35.94 -46.92,37.6 -16.75,8.64 -41.32,28.31 -65.11,28.4 -0.84,0.01 -1.59,-0.09 -2.27,-0.26l-2.15 -15.59c16.23,-10.58 27.73,-20.55 44.81,-35.96l-5.92 -6.83 5.93 6.83c48.69,-42.5 134.77,-144.47 168.99,-197.11 21.42,-32.96 65.36,-116.09 77,-153.82 23.24,-75.33 51.94,-233.54 36.26,-308.8 3.31,22.71 2.62,45.57 0.65,68.38 -4.3,49.94 -32.22,204.04 -52.01,248.22 -29.89,66.73 -63.19,131.74 -109.5,188.76 -53.24,65.55 -65.44,81.43 -124.1,132.74 -10.59,3.94 -21.99,8.91 -31.1,13.39 -3.59,1.77 -6.84,3.46 -9.53,4.97 -8.11,4.57 -22.13,12.19 -30.67,12.13 -1.07,-0.01 -2.05,-0.13 -2.93,-0.4 -2.18,-0.67 -3.69,-2.22 -4.19,-4.97 -0.19,-1.11 -0.23,-2.4 -0.08,-3.91 0.16,-1.51 0.49,-3.23 1.04,-5.19 1.36,-4.89 4.02,-11.26 8.33,-19.41 4.79,-9.08 6.66,-12.78 6.66,-12.78 0,0 -5.78,10.09 -11.83,19.97 -2.59,4.23 -5.24,8.38 -7.5,11.59 -1.5,2.14 -2.84,3.85 -3.88,4.89 -0.22,0.22 -0.54,0.58 -0.94,1.05 -4.02,4.74 -16.37,21.14 -25.97,33.34 -1.92,2.44 -3.73,4.71 -5.34,6.69 -2.42,2.96 -4.39,5.26 -5.62,6.47 -1.88,1.85 -4.08,3.78 -6.5,5.76 -2.42,1.98 -5.07,4 -7.82,6.02 -1.38,1.02 -2.79,2.03 -4.21,3.03 -8.34,5.91 -17.17,11.62 -23.87,16.05 -43.45,-1.18 -86.79,-4.05 -130.24,-5.68 12.06,-43.61 19.43,-87.32 34.01,-121.5 40.99,-96.08 123.34,-71.18 166.35,-79.13 4.78,-0.89 16.95,-4.95 19.59,-9.15l2.19 -12.4 -5.85 -8.64c-15.31,-15.61 -73.24,-28.06 -105.25,-33.55 27.43,-21.1 61.2,-49.06 77.43,-73.06 32.35,-47.85 23.34,-130.79 19.3,-186.48 -3.21,-44.11 17.72,-67.46 40.04,-105.45 25.44,-43.27 40.9,-68.5 82.26,-101.5 51.23,-40.87 82.65,-46.12 139.01,-64.16 9.91,-3.17 22.31,-9.67 17.43,-22.53 -2.59,-6.8 -11.72,-9.74 -17.98,-11.28 -124.49,-30.56 -265.96,-12.93 -386.33,27.37 0,0 -0.27,0.09 -0.27,0.09 1.79,-6.66 1.69,-13.69 0.95,-21.01l-7.1 -46.58c-25.41,-119.97 -87.7,-124.04 -124.43,-157.98 -31.62,-29.22 -18.61,-83.5 -9.47,-119.64 11.66,-46.1 15.63,-53.22 36.9,-89.61 11.42,-19.55 34.77,-51.17 8.87,-59.42 -56.01,-17.86 -159.17,85.93 -207.94,142.08 -51.14,7.14 -92.9,36.38 -129.16,73.18 -37.27,38.87 -66.65,83.72 -76.98,136.91 -6.72,-0.37 -13.41,-0.65 -20.07,-0.84 29.38,-74.45 11.28,-191.1 -28.64,-256.14 -42.78,-65.58 -103.48,-144.9 -165.68,-204.61l9.46 -3.16c45.95,-10.78 172.14,-15.21 216.48,-7.31 34.88,6.21 60.52,21.77 39.35,59.82 5.25,-5.58 9.23,-11.25 11.78,-18.56 21.38,-61.36 -96.79,-70.04 -132.61,-71.14 -32.5,-1 -142.83,-0.48 -165.81,20.7 -7.89,-6.93 -15.77,-13.48 -23.62,-19.6 -5.24,-39.17 -14.12,-78.23 -27.74,-117.6 -15.67,-45.28 -72.16,-164.01 -103.28,-194.64 -13.48,-13.28 -19.75,-7.6 -29.69,-1.94l2.74 14.38c17.66,64.16 22.05,64.88 11.87,134.12 -4.54,30.83 -18.87,45.4 -43.44,62.85 -52.09,37.01 -111.8,66.69 -161.68,110.85 -57.34,50.77 -62.59,113.53 -110.08,148.36 -37.99,27.86 -205.59,52.04 -258.34,58.65l0.25 1.85c-21.04,-18.29 -44.03,-34.44 -65.79,-51.85 -4.91,-3.93 -9.48,-7.91 -13.8,-11.92 84.9,-168.51 194.19,-337.85 276.11,-443.45 77.47,-97.12 220.43,-236.81 316.83,-310.28l321.55 -244.33c9.1,-2.71 19.13,-5.48 29.1,-7.67 2.57,-0.56 5.13,-1.09 7.67,-1.57 8.9,-1.67 17.53,-2.74 25.13,-2.74 -0.31,-3.6 4.46,-13.65 10.41,-25.25 1.99,-3.87 4.11,-7.9 6.21,-11.93 1.05,-2.02 2.1,-4.03 3.13,-6.01 0.51,-1 1.02,-1.98 1.52,-2.96 1,-1.96 1.97,-3.88 2.9,-5.74 0.41,-0.83 0.81,-1.65 1.21,-2.45l13.03 -9.91 -6.36 -9.15 6.37 9.15c108.91,-76.5 249.21,-124.24 383.01,-117.23l0.24 -2.36c-136.46,-16.15 -281.95,26.65 -395.98,101.28l0 0 -6.43 4.54c-68.01,48.49 -136.86,98.37 -205.43,148.6 -1.07,0.6 -2.14,1.2 -3.2,1.81 -0.22,0.12 -0.44,0.25 -0.66,0.37 -3.77,2.13 -7.53,4.27 -11.29,6.4 -1.27,0.72 -2.54,1.44 -3.81,2.16 -1.27,0.72 -2.55,1.44 -3.82,2.16 -5.18,2.94 -10.32,5.85 -15.37,8.71 -0.88,0.5 -1.75,1 -2.62,1.49 -2.05,1.16 -4.08,2.31 -6.09,3.45 -1,0.57 -2,1.14 -2.99,1.7 -1.89,1.07 -3.77,2.14 -5.63,3.2 -0.71,0.4 -1.42,0.8 -2.12,1.2 -1.99,1.13 -3.96,2.25 -5.9,3.36 -0.54,0.3 -1.09,0.62 -1.63,0.92 -2.35,1.34 -4.66,2.65 -6.93,3.95 -0.25,0.14 -0.5,0.29 -0.75,0.43 -2.17,1.23 -4.29,2.44 -6.36,3.63 -0.53,0.3 -1.06,0.6 -1.59,0.9 -2.02,1.16 -3.99,2.29 -5.91,3.39 -0.35,0.2 -0.69,0.39 -1.04,0.59 -2,1.15 -3.95,2.27 -5.82,3.35 -0.23,0.13 -0.45,0.26 -0.68,0.39 -1.72,0.99 -3.37,1.95 -4.98,2.87 -0.29,0.17 -0.6,0.35 -0.89,0.52 -1.68,0.97 -3.28,1.9 -4.81,2.79 -0.27,0.15 -0.53,0.31 -0.79,0.46 -1.51,0.88 -2.95,1.72 -4.31,2.52 -0.22,0.13 -0.44,0.26 -0.66,0.39 -1.34,0.78 -2.61,1.54 -3.78,2.23 -0.16,0.1 -0.31,0.19 -0.46,0.28 -1.2,0.71 -2.32,1.39 -3.32,1.99 -4.82,2.93 -9.43,5.76 -13.96,8.55 -3.27,2.01 -6.47,3.99 -9.61,5.94 -22.56,14.04 -41.53,26.38 -58.38,37.84 -11.28,7.67 -21.63,14.97 -31.48,22.12 -5.77,4.19 -11.39,8.34 -16.91,12.49 -28.86,21.68 -55.66,43.52 -93.36,72.8 -4.96,3.85 -16.41,9.53 -26.68,16.65 -7.99,5.54 -15.26,11.94 -18.2,19.02 -0.37,0.9 -0.72,1.92 -1.03,3.02 -0.63,2.21 -1.14,4.81 -1.58,7.71 -0.22,1.44 -0.42,2.96 -0.6,4.55 -0.37,3.16 -0.67,6.58 -0.94,10.15 -0.13,1.79 -0.26,3.61 -0.38,5.47 -0.45,6.92 -0.85,14.23 -1.39,21.35 -42.57,41.52 -82.7,83.76 -116.47,122.93 -76,88.19 -163.98,219.35 -239.52,358.44 -0.41,0.11 -0.8,0.2 -1.22,0.31 -2.67,0.67 -5.47,1.39 -8.37,2.14 -3.97,1.03 -8.11,2.14 -12.3,3.27 -0.84,0.23 -1.68,0.45 -2.52,0.68 -2.23,0.61 -4.47,1.23 -6.71,1.86 -2.42,0.67 -4.83,1.35 -7.22,2.04 -2.15,0.62 -4.28,1.23 -6.36,1.86 -2.37,0.7 -4.67,1.39 -6.91,2.07 -1.68,0.52 -3.31,1.03 -4.89,1.54 -1.5,0.48 -2.96,0.95 -4.35,1.42 -0.8,0.26 -1.57,0.52 -2.33,0.78 -2.69,0.92 -5.12,1.79 -7.23,2.62 -1.31,0.51 -2.52,1 -3.56,1.47 -3.6,1.6 -5.52,2.9 -5.07,3.74 0,0 0,0.01 0,0.01 7.53,14.07 5.14,43.05 0.25,73.55 -19.62,-28.58 -29.88,-53.94 -42.03,-66.34 -6.37,-6.51 -15.02,-4.88 -19.18,-1.24 -3.24,2.83 -4.29,8.95 -3.61,13.89 0.1,0.75 0.26,1.56 0.38,2.34l22.96 -4.3 -22.96 4.29c5.11,31.64 29.04,81.78 50.15,132.97 -0.36,3.92 -0.7,8.29 -0.91,12.64 -21.93,51.74 -40.6,102.34 -54.7,150 -10.97,-5.91 -21.19,-10.34 -30.16,-12.56l-2.29 10.51 2.28 -10.51 -5.55 -1.08 0 0.01c-19.25,-2.66 -28.41,10.7 -14.89,24.89 18.38,19.3 28.34,23.04 37.79,36.49 -3.95,16.54 -7.26,32.63 -9.83,48.15 -8.55,51.57 -10.22,91.61 0.24,142.44 -3.56,-33.57 -3.36,-54.89 1.61,-88.81 3.78,-25.75 10.01,-53.41 18.28,-82.48 2.18,5.09 4.46,11.02 6.93,18.1 21.36,61.26 20.47,79.11 -9.35,136.55 -5.87,11.31 -11.89,24.24 -17.87,38.03l-0.1 -5.46c-2.87,-16.08 -7.11,-31.92 -13.13,-47.12 -27.28,-68.77 -93.63,-122.18 -155.52,-159.51 -17.56,-10.6 -105.49,-53.92 -123.72,-60.62 -15.96,-5.86 -36.11,-4.37 -32.68,18.21 1.16,7.62 28.51,71.12 35.53,94.03 32.01,104.39 -37.94,211.61 -139.66,239.95 -8.79,2.45 -17.25,4.52 -25.41,6.26 -4.38,-31.54 -5.64,-107.84 -6.2,-140.98l0.2 -50.04c1.96,-84.44 20.68,-280.58 59.7,-357.16 48.33,-94.85 126.46,-199.71 207.25,-269.44 76.23,-65.79 125.24,-85.41 214.06,-113.36l-46.95 10.01c-178,43.02 -312.56,205.18 -394.38,360.86 -15.75,29.96 -28.23,77.92 -37.53,128.65 -0.12,0.22 -0.24,0.44 -0.36,0.67 -0.43,0.78 -0.87,1.57 -1.31,2.37 -0.36,0.64 -0.72,1.28 -1.08,1.93 -0.48,0.84 -0.98,1.71 -1.47,2.57 -0.35,0.61 -0.7,1.21 -1.05,1.83 -0.55,0.93 -1.1,1.88 -1.66,2.83 -0.33,0.56 -0.65,1.11 -0.98,1.67 -0.68,1.15 -1.37,2.3 -2.06,3.45 -0.23,0.37 -0.44,0.74 -0.67,1.11 -0.91,1.52 -1.84,3.04 -2.78,4.57 -0.35,0.57 -0.7,1.13 -1.05,1.7 -0.6,0.98 -1.21,1.97 -1.83,2.95 -0.39,0.63 -0.79,1.26 -1.18,1.89 -0.58,0.92 -1.15,1.83 -1.72,2.75 -0.42,0.65 -0.84,1.31 -1.26,1.97 -0.56,0.88 -1.12,1.77 -1.69,2.65 -0.43,0.67 -0.87,1.35 -1.3,2.03 -0.54,0.84 -1.08,1.68 -1.62,2.51 -0.45,0.69 -0.89,1.38 -1.34,2.07 -0.54,0.83 -1.08,1.66 -1.62,2.48 -0.41,0.63 -0.83,1.27 -1.24,1.89 -0.56,0.86 -1.13,1.72 -1.68,2.56 -0.42,0.63 -0.83,1.25 -1.24,1.87 -0.53,0.8 -1.06,1.6 -1.58,2.38 -0.43,0.65 -0.86,1.29 -1.29,1.93 -0.51,0.76 -1.03,1.53 -1.53,2.29 -0.42,0.61 -0.83,1.23 -1.24,1.85 -0.5,0.72 -0.99,1.45 -1.47,2.17 -0.4,0.59 -0.8,1.17 -1.2,1.76 -0.5,0.74 -0.99,1.46 -1.48,2.18 -0.36,0.51 -0.71,1.03 -1.05,1.54 -0.52,0.75 -1.02,1.48 -1.52,2.21 -0.32,0.45 -0.63,0.91 -0.94,1.36 -0.49,0.71 -0.97,1.41 -1.45,2.1 -0.3,0.43 -0.6,0.86 -0.89,1.28 -0.45,0.65 -0.88,1.27 -1.32,1.89 -0.29,0.42 -0.59,0.85 -0.87,1.25 -0.42,0.6 -0.82,1.18 -1.22,1.74 -0.26,0.37 -0.52,0.74 -0.77,1.1 -0.43,0.61 -0.84,1.19 -1.24,1.76 -0.18,0.25 -0.37,0.52 -0.55,0.76 -0.44,0.63 -0.85,1.21 -1.26,1.77 -0.12,0.16 -0.24,0.35 -0.35,0.5 -0.49,0.68 -0.94,1.31 -1.36,1.88 0,0 -0.03,0.05 -0.03,0.05 -0.43,0.6 -0.82,1.13 -1.17,1.61 -5.72,7.76 -14.42,16.78 -20.82,26.94 -1.63,2.58 -2.02,4.32 -2.02,6.3 0,1.98 0.23,4.2 -0.14,7.75 -0.97,9.35 -1.47,18.93 -1.73,28.76 -0.12,4.91 -0.23,9.89 -0.23,14.93 0,5.05 -0.03,10.16 -0.03,15.35l0 0c0,7.11 0.4,20.46 0.88,34.65 0,2.03 0.21,4.07 0.21,6.12 0.14,4.09 0.28,8.19 0.41,12.17 0,1.99 0.2,3.95 0.2,5.86 0.32,9.57 0.59,18 0.67,23.31 0.12,7.8 -0.1,14.95 0.12,10.82 0,-0.45 0.1,-1.05 0.1,-1.8 0,-1.13 0.12,-2.6 0.21,-4.47 0.09,-1.87 0.19,-4.14 0.32,-6.85 0.25,-5.42 0.6,-12.62 1.05,-21.99 0.35,-7.14 1.35,-13.14 2.55,-18.35 1.69,-7.35 3.77,-13.13 5.07,-18.39 0.24,-0.96 0.47,-1.91 0.65,-2.84 0.81,-4.27 1.66,-8.08 2.67,-11.84 2.31,-8.63 5.52,-17.01 11.25,-29.89 2.46,-5.54 5.38,-11.89 8.92,-19.5 0.33,-0.72 0.73,-1.55 1.19,-2.47 1.39,-2.78 3.32,-6.43 5.64,-10.51 1.54,-2.72 3.25,-5.62 5.07,-8.58 1.82,-2.95 3.76,-5.96 5.76,-8.89 4,-5.85 8.24,-11.36 12.31,-15.46 1.23,-1.24 2.43,-2.3 3.62,-3.25 -3.38,30.85 -5.46,58.78 -6.29,79.76 -2.49,63.17 3.17,189.98 19.93,254.97 -118.69,23.81 -173.49,-24.51 -266.06,-26.13l0 0.84c-37.62,-15.8 -77.07,-27.39 -118.43,-33.46 -21.41,-3.14 -124.38,-10.1 -134.59,11.72 -7.1,15.18 13.31,22.28 23.89,25.82 54.25,18.13 40.4,9.31 94.02,40.18 209.62,120.68 301.78,312.71 284.44,554.34 -0.51,7.09 -1.29,13.96 -2.27,20.7 -6.43,4.16 -13.08,8.49 -19.26,12.6 -6.92,4.61 -13.23,8.94 -17.94,12.44 -4.71,3.5 -7.82,6.17 -8.34,7.45 -1.2,2.97 -5.4,14.33 2.79,16.87 0,0 0.81,0.13 0.81,0.13 0,0 0.61,0.02 0.95,-0.01 0.33,-0.04 0.69,-0.08 1.06,-0.15 3.34,-0.62 8.01,-2.63 11.78,-2.69 0.84,-0.01 1.63,0.08 2.35,0.29 0.73,0.22 1.38,0.57 1.95,1.09 2.77,2.57 2.42,8.54 0.03,17.17 -0.69,2.47 -1.54,5.15 -2.53,8.03 -1.48,4.33 -3.28,9.12 -5.31,14.3 -2.71,6.9 -5.82,14.51 -9.14,22.7 -0.59,1.47 -1.31,3.45 -2.12,5.84 -2.72,7.96 -6.49,20.52 -10.35,34.09 -0.77,2.72 -1.54,5.47 -2.31,8.24 -2.32,8.3 -4.58,16.72 -6.6,24.48 -3.69,14.22 -6.53,26.23 -7.21,31.29 -2.24,16.76 0.05,30.96 4.13,43.52 -0.12,0.28 -0.24,0.61 -0.36,0.89 -27.66,64.8 -4.67,65.52 -3.43,118.14 0,0 0.01,0.08 0.01,0.08 -1.52,4.86 -3.09,10 -4.71,15.4 -3.01,10.03 -6.18,20.87 -9.41,32.05 -3.22,11.18 -6.51,22.7 -9.74,34.1 -1.61,5.69 -3.21,11.36 -4.79,16.93 -1.57,5.57 -3.12,11.05 -4.62,16.38 -4.52,15.99 -8.68,30.62 -12.1,42.29 -1.71,5.84 -3.24,10.94 -4.54,15.1 -1.41,4.49 -3.35,9.11 -5.62,13.74 -4.54,9.26 -10.41,18.52 -15.96,26.66 -2.78,4.07 -5.47,7.86 -7.88,11.23 -1.29,1.8 -2.55,3.48 -3.75,5 -0.39,0.51 -0.79,1.01 -1.17,1.48 -1.52,1.91 -2.9,3.55 -4.01,4.88 -4.45,5.32 -4.68,5.61 6.6,-2.13 2.82,-1.94 6.36,-4.38 10.73,-7.37 1.09,-0.75 2.24,-1.53 3.44,-2.35 3.6,-2.45 7.68,-5.21 12.29,-8.32 7.07,-4.74 13.43,-7.44 19.08,-8.52 0.94,-0.19 1.86,-0.32 2.76,-0.42 0.9,-0.09 1.79,-0.14 2.65,-0.15 0.86,-0.02 1.7,0.01 2.52,0.08 6.58,0.54 11.86,3.54 15.82,7.92 0.99,1.1 1.9,2.28 2.73,3.54 0.41,0.63 0.8,1.27 1.17,1.93 1.11,1.98 2.02,4.1 2.75,6.3 0.49,1.47 0.89,2.98 1.21,4.5 1.1,5.35 1.15,10.94 0.13,16.08 -0.36,1.8 -0.97,4.56 -1.94,7.61 -0.33,1.02 -0.69,2.07 -1.1,3.12 -1.64,4.23 -4,8.58 -7.32,11.45 -1.76,1.51 -4.04,1.97 -6.53,1.94 -1.67,-0.01 -3.43,-0.24 -5.2,-0.5 -2.65,-0.41 -5.32,-0.9 -7.71,-0.91 -9.56,-0.03 -7.34,13.01 -1.14,26.66 1.24,2.73 2.64,5.48 4.14,8.16 3,5.36 6.38,10.42 9.65,14.39 1.85,2.25 6.44,6.95 12.27,12.85 2.19,2.22 4.55,4.6 7.01,7.09 1.64,1.65 3.33,3.35 5.03,5.08 0.85,0.87 1.71,1.74 2.57,2.61 3.43,3.5 6.9,7.06 10.22,10.53 1.66,1.74 3.28,3.45 4.84,5.12 1.54,1.65 3.02,3.26 4.42,4.81 8.6,39.83 20.53,81.24 37.18,125.97 59.54,159.9 216.52,284.28 372.29,343.85 76.34,29.19 108.64,45.65 192.31,55.26 28.05,3.22 59.85,6.8 79.62,-16.77 8.05,5.3 15.63,10.33 22.42,15.05 92.28,64.14 138.79,98.93 178.46,208.24 25.49,70.23 28.38,94.43 11.26,167.61 -21.99,94.01 -20.57,82.01 -36.34,190.66 19.85,-30.13 42.79,-61 59.27,-93.35 29.26,-57.41 52.11,-135.53 65.12,-214.8 34.5,-24.2 67.54,-50.16 99.11,-78.16 16.01,-14.2 33.71,-31.47 52.3,-48.8l4.22 3.5c37.99,29.26 136.49,32.26 183.81,33.81 38.15,0.8 73,0.12 111.1,-2.04 136.53,-7.77 213.71,-20.36 339.21,-77.13 26.83,-12.13 51.57,-24.25 74.77,-36.5 24.7,7.98 49.36,16 74.47,22.62 85.44,22.51 101.21,12.7 181.24,2.85 37.43,-4.61 65.58,14.45 90.4,40.6 43.55,45.87 74.49,94.49 97.41,153.33 7.81,20.04 6.86,18.14 24.25,20.41 3.8,-3.58 7.98,-6.37 9.29,-11.56 10.79,-42.91 -1.1,-120.04 -13.55,-161.61 -12.34,-41.18 -38.42,-93.41 -69.73,-147.15 3.55,2.08 7.58,3.8 12.08,4.97 16.67,4.08 34.54,4.48 51.6,3.87 82.17,-2.96 233.89,-59.75 306.26,-94.2 72.32,-34.44 184.73,-107.62 248.32,-156.94 47.71,-37 146.96,-134.04 164.55,-186.07 -17.03,35.27 -89.08,103.12 -119.84,132.26"/>
   <path class="fil4" d="M3435.46 2416l2.34 0.27 -0.57 -1.04c-0.18,-0.49 -0.24,-1.23 -0.23,-2.1 -0.41,1.25 -0.89,2.28 -1.54,2.87z"/>
   <path class="fil4" d="M3435.46 2416l2.34 0.27 -0.57 -1.04c-0.18,-0.49 -0.23,-1.23 -0.23,-2.1 -0.41,1.25 -0.89,2.28 -1.54,2.87z"/>
   <path class="fil1" d="M3437 2413.13c0.71,-2.17 1.09,-5.21 1.21,-8.84 -0.74,3.84 -1.2,6.82 -1.21,8.84z"/>
   <path class="fil1" d="M3437 2413.13c0.71,-2.17 1.09,-5.21 1.21,-8.84 -0.74,3.84 -1.21,6.82 -1.21,8.84z"/>
   <path class="fil1" d="M3445.85 2331.13c2.57,-2.56 4.06,-5.99 3.83,-9.68 -0.47,-7.21 -7.33,-12.6 -15.33,-12.05 -8,0.55 -14.11,6.84 -13.65,14.05 0.29,4.49 3.06,8.27 7.05,10.36l4.8 21.68c2.2,8.94 6.14,33.65 5.66,48.8 2.9,-15.14 9.7,-43.04 7.64,-73.16z"/>
   <path class="fil1" d="M3019.87 164.29c13.07,14.65 24.64,27.22 37.13,43.41 37.63,48.73 90.18,155.83 102.73,212.62 -4.18,-19.06 -10.63,-41.48 -17.23,-59.79l0.01 -0.01c-7.67,-21.15 -13.9,-44.04 -22.7,-64.51 -35.37,-82.41 -34.73,-75.23 -92.52,-139.57 0.17,-1.89 -0.39,-3.66 -1.75,-4.75 -2.48,-2.01 -6.6,-1.03 -9.19,2.18 -2.59,3.21 -2.68,7.44 -0.2,9.45 1.04,0.83 2.35,1.12 3.72,0.97z"/>
   <path class="fil1" d="M2938.21 64.51c5.8,-4.55 7.26,-12.36 3.28,-17.42 -3.98,-5.06 -11.91,-5.47 -17.71,-0.9 -5.79,4.55 -7.26,12.36 -3.28,17.42 3.99,5.06 11.91,5.47 17.71,0.9z"/>
   <path class="fil1" d="M2894.29 40.79c11.07,0.75 20.49,-5.42 21.04,-13.77 0.56,-8.34 -7.96,-15.7 -19.02,-16.44 -11.07,-0.74 -20.49,5.42 -21.05,13.77 -0.55,8.34 7.97,15.71 19.03,16.44z"/>
   <path class="fil1" d="M2948.7 835.89c22.02,-0.57 39.47,-15.73 39,-33.85 -0.47,-18.13 -18.7,-32.36 -40.71,-31.78 -22,0.58 -39.46,15.74 -38.99,33.86 0.47,18.12 18.7,32.35 40.7,31.77z"/>
   <path class="fil1" d="M2827.19 1544.97c-7.05,4.75 -10.05,12.63 -6.7,17.6 3.35,4.97 11.77,5.15 18.82,0.4 7.05,-4.74 10.05,-12.62 6.7,-17.59 -3.35,-4.98 -11.78,-5.16 -18.82,-0.41z"/>
   <path class="fil1" d="M2714.17 2786.22c-16.2,4.88 -26.36,18.71 -22.69,30.87 3.67,12.16 19.78,18.06 35.98,13.16 16.2,-4.88 26.36,-18.7 22.69,-30.87 -3.66,-12.16 -19.77,-18.05 -35.98,-13.16z"/>
   <path class="fil1" d="M2211.76 220.09c-6.48,-7.83 -20.27,-7.12 -30.81,1.6 -4.4,3.64 -7.45,8.11 -9.14,12.65 -9.09,-2.3 -19.13,-0.27 -26.76,6.36 -12.36,10.74 -13.7,29.43 -2.99,41.75 10.7,12.32 29.4,13.6 41.76,2.87 8.65,-7.53 11.88,-18.95 9.37,-29.35 3.84,-1.11 7.71,-3.03 11.21,-5.93 10.54,-8.71 13.83,-22.12 7.36,-29.95z"/>
   <path class="fil1" d="M2225.04 295.19c7.09,0.21 12.96,-4.18 13.12,-9.8 0.17,-5.63 -5.45,-10.35 -12.54,-10.55 -7.09,-0.2 -12.97,4.19 -13.13,9.81 -0.16,5.62 5.45,10.34 12.55,10.54z"/>
   <path class="fil1" d="M1494.7 734.56c4.94,-2.91 6.86,-8.8 4.3,-13.14 -2.57,-4.35 -8.65,-5.51 -13.59,-2.6 -4.94,2.92 -6.87,8.81 -4.3,13.15 2.57,4.35 8.65,5.51 13.59,2.59z"/>
   <path class="fil1" d="M1537.1 716.27c10.6,-5.49 16,-16.09 12.08,-23.67 -3.93,-7.59 -15.71,-9.28 -26.3,-3.8 -10.6,5.49 -16.01,16.09 -12.08,23.67 3.93,7.59 15.7,9.29 26.3,3.8z"/>
   <path class="fil1" d="M278.75 1606.97c0.22,-24.39 -23.89,-44.37 -53.85,-44.64 -29.96,-0.27 -54.42,19.29 -54.64,43.68 -0.12,13.64 7.38,25.9 19.25,34.11 -3.04,7.01 -2.62,15.46 1.87,22.54 1.79,2.81 4.04,5.14 6.6,6.94 -5.29,6.8 -7.01,15.37 -3.72,22.82 5.14,11.62 20.48,16.09 34.27,9.99 13.78,-6.09 20.8,-20.45 15.66,-32.07 -2.2,-4.98 -6.29,-8.63 -11.32,-10.72 1.22,-3.06 1.78,-6.37 1.66,-9.71 25.01,-3.73 44.03,-21.45 44.22,-42.94z"/>
  </g>
 </g>
</svg>
